<?xml version="1.0" encoding="utf-8"?>
<!-- Generator: Adobe Illustrator 24.0.2, SVG Export Plug-In . SVG Version: 6.00 Build 0)  -->
<svg version="1.1" xmlns="http://www.w3.org/2000/svg" xmlns:xlink="http://www.w3.org/1999/xlink" x="0px" y="0px"
	 viewBox="0 0 500 500" style="enable-background:new 0 0 500 500;" xml:space="preserve">
<style type="text/css">
	.st0{opacity:0.12;}
	.st1{fill:#A694EA;}
	.st2{fill:#CFC9F2;}
	.st3{fill:#5595F2;}
	.st4{fill:#88B4FF;}
	.st5{fill:#8969E2;}
	.st6{fill:#FFFFFF;}
	.st7{fill:#020A2D;}
	.st8{fill:#FF9670;}
	.st9{fill:#FC7F51;}
	.st10{fill:#030F4C;}
	.st11{fill:#465282;}
	.st12{fill:#561C02;}
	.st13{fill:#6E2501;}
	.st14{fill:#FE6705;}
	.st15{fill:#2D0E0B;}
	.st16{fill:#F46E45;}
	.st17{fill:#D03711;}
	.st18{fill:#FEB405;}
	.st19{fill:#E59900;}
	.st20{opacity:0.45;}
	.st21{fill:#606060;}
	.st22{fill:#4C16C4;}
	.st23{fill:#260799;}
	.st24{opacity:0.75;}
	.st25{fill:#E53E3E;}
	.st26{fill:#E55607;}
</style>
<g id="BACKGROUND">
</g>
<g id="OBJECTS">
	<g>
		<g class="st0">
			<path class="st1" d="M379.8,441.45l-210.56-2.86c-36.43,0.05-72.26-26.44-94.13-67.38c-21.88-40.95-29.78-95.11-22.64-144.74
				c7.15-49.62,28.85-94.22,58.28-123.62c18.14-18.12,39.35-30.77,61.64-34.16c22.29-3.39,45.63,2.84,64.75,19.57
				c33.29,29.13,51.32,86.57,86.98,109.49c16.61,10.68,35.27,12.57,52.91,19.18c34.72,13.02,67.71,50.34,72.32,99.92
				c3.38,36.38-5.08,63.46-22.58,92.09C412.3,432.61,400.83,444.17,379.8,441.45"/>
		</g>
		<g>
			<path class="st2" d="M418.89,443.35c0,4.48-72.22,8.11-161.31,8.11c-89.09,0-161.31-3.63-161.31-8.11
				c0-4.48,72.22-8.11,161.31-8.11C346.67,435.24,418.89,438.87,418.89,443.35z"/>
			<g>
				<g>
					<g>
						<path class="st3" d="M208.79,441.66c1.17-5.84,2.65-11.67,4.42-17.48c1.78-5.83,3.85-11.63,6.21-17.39
							c2.34-5.7,4.95-11.35,7.85-16.94c2.93-5.64,6.13-11.22,9.6-16.71c3.46-5.47,7.18-10.85,11.16-16.12
							c0.49-0.65,0.99-1.31,1.49-1.96c0.36-0.47,0.13-1.07-0.4-1.26c-0.57-0.21-1.14,0.73-1.5,1.2c-4.07,5.29-8.02,10-11.57,15.49
							c-3.52,5.45-6.78,10.98-9.76,16.59c-3.02,5.68-5.78,11.44-8.24,17.24c-2.43,5.75-4.58,11.54-6.43,17.36
							c-1.85,5.82-3.41,11.67-4.66,17.53c-0.15,0.72-0.3,1.45-0.45,2.17c-0.1,0.52,0.13,1.01,0.8,1.09
							C207.88,442.55,208.69,442.18,208.79,441.66L208.79,441.66z"/>
					</g>
					<g>
						<path class="st3" d="M246.78,357.03c1.44-3.45,2.67-6.7,5.21-9.45c1.01-1.1,2.97-2.1,4.39-2.57c0.66-0.22,1.62-0.14,1.76,0.54
							c0.05,0.23-0.03,0.46-0.1,0.68c-0.71,1.95-1.98,4.15-3.45,5.61C252.23,354.17,249.42,355.02,246.78,357.03"/>
					</g>
					<g>
						<path class="st3" d="M243.89,360.76c-1.78-3.4-3.53-6.5-4.03-10.3c-0.2-1.52,0.3-3.72,0.85-5.14
							c0.26-0.67,0.95-1.37,1.58-1.03c0.21,0.11,0.35,0.32,0.47,0.53c1.07,1.83,1.98,4.28,2.16,6.39
							C245.2,354.6,244.03,357.36,243.89,360.76"/>
					</g>
					<g>
						<path class="st3" d="M243.45,361.01c3.58-1.38,6.85-2.78,10.69-2.85c1.53-0.03,3.66,0.71,5.02,1.42
							c0.63,0.33,1.26,1.1,0.85,1.68c-0.14,0.19-0.36,0.31-0.58,0.4c-1.94,0.86-4.47,1.48-6.59,1.43
							C249.43,363.01,246.81,361.53,243.45,361.01"/>
					</g>
					<g>
						<path class="st3" d="M236.53,371.16c-1.92-3.68-3.82-7.03-4.36-11.15c-0.22-1.64,0.32-4.02,0.92-5.57
							c0.28-0.72,1.03-1.49,1.71-1.12c0.23,0.12,0.38,0.35,0.51,0.57c1.16,1.98,2.14,4.63,2.34,6.92
							C237.95,364.48,236.68,367.48,236.53,371.16"/>
					</g>
					<g>
						<path class="st3" d="M236.08,371c3.87-1.5,7.42-3.01,11.57-3.08c1.66-0.03,3.96,0.77,5.43,1.54c0.68,0.36,1.36,1.19,0.92,1.82
							c-0.15,0.21-0.39,0.33-0.62,0.44c-2.1,0.93-4.84,1.61-7.14,1.54C242.55,373.16,239.72,371.57,236.08,371"/>
					</g>
					<g>
						<path class="st3" d="M228.47,384.38c-2.46-4.7-4.89-8.99-5.58-14.25c-0.28-2.1,0.41-5.14,1.18-7.12
							c0.36-0.92,1.31-1.9,2.18-1.43c0.29,0.16,0.48,0.45,0.65,0.73c1.48,2.54,2.74,5.92,2.99,8.84
							C230.28,375.84,228.66,379.67,228.47,384.38"/>
					</g>
					<g>
						<path class="st3" d="M228.3,384.87c4.95-1.92,9.48-3.85,14.79-3.94c2.12-0.04,5.06,0.99,6.94,1.97
							c0.87,0.46,1.74,1.52,1.17,2.33c-0.19,0.27-0.5,0.43-0.8,0.56c-2.69,1.19-6.19,2.05-9.12,1.97
							C236.57,387.63,232.95,385.59,228.3,384.87"/>
					</g>
					<g>
						<path class="st3" d="M222.06,397.26c-2.85-4.48-5.63-8.54-6.76-13.73c-0.45-2.07-0.02-5.16,0.57-7.19
							c0.28-0.95,1.15-2,2.05-1.61c0.3,0.13,0.52,0.4,0.71,0.67c1.69,2.4,3.23,5.66,3.73,8.56
							C223.15,388.6,221.85,392.55,222.06,397.26"/>
					</g>
					<g>
						<path class="st3" d="M221.93,397.76c4.77-2.33,9.12-4.63,14.4-5.18c2.11-0.22,5.13,0.56,7.08,1.37
							c0.91,0.38,1.86,1.37,1.37,2.22c-0.17,0.28-0.46,0.47-0.75,0.63c-2.58,1.41-5.99,2.57-8.92,2.74
							C230.41,399.82,226.63,398.09,221.93,397.76"/>
					</g>
					<g>
						<path class="st3" d="M216.45,410.61c-2.53-3.49-4.98-6.66-6.15-10.81c-0.47-1.66-0.27-4.18,0.11-5.86
							c0.18-0.78,0.83-1.68,1.59-1.4c0.25,0.09,0.44,0.3,0.6,0.51c1.49,1.87,2.89,4.44,3.44,6.76
							C216.91,403.53,216.05,406.8,216.45,410.61"/>
					</g>
					<g>
						<path class="st3" d="M216.37,411.02c3.75-2.12,7.18-4.2,11.43-4.9c1.7-0.28,4.19,0.2,5.81,0.77c0.76,0.27,1.58,1.02,1.22,1.73
							c-0.12,0.24-0.35,0.4-0.58,0.54c-2.02,1.27-4.74,2.37-7.11,2.65C223.34,412.28,220.19,411.06,216.37,411.02"/>
					</g>
					<g>
						<path class="st3" d="M212.46,422.3c-2.33-2.74-4.57-5.22-5.81-8.6c-0.49-1.35-0.49-3.46-0.28-4.88
							c0.1-0.66,0.59-1.45,1.23-1.27c0.21,0.06,0.38,0.22,0.54,0.39c1.36,1.46,2.69,3.51,3.29,5.41
							C212.39,416.38,211.89,419.16,212.46,422.3"/>
					</g>
					<g>
						<path class="st3" d="M212.42,422.65c2.99-2,5.7-3.95,9.2-4.8c1.39-0.34,3.5-0.1,4.88,0.27c0.65,0.17,1.38,0.75,1.12,1.37
							c-0.08,0.21-0.27,0.36-0.44,0.49c-1.6,1.18-3.79,2.28-5.74,2.66C218.3,423.25,215.6,422.43,212.42,422.65"/>
					</g>
					<g>
						<path class="st3" d="M209.42,432.09c-2.11-2.06-4.13-3.92-5.4-6.58c-0.51-1.06-0.67-2.79-0.6-3.97
							c0.03-0.55,0.37-1.23,0.91-1.13c0.18,0.03,0.33,0.15,0.47,0.27c1.22,1.09,2.46,2.66,3.1,4.17
							C208.91,427.27,208.71,429.57,209.42,432.09"/>
					</g>
					<g>
						<path class="st3" d="M209.41,432.38c2.29-1.86,4.36-3.67,7.15-4.63c1.11-0.38,2.85-0.35,4.01-0.15
							c0.54,0.09,1.18,0.5,1.02,1.03c-0.05,0.18-0.19,0.31-0.33,0.43c-1.22,1.09-2.92,2.15-4.49,2.61
							C214.27,432.42,212,431.96,209.41,432.38"/>
					</g>
				</g>
				<g>
					<g>
						<path class="st4" d="M140.84,439.79c-3.14-7.42-6.67-14.75-10.59-21.96c-3.94-7.24-8.26-14.37-12.95-21.36
							c-4.64-6.92-9.64-13.7-14.99-20.32c-5.41-6.68-11.17-13.2-17.26-19.54c-6.07-6.31-12.46-12.43-19.17-18.34
							c-0.83-0.73-1.67-1.46-2.51-2.19c-0.61-0.52-0.46-1.38,0.19-1.78c0.7-0.44,1.7,0.66,2.31,1.18
							c6.83,5.9,13.34,11.08,19.53,17.39c6.14,6.26,11.96,12.72,17.43,19.34c5.55,6.71,10.76,13.59,15.59,20.61
							c4.78,6.95,9.2,14.05,13.24,21.26c4.03,7.21,7.68,14.54,10.93,21.97c0.4,0.92,0.8,1.84,1.19,2.76
							c0.28,0.66,0.1,1.38-0.76,1.66C142.29,440.71,141.12,440.45,140.84,439.79L140.84,439.79z"/>
					</g>
					<g>
						<path class="st4" d="M67.54,337.96c-2.84-4.19-5.36-8.16-9.47-11.11c-1.64-1.18-4.51-1.97-6.51-2.22
							c-0.93-0.11-2.19,0.25-2.18,1.19c0,0.31,0.16,0.6,0.32,0.87c1.47,2.39,3.74,4.97,6.09,6.5C59.55,335.64,63.5,336,67.54,337.96
							"/>
					</g>
					<g>
						<path class="st4" d="M72.38,342.11c1.43-4.98,2.92-9.57,2.55-14.74c-0.15-2.06-1.4-4.84-2.52-6.58
							c-0.52-0.81-1.63-1.56-2.37-0.94c-0.25,0.21-0.37,0.52-0.48,0.83c-0.92,2.72-1.46,6.2-1.13,9.05
							C68.97,334.3,71.28,337.65,72.38,342.11"/>
					</g>
					<g>
						<path class="st4" d="M73.04,342.32c-5.11-0.86-9.84-1.82-14.93-0.87c-2.03,0.38-4.66,1.94-6.26,3.25
							c-0.75,0.61-1.37,1.8-0.67,2.46c0.23,0.22,0.56,0.31,0.87,0.38c2.81,0.61,6.33,0.75,9.12,0.1
							C65.66,346.59,68.72,343.92,73.04,342.32"/>
					</g>
					<g>
						<path class="st4" d="M84.96,353.89c1.55-5.39,3.16-10.36,2.76-15.95c-0.16-2.23-1.52-5.24-2.73-7.13
							c-0.56-0.88-1.76-1.69-2.56-1.02c-0.27,0.22-0.4,0.56-0.51,0.89c-1,2.94-1.58,6.71-1.22,9.8
							C81.26,345.43,83.76,349.06,84.96,353.89"/>
					</g>
					<g>
						<path class="st4" d="M85.51,353.56c-5.53-0.94-10.65-1.97-16.16-0.95c-2.2,0.41-5.04,2.1-6.77,3.51
							c-0.81,0.66-1.48,1.94-0.72,2.66c0.25,0.24,0.61,0.34,0.95,0.41c3.04,0.66,6.85,0.82,9.88,0.11
							C77.52,358.18,80.84,355.3,85.51,353.56"/>
					</g>
					<g>
						<path class="st4" d="M99.23,369.22c1.98-6.9,4.04-13.24,3.52-20.4c-0.2-2.86-1.94-6.7-3.49-9.11
							c-0.72-1.12-2.26-2.16-3.28-1.3c-0.34,0.29-0.52,0.72-0.66,1.14c-1.27,3.76-2.02,8.58-1.56,12.53
							C94.5,358.41,97.69,363.04,99.23,369.22"/>
					</g>
					<g>
						<path class="st4" d="M99.59,369.82c-7.07-1.2-13.61-2.52-20.66-1.21c-2.81,0.52-6.44,2.68-8.66,4.49
							c-1.03,0.84-1.89,2.48-0.92,3.4c0.32,0.31,0.77,0.43,1.21,0.53c3.88,0.84,8.76,1.04,12.62,0.14
							C89.37,375.73,93.62,372.04,99.59,369.82"/>
					</g>
					<g>
						<path class="st4" d="M111.21,384.55c2.56-6.7,5.14-12.85,5.24-20.02c0.04-2.86-1.37-6.84-2.71-9.37
							c-0.62-1.18-2.06-2.34-3.15-1.57c-0.36,0.26-0.57,0.67-0.75,1.08c-1.59,3.64-2.74,8.38-2.62,12.35
							C107.42,373.38,110.21,378.26,111.21,384.55"/>
					</g>
					<g>
						<path class="st4" d="M111.52,385.18c-6.95-1.79-13.35-3.67-20.49-2.95c-2.85,0.28-6.65,2.13-9.01,3.74
							c-1.1,0.75-2.1,2.31-1.21,3.31c0.3,0.33,0.73,0.49,1.16,0.63c3.8,1.17,8.64,1.78,12.57,1.21
							C100.84,390.21,105.39,386.89,111.52,385.18"/>
					</g>
					<g>
						<path class="st4" d="M122.27,400.72c2.4-5.31,4.79-10.17,5.22-15.99c0.17-2.32-0.78-5.62-1.74-7.74
							c-0.45-0.99-1.56-2-2.48-1.43c-0.31,0.19-0.5,0.52-0.66,0.84c-1.46,2.88-2.63,6.67-2.72,9.89
							C119.74,391.47,121.76,395.57,122.27,400.72"/>
					</g>
					<g>
						<path class="st4" d="M122.49,401.24c-5.55-1.79-10.65-3.62-16.48-3.39c-2.32,0.09-5.49,1.4-7.49,2.6
							c-0.93,0.56-1.81,1.78-1.14,2.63c0.22,0.28,0.57,0.44,0.91,0.56c3.02,1.13,6.92,1.86,10.14,1.59
							C113.59,404.8,117.43,402.33,122.49,401.24"/>
					</g>
					<g>
						<path class="st4" d="M130.73,415.12c2.34-4.27,4.64-8.16,5.36-12.97c0.29-1.92-0.29-4.72-0.96-6.55
							c-0.31-0.85-1.17-1.76-1.97-1.35c-0.27,0.14-0.45,0.4-0.6,0.66c-1.4,2.3-2.61,5.38-2.89,8.06
							C129.21,407.27,130.63,410.81,130.73,415.12"/>
					</g>
					<g>
						<path class="st4" d="M130.88,415.58c-4.5-1.84-8.63-3.69-13.49-3.87c-1.94-0.07-4.66,0.82-6.4,1.69
							c-0.81,0.4-1.62,1.36-1.12,2.11c0.17,0.25,0.45,0.4,0.72,0.53c2.44,1.13,5.64,1.99,8.33,1.97
							C123.24,417.97,126.6,416.16,130.88,415.58"/>
					</g>
					<g>
						<path class="st4" d="M137.41,427.28c2.24-3.31,4.41-6.31,5.37-10.19c0.38-1.55,0.13-3.88-0.28-5.42
							c-0.19-0.72-0.82-1.53-1.51-1.25c-0.23,0.09-0.4,0.29-0.54,0.49c-1.32,1.77-2.54,4.19-2.98,6.36
							C136.77,420.75,137.66,423.75,137.41,427.28"/>
					</g>
					<g>
						<path class="st4" d="M137.5,427.66c-3.54-1.85-6.77-3.67-10.73-4.19c-1.58-0.21-3.87,0.31-5.36,0.89
							c-0.69,0.27-1.43,0.99-1.07,1.64c0.12,0.22,0.34,0.36,0.55,0.49c1.91,1.11,4.45,2.06,6.66,2.25
							C131.08,429.03,133.96,427.81,137.5,427.66"/>
					</g>
				</g>
				<g>
					<g>
						<path class="st3" d="M126.04,439.19c-3.64-3.27-7.48-6.39-11.5-9.35c-4.04-2.97-8.26-5.78-12.64-8.41
							c-4.34-2.61-8.84-5.05-13.5-7.31c-4.7-2.28-9.56-4.38-14.55-6.29c-4.97-1.9-10.07-3.62-15.29-5.14
							c-0.65-0.19-1.3-0.37-1.95-0.56c-0.47-0.13-0.61-0.64-0.36-1.03c0.27-0.42,1.11-0.08,1.58,0.05
							c5.29,1.48,10.21,2.65,15.24,4.53c5,1.86,9.87,3.91,14.59,6.14c4.79,2.26,9.43,4.7,13.91,7.32c4.43,2.59,8.69,5.36,12.78,8.28
							c4.08,2.93,7.99,6.02,11.69,9.27c0.46,0.4,0.91,0.8,1.36,1.21c0.32,0.29,0.41,0.73,0.01,1.11
							C127.08,439.32,126.37,439.48,126.04,439.19L126.04,439.19z"/>
					</g>
					<g>
						<path class="st3" d="M59.39,402.08c-2.65-1.57-5.06-3.11-8.08-3.67c-1.21-0.22-2.99,0.08-4.16,0.46
							c-0.54,0.18-1.14,0.7-0.89,1.22c0.08,0.17,0.24,0.29,0.4,0.4c1.42,0.94,3.34,1.77,5.03,2
							C54.4,402.87,56.66,402.04,59.39,402.08"/>
					</g>
					<g>
						<path class="st3" d="M63.13,403.11c-0.5-3.11-0.87-6.02-2.41-8.77c-0.61-1.1-2.02-2.3-3.09-2.97c-0.5-0.31-1.3-0.44-1.55,0.09
							c-0.08,0.18-0.07,0.38-0.05,0.58c0.2,1.73,0.8,3.79,1.72,5.28C59.24,399.69,61.37,400.94,63.13,403.11"/>
					</g>
					<g>
						<path class="st3" d="M63.55,403.06c-3.04,0.85-5.88,1.54-8.45,3.38c-1.02,0.73-2.06,2.27-2.61,3.4
							c-0.25,0.53-0.29,1.34,0.27,1.53c0.19,0.06,0.39,0.03,0.58-0.02c1.7-0.39,3.68-1.22,5.05-2.3
							C60.59,407.31,61.59,405.05,63.55,403.06"/>
					</g>
					<g>
						<path class="st3" d="M73.1,406.35c-0.54-3.37-0.94-6.52-2.6-9.49c-0.67-1.19-2.19-2.49-3.34-3.22
							c-0.54-0.34-1.41-0.47-1.67,0.1c-0.09,0.19-0.08,0.41-0.05,0.62c0.21,1.88,0.86,4.1,1.86,5.71
							C68.88,402.65,71.19,404,73.1,406.35"/>
					</g>
					<g>
						<path class="st3" d="M73.32,406.02c-3.29,0.91-6.37,1.66-9.14,3.66c-1.11,0.79-2.23,2.46-2.82,3.68
							c-0.28,0.57-0.31,1.45,0.29,1.65c0.2,0.07,0.42,0.03,0.63-0.02c1.84-0.42,3.98-1.32,5.46-2.49
							C70.11,410.63,71.2,408.18,73.32,406.02"/>
					</g>
					<g>
						<path class="st3" d="M84.91,411.1c-0.69-4.31-1.2-8.33-3.33-12.14c-0.85-1.52-2.8-3.19-4.27-4.11
							c-0.69-0.43-1.8-0.61-2.14,0.13c-0.11,0.25-0.1,0.53-0.07,0.8c0.27,2.4,1.11,5.25,2.38,7.3
							C79.52,406.37,82.47,408.09,84.91,411.1"/>
					</g>
					<g>
						<path class="st3" d="M85.26,411.34c-4.2,1.17-8.14,2.13-11.69,4.67c-1.41,1.02-2.85,3.14-3.61,4.71
							c-0.35,0.73-0.4,1.86,0.37,2.11c0.26,0.09,0.54,0.04,0.8-0.02c2.35-0.54,5.09-1.69,6.99-3.18
							C81.17,417.23,82.55,414.1,85.26,411.34"/>
					</g>
					<g>
						<path class="st3" d="M95.47,416.44c-0.32-4.35-0.49-8.4-2.29-12.37c-0.72-1.59-2.52-3.41-3.91-4.46
							c-0.65-0.49-1.74-0.76-2.14-0.05c-0.13,0.24-0.14,0.52-0.13,0.79c0.07,2.41,0.66,5.32,1.75,7.47
							C90.5,411.27,93.29,413.24,95.47,416.44"/>
					</g>
					<g>
						<path class="st3" d="M95.8,416.71c-4.29,0.81-8.29,1.43-12.04,3.67c-1.49,0.89-3.11,2.89-3.99,4.39
							c-0.41,0.7-0.56,1.82,0.19,2.13c0.25,0.11,0.53,0.08,0.8,0.04c2.39-0.34,5.21-1.25,7.23-2.58
							C91.22,422.23,92.86,419.23,95.8,416.71"/>
					</g>
					<g>
						<path class="st3" d="M105.73,422.48c-0.05-3.55,0.01-6.84-1.26-10.15c-0.51-1.32-1.88-2.89-2.96-3.81
							c-0.5-0.43-1.38-0.7-1.74-0.14c-0.12,0.18-0.14,0.41-0.15,0.63c-0.06,1.96,0.28,4.35,1.06,6.15
							C101.95,418.05,104.12,419.78,105.73,422.48"/>
					</g>
					<g>
						<path class="st3" d="M105.99,422.72c-3.52,0.45-6.8,0.76-9.94,2.39c-1.26,0.65-2.66,2.19-3.45,3.37
							c-0.37,0.55-0.54,1.45,0.05,1.74c0.2,0.1,0.43,0.09,0.65,0.08c1.96-0.16,4.29-0.76,5.99-1.74
							C102.01,426.97,103.48,424.62,105.99,422.72"/>
					</g>
					<g>
						<path class="st3" d="M114.11,428.23c0.18-2.95,0.44-5.69-0.4-8.52c-0.34-1.13-1.38-2.52-2.22-3.36
							c-0.39-0.39-1.1-0.67-1.43-0.23c-0.11,0.15-0.14,0.34-0.16,0.52c-0.18,1.63-0.05,3.63,0.49,5.18
							C111.24,424.3,112.94,425.88,114.11,428.23"/>
					</g>
					<g>
						<path class="st3" d="M114.31,428.44c-2.95,0.15-5.7,0.2-8.42,1.36c-1.09,0.46-2.35,1.65-3.09,2.58
							c-0.34,0.43-0.54,1.17-0.07,1.45c0.16,0.09,0.35,0.1,0.53,0.1c1.64-0.01,3.62-0.36,5.09-1.07
							C110.72,431.73,112.1,429.86,114.31,428.44"/>
					</g>
					<g>
						<path class="st3" d="M120.93,433.19c0.38-2.4,0.8-4.61,0.33-6.99c-0.19-0.95-0.93-2.17-1.55-2.91
							c-0.29-0.35-0.85-0.63-1.15-0.3c-0.1,0.11-0.14,0.26-0.17,0.41c-0.27,1.32-0.32,2.97,0,4.27
							C118.89,429.76,120.15,431.18,120.93,433.19"/>
					</g>
					<g>
						<path class="st3" d="M121.07,433.38c-2.43-0.1-4.67-0.27-6.99,0.46c-0.92,0.29-2.05,1.17-2.72,1.87
							c-0.31,0.33-0.53,0.91-0.17,1.18c0.12,0.09,0.28,0.11,0.43,0.13c1.34,0.12,2.98-0.02,4.24-0.48
							C117.89,435.79,119.16,434.37,121.07,433.38"/>
					</g>
				</g>
				<g>
					<g>
						<path class="st1" d="M170.26,370.48c0.07-0.12,0.15-0.24,0.23-0.36c-2.34-7.38-5.6-14.49-9.53-21.16
							c-7.3-12.38-16.85-23.32-27.33-33.16c-8.93-8.38-18.56-16.02-28.76-22.8c2.8,9.26,4.04,14.53,5.99,21.84
							c1.02,3.82,1.65,7.69,2.05,11.59c4.21,1.1,8.47,1.97,12.78,2.6c-4.15,0.49-8.3,0.97-12.45,1.46
							c0.66,10.49-0.02,21.19,0.71,31.72c1.21,0.1,2.42,0.18,3.63,0.22c3.22,0.12,6.53,0.05,9.53,1.23
							c-3.83,2.93-7.85,5.61-12.01,8.04c4.54,25.1,21.96,50.89,43.23,64.28c8.5-5.55,12.85-15.73,14.77-25.7
							c1.32-6.82,1.73-13.81,1.22-20.74c-0.26-3.51-0.76-7-1.46-10.44c-3.09,1.69-6.21,3.35-9.35,4.95
							C165.29,379.33,167.56,374.77,170.26,370.48z"/>
					</g>
					<g>
						<path class="st5" d="M133.62,315.8c-8.17-7.67-16.93-14.71-26.18-21.04c4.05,3.91,7.03,8.77,9.8,13.64
							c3.21,5.64,6.56,11.19,9.97,16.71c11.63,18.82,18.81,40.44,24.57,61.9c4.35,16.2,6.58,33.27,4.73,47.8
							c0.6,0.4,1.19,0.79,1.8,1.17c8.5-5.55,12.85-15.73,14.77-25.7c1.32-6.82,1.73-13.81,1.22-20.74c-0.26-3.51-0.76-7-1.46-10.44
							c-3.09,1.69-6.21,3.35-9.35,4.95c1.79-4.74,4.06-9.29,6.76-13.58c0.07-0.12,0.15-0.24,0.23-0.36
							c-2.34-7.38-5.6-14.49-9.53-21.16C153.65,336.58,144.1,325.64,133.62,315.8z"/>
					</g>
					<g>
						<g>
							<path class="st6" d="M158.24,428.84c-0.53-7.38-1.37-14.74-2.53-22.04c-1.16-7.33-2.63-14.6-4.42-21.8
								c-1.78-7.2-3.87-14.33-6.25-21.35c-2.38-7.01-5.06-13.91-8.02-20.69c-2.97-6.8-6.23-13.47-9.78-19.98
								c-0.44-0.81-0.88-1.61-1.33-2.42c-0.28-0.51-1.08-0.08-0.79,0.43c3.6,6.45,6.92,13.06,9.96,19.8
								c3.03,6.73,5.77,13.59,8.22,20.55c2.45,6.97,4.6,14.05,6.45,21.2c1.84,7.13,3.38,14.33,4.62,21.59
								c1.24,7.27,2.16,14.6,2.77,21.96c0.08,0.92,0.15,1.83,0.21,2.75C157.38,429.4,158.28,429.42,158.24,428.84L158.24,428.84z"/>
						</g>
						<g>
							<path class="st6" d="M155.98,409.99c-4.35-4.55-9.27-8.56-14.59-11.92c-1.49-0.94-3.01-1.83-4.56-2.66
								c-0.51-0.27-0.97,0.5-0.46,0.78c5.47,2.95,10.59,6.56,15.18,10.75c1.3,1.19,2.56,2.42,3.78,3.69
								C155.74,411.04,156.39,410.41,155.98,409.99L155.98,409.99z"/>
						</g>
						<g>
							<path class="st6" d="M144.18,361.43c-3.79-4.99-8.2-9.51-13.09-13.44c-1.4-1.12-2.83-2.19-4.3-3.22
								c-0.48-0.33-0.94,0.45-0.46,0.78c5.11,3.56,9.78,7.74,13.88,12.43c1.15,1.32,2.26,2.67,3.31,4.07
								c0.15,0.19,0.48,0.17,0.64,0.01C144.36,361.89,144.33,361.63,144.18,361.43L144.18,361.43z"/>
						</g>
						<g>
							<path class="st6" d="M152.05,388.59c1.47-3.53,2.79-7.12,3.95-10.77c1.17-3.66,2.18-7.37,3.03-11.12
								c0.48-2.1,0.9-4.21,1.27-6.33c0.04-0.24-0.06-0.49-0.31-0.56c-0.22-0.06-0.51,0.07-0.56,0.31c-0.66,3.77-1.49,7.5-2.47,11.2
								c-0.99,3.71-2.14,7.38-3.44,10.99c-0.73,2.03-1.51,4.03-2.34,6.02c-0.09,0.23,0.1,0.5,0.31,0.56
								C151.75,388.97,151.96,388.81,152.05,388.59L152.05,388.59z"/>
						</g>
					</g>
				</g>
			</g>
			<g>
				<g>
					<path class="st5" d="M412.74,201.65c0.92-13.22-8.04-22.25-22.44-23.25c-11.83-0.82-21.71,3.77-29.28,12.24
						c-2.57,2.88-6.92,3.3-9.9,0.84l-14.79-12.2c-2.92-2.41-3.48-6.71-1.18-9.72c13.65-17.9,34.15-28.14,61.38-26.25
						c33.25,2.31,55.05,21.99,52.84,53.83c-2.78,40.11-35.4,44.92-41.62,68.33c-0.88,3.3-3.95,5.52-7.35,5.28l-19.47-1.35
						c-4.29-0.3-7.37-4.31-6.47-8.51C381.04,230.1,411.24,223.37,412.74,201.65z M365.91,311.75c0.95-13.76,10.31-20.22,22.73-19.36
						c12.41,0.86,20.79,8.55,19.84,22.31c-0.94,13.49-10.36,20.98-22.78,20.12C373.28,333.96,364.97,325.24,365.91,311.75z"/>
					<path class="st1" d="M417.24,201.84c0.92-13.22-8.04-22.25-22.44-23.25c-11.83-0.82-21.71,3.77-29.28,12.24
						c-2.57,2.88-6.92,3.3-9.9,0.84l-14.79-12.2c-2.92-2.41-3.48-6.71-1.18-9.72c13.65-17.9,34.15-28.14,61.38-26.25
						c33.25,2.31,55.05,21.99,52.84,53.83c-2.78,40.11-35.4,44.92-41.62,68.33c-0.88,3.3-3.95,5.52-7.35,5.28l-19.47-1.35
						c-4.29-0.3-7.37-4.31-6.47-8.51C385.54,230.29,415.74,223.56,417.24,201.84z M370.41,311.94
						c0.95-13.76,10.31-20.22,22.73-19.36c12.41,0.86,20.79,8.55,19.84,22.31c-0.94,13.49-10.36,20.98-22.78,20.12
						C377.78,334.15,369.47,325.43,370.41,311.94z"/>
				</g>
				<g>
					<path class="st5" d="M263.5,108.15c0.26-3.78-2.3-6.36-6.42-6.65c-3.38-0.23-6.21,1.08-8.37,3.5
						c-0.74,0.82-1.98,0.94-2.83,0.24l-4.23-3.49c-0.84-0.69-0.99-1.92-0.34-2.78c3.9-5.12,9.77-8.05,17.55-7.51
						c9.51,0.66,15.74,6.29,15.11,15.39c-0.8,11.47-10.12,12.85-11.9,19.54c-0.25,0.94-1.13,1.58-2.1,1.51l-5.57-0.39
						c-1.23-0.08-2.11-1.23-1.85-2.43C254.43,116.29,263.07,114.36,263.5,108.15z M250.1,139.64c0.27-3.94,2.95-5.78,6.5-5.54
						c3.55,0.25,5.95,2.44,5.67,6.38c-0.27,3.86-2.96,6-6.51,5.75C252.21,145.99,249.84,143.5,250.1,139.64z"/>
					<path class="st1" d="M264.78,108.21c0.26-3.78-2.3-6.36-6.42-6.65c-3.38-0.23-6.21,1.08-8.37,3.5
						c-0.74,0.82-1.98,0.94-2.83,0.24l-4.23-3.49c-0.84-0.69-0.99-1.92-0.34-2.78c3.9-5.12,9.77-8.05,17.55-7.51
						c9.51,0.66,15.74,6.29,15.11,15.39c-0.8,11.47-10.12,12.85-11.9,19.54c-0.25,0.94-1.13,1.58-2.1,1.51l-5.57-0.39
						c-1.23-0.08-2.11-1.23-1.85-2.43C255.72,116.34,264.35,114.42,264.78,108.21z M251.39,139.69c0.27-3.94,2.95-5.78,6.5-5.54
						c3.55,0.25,5.95,2.44,5.67,6.38c-0.27,3.86-2.96,6-6.51,5.75C253.5,146.04,251.12,143.55,251.39,139.69z"/>
				</g>
				<g>
					<path class="st5" d="M94.71,213.76c-1.07-2.58-3.6-3.45-6.41-2.29c-2.31,0.95-3.74,2.75-4.38,5.05c-0.22,0.78-1,1.27-1.79,1.09
						l-3.93-0.92c-0.78-0.18-1.29-0.94-1.13-1.72c0.9-4.66,3.81-8.51,9.12-10.71c6.49-2.68,12.45-1.01,15.02,5.21
						c3.23,7.83-2.47,11.8-1.45,16.8c0.14,0.7-0.23,1.41-0.89,1.69l-3.8,1.57c-0.84,0.35-1.8-0.12-2.02-1
						C91.39,222.11,96.46,218.01,94.71,213.76z M96.19,238.93c-1.11-2.69,0.05-4.78,2.48-5.78c2.42-1,4.73-0.33,5.83,2.35
						c1.09,2.63,0.01,4.93-2.41,5.93C99.66,242.44,97.28,241.57,96.19,238.93z"/>
					<path class="st1" d="M95.58,213.38c-1.07-2.58-3.6-3.45-6.41-2.29c-2.31,0.95-3.74,2.75-4.38,5.05c-0.22,0.78-1,1.27-1.79,1.09
						l-3.93-0.92c-0.78-0.18-1.29-0.94-1.13-1.72c0.9-4.66,3.81-8.51,9.12-10.71c6.49-2.68,12.45-1.01,15.02,5.21
						c3.23,7.83-2.47,11.8-1.45,16.8c0.14,0.7-0.23,1.41-0.89,1.69l-3.8,1.57c-0.84,0.35-1.8-0.12-2.02-1
						C92.26,221.72,97.33,217.62,95.58,213.38z M97.06,238.55c-1.11-2.69,0.05-4.78,2.48-5.78c2.42-1,4.73-0.33,5.83,2.35
						c1.09,2.63,0.01,4.93-2.41,5.93C100.53,242.05,98.14,241.18,97.06,238.55z"/>
				</g>
			</g>
			<g>
				<path class="st7" d="M175.32,385.14c-2.64,9.85-4.56,20.2-7.95,29.81c-1.75,4.97-4.81,7.54-9.07,8.69
					c0.37,1.18,0.77,2.36,1.26,3.5c0.24,0.55,0.78,0.91,1.37,0.91c3.71,0.06,8.67-0.28,12.12-0.63c3.6-23.56,6.65-47.73,9.9-71.68
					C180.55,365.58,177.95,375.36,175.32,385.14z"/>
			</g>
			<g>
				<g>
					<g>
						<path class="st8" d="M184.29,157.57c1,4.2-0.24,8.6-1.76,12.64c-0.51,1.36-1.06,2.73-1.21,4.17c-0.11,1.05,0,2.12,0.14,3.17
							c0.65,4.76,2.29,9.77,6.22,12.55c1.45,1.02,3.29,3.41,4.99,2.93c1.15-0.32,2.09-2.83,2.91-3.69
							c3.57-3.75,5.22-8.89,6.41-13.93c0.1-0.42,0.2-0.85,0.16-1.28c-0.04-0.52-0.28-1.01-0.49-1.49c-1.95-4.4-2.17-9.54-0.6-14.09"
							/>
					</g>
					<g>
						<path class="st9" d="M184.52,162.77c0.35,0.23,0.7,0.5,1.02,0.85c2.22,2.35,6.64,2.7,9.66,2.33c1.29-0.16,3.84-1.67,4.89-2.69
							c0.04-2,0.31-2.8,0.95-4.69l-16.76-0.99C184.7,159.28,184.72,161.03,184.52,162.77z"/>
					</g>
				</g>
				<g>
					<path class="st8" d="M173.27,417.39c0,0-3.79,14.46-2.05,20.22c0,0-7.61,4.02-15.07-1.09c0,0,7.27-2.45,4.8-23"/>
					<path class="st10" d="M138.8,445.24c0.22-0.46,0.57-0.87,1.03-1.13c2.53-1.44,8.69-4.85,18.01-9.43c0,0,5.22,1.75,13.14,0.75
						c0,0,0.84,5.19,0.75,9.49C166.87,445.14,148.15,445.89,138.8,445.24z"/>
					<path class="st11" d="M171.72,444.92c-0.02,1.07-0.07,2.1-0.14,2.98h-33.06v-1.56c0-0.39,0.11-0.77,0.27-1.11
						C148.15,445.89,166.87,445.14,171.72,444.92z"/>
					<path class="st6" d="M156.58,436.3c0,0.32,0.26,0.59,0.59,0.59c0.32,0,0.59-0.26,0.59-0.59c0-0.32-0.26-0.59-0.59-0.59
						C156.84,435.72,156.58,435.98,156.58,436.3z"/>
					<path class="st6" d="M146.58,441.13c0,0.32,0.26,0.59,0.59,0.59c0.32,0,0.59-0.26,0.59-0.59c0-0.32-0.26-0.59-0.59-0.59
						C146.84,440.54,146.58,440.8,146.58,441.13z"/>
					<path class="st6" d="M152.08,438.84c0,0.32,0.26,0.59,0.59,0.59c0.32,0,0.59-0.26,0.59-0.59c0-0.32-0.26-0.59-0.59-0.59
						C152.34,438.25,152.08,438.52,152.08,438.84z"/>
				</g>
				<g>
					<path class="st8" d="M213.09,418.15c0,0,3.79,14.46,2.05,20.22c0,0,7.61,4.02,15.07-1.09c0,0-7.27-2.45-4.8-23"/>
					<path class="st10" d="M247.57,446c-0.22-0.46-0.57-0.87-1.03-1.13c-2.53-1.44-8.69-4.85-18.01-9.43c0,0-5.22,1.75-13.14,0.75
						c0,0-0.84,5.19-0.75,9.49C219.49,445.9,238.21,446.65,247.57,446z"/>
					<path class="st11" d="M214.64,445.68c0.02,1.07,0.07,2.1,0.14,2.98h33.06v-1.56c0-0.39-0.11-0.77-0.27-1.11
						C238.21,446.65,219.49,445.9,214.64,445.68z"/>
					<path class="st6" d="M229.79,437.06c0,0.32-0.26,0.59-0.59,0.59c-0.32,0-0.59-0.26-0.59-0.59c0-0.32,0.26-0.59,0.59-0.59
						C229.52,436.48,229.79,436.74,229.79,437.06z"/>
					<path class="st6" d="M239.79,441.89c0,0.32-0.26,0.59-0.59,0.59c-0.32,0-0.59-0.26-0.59-0.59c0-0.32,0.26-0.59,0.59-0.59
						C239.53,441.3,239.79,441.56,239.79,441.89z"/>
					<path class="st6" d="M234.29,439.6c0,0.32-0.26,0.59-0.59,0.59c-0.32,0-0.59-0.26-0.59-0.59c0-0.32,0.26-0.59,0.59-0.59
						C234.03,439.01,234.29,439.28,234.29,439.6z"/>
				</g>
				<g>
					<g>
						<g>
							<path class="st10" d="M173.06,427.43c-3.45,0.34-8.41,0.69-12.12,0.63c-0.59-0.01-1.14-0.37-1.37-0.91
								c-2.72-6.31-3.33-13.34-3.82-20.21c-3.38-47.12-2.44-92.03,1.5-139.11c0.04-0.46-0.55-3.44-0.2-3.74
								c0.44-0.38,1.11-0.23,1.67-0.07c18.93,5.58,38.78,8.02,58.5,7.18c1.33-0.06,2.82-0.07,3.77,0.85c0.53,0.51-0.22-0.7,0,0
								c1.28,4.05,2.65,10.27,2.97,14.51c1.82,23.47,3.64,46.94,4.4,70.47c0.75,23.21,0.45,46.45,0.13,69.67
								c-0.02,1.14-0.87,2.1-2,2.25l-6.43,0.85c-0.91,0.12-2.42,0.17-3.34,0.12c-2.02-0.13-2.89,0.14-3.19-0.83
								c-11.7-37.51-16.67-102.39-23.06-131.83c-0.2,8.2-1.44,16.34-2.67,24.45C182.49,356.49,178.37,392.63,173.06,427.43"/>
						</g>
						<g>
							<path class="st7" d="M157.25,267.82c-0.46,5.49-0.88,10.96-1.25,16.4c9.3-1.99,19.87-1.09,28.61-1.52
								c7.34-0.36,14.25-1.94,21.25-4.1c5.16-1.59,10.63-3.41,15.14-6.53c0-0.01,0-0.01-0.01-0.02c-0.96-0.92-2.45-0.91-3.77-0.85
								c-19.72,0.83-39.57-1.61-58.5-7.18c-0.56-0.17-1.23-0.31-1.67,0.07C156.69,264.38,157.29,267.36,157.25,267.82z"/>
						</g>
						<g>
							<path class="st7" d="M228.36,357.03c-0.39-12.09-1.06-24.16-1.87-36.23c-0.16,2.75-0.34,5.48-0.5,8.17
								c-0.91,14.51-2.93,28.91-3.77,43.43c-0.76,13.21-1.92,26.62-1.66,39.85c0.13,6.85-1.57,13.43-7.37,15.65
								c0.12,0.39,0.23,0.8,0.36,1.19c0.3,0.97,1.17,0.71,3.19,0.83c0.92,0.06,2.42,0,3.34-0.12l6.43-0.85
								c1.13-0.15,1.98-1.11,2-2.25C228.81,403.48,229.11,380.24,228.36,357.03z"/>
						</g>
					</g>
					<g>
						<g>
							<path class="st11" d="M191.43,298.92c2.25,8.23,4.36,16.49,6.33,24.79c1.98,8.34,3.83,16.71,5.53,25.11
								c1.7,8.36,3.26,16.75,4.67,25.16c1.43,8.46,2.71,16.93,3.86,25.43c1.15,8.51,2.15,17.03,3.01,25.57
								c0.11,1.08,0.22,2.16,0.32,3.25c0.05,0.49,0.81,0.49,0.77,0c-0.83-8.54-1.79-17.06-2.9-25.56
								c-1.11-8.5-2.35-16.97-3.74-25.43c-1.39-8.46-2.92-16.9-4.58-25.31c-1.67-8.41-3.48-16.79-5.42-25.14
								c-1.95-8.35-4.03-16.66-6.25-24.94c-0.28-1.05-0.57-2.1-0.85-3.15C192.04,298.25,191.3,298.45,191.43,298.92L191.43,298.92z"
								/>
						</g>
						<g>
							<path class="st11" d="M189.19,298.35c-2.01,8.21-3.88,16.46-5.61,24.74c-1.74,8.31-3.34,16.66-4.79,25.03
								c-1.45,8.33-2.76,16.68-3.92,25.05c-1.16,8.32-2.18,16.66-3.06,25.01c-0.89,8.44-1.63,16.9-2.23,25.37
								c-0.07,1.04-0.14,2.08-0.21,3.11c-0.03,0.49,0.73,0.49,0.77,0c0.56-8.43,1.27-16.85,2.12-25.25
								c0.85-8.41,1.84-16.81,2.97-25.19c1.13-8.37,2.41-16.73,3.82-25.06c1.41-8.29,2.96-16.56,4.65-24.8
								c1.7-8.28,3.53-16.54,5.51-24.76c0.24-1.01,0.49-2.02,0.74-3.04C190.04,298.07,189.31,297.87,189.19,298.35L189.19,298.35z"
								/>
						</g>
						<g>
							<path class="st11" d="M156.46,286.04c2.99-3.38,5.44-7.17,7.32-11.27c0.2-0.45-0.53-0.67-0.73-0.23
								c-1.82,3.97-4.22,7.67-7.11,10.94C155.61,285.85,156.13,286.41,156.46,286.04L156.46,286.04z"/>
						</g>
						<g>
							<path class="st11" d="M223.14,284.87c-3.66-2.64-6.89-5.79-9.63-9.38c-0.3-0.39,0.37-0.77,0.66-0.38
								c2.65,3.47,5.81,6.55,9.35,9.1C223.93,284.49,223.54,285.16,223.14,284.87L223.14,284.87z"/>
						</g>
					</g>
				</g>
				<g>
					<g>
						<path class="st8" d="M180.47,129.44c-1.02,4.91-1.48,9.93-1.36,14.94c0.11,4.48,1.06,8.43,3.66,12.08
							c3.07,4.29,5.62,6.87,10.1,7.09c4.34,0.22,7.66-2.12,10.21-5.63c2.55-3.52,4.22-6.92,4.86-11.21
							c0.88-5.96,0.84-12.06-0.13-18.01"/>
					</g>
					<g>
						<g>
							<path class="st12" d="M183.56,123.61c-0.2,1.44,0.38,2.92,1.47,3.86c1.11,0.96,2.67,1.22,4.05,0.77
								c0.69-0.23,1.32-0.61,1.81-1.15c0.44-0.48,1.01-1.39,1.73-0.85c0.59,0.45,1.02,1,1.7,1.35c0.6,0.31,1.24,0.5,1.91,0.58
								c1.56,0.19,3.18-0.27,4.35-1.32c0.37-0.33-0.14-0.9-0.51-0.57c-0.97,0.87-2.25,1.25-3.54,1.15
								c-0.64-0.05-1.28-0.22-1.85-0.51c-0.59-0.31-0.99-0.76-1.48-1.19c-0.46-0.39-1.03-0.58-1.61-0.32
								c-0.57,0.26-0.92,0.81-1.35,1.25c-0.97,0.98-2.52,1.3-3.8,0.79c-1.5-0.59-2.34-2.25-2.12-3.81
								C184.39,123.17,183.62,123.13,183.56,123.61L183.56,123.61z"/>
						</g>
						<g>
							<path class="st12" d="M188.64,116.79c0.97-0.63,2.18-0.78,3.25-0.36c0.97,0.38,1.74,1.25,2.04,2.25
								c0.14,0.47,0.89,0.31,0.75-0.16c-0.37-1.24-1.27-2.27-2.46-2.78c-1.26-0.54-2.78-0.37-3.93,0.37
								C187.89,116.38,188.23,117.06,188.64,116.79L188.64,116.79z"/>
						</g>
						<g>
							<path class="st12" d="M201.46,122.32c1.37-0.26,2.96,0.09,3.64,1.42c0.34,0.66,0.3,1.4,0.05,2.08
								c-0.12,0.33-0.28,0.64-0.47,0.93c-0.18,0.28-0.44,0.55-0.58,0.84c-0.25,0.52,0.14,0.84,0.57,1.06
								c0.56,0.28,1.02,0.69,1.39,1.2c0.85,1.17,1.08,2.65,1.27,4.05c0.07,0.49,0.82,0.33,0.75-0.16c-0.21-1.52-0.5-3.07-1.41-4.34
								c-0.38-0.52-0.85-0.99-1.42-1.3c-0.06-0.03-0.46-0.19-0.47-0.24c0,0.04,0.27-0.3,0.26-0.28c0.23-0.32,0.44-0.66,0.62-1.02
								c0.62-1.27,0.63-2.73-0.34-3.83c-1.01-1.15-2.59-1.43-4.03-1.15C200.82,121.67,200.98,122.42,201.46,122.32L201.46,122.32z"
								/>
						</g>
					</g>
					<g>
						<g>
							<path class="st8" d="M180.43,141.03c-0.44-0.62-0.94-1.21-1.55-1.56c-0.62-0.35-1.37-0.45-2.03-0.09
								c-0.63,0.34-1.11,1.07-1.33,1.86c-0.22,0.79-0.21,1.63-0.08,2.42c0.25,1.4,0.95,2.71,2.05,3.2c1.1,0.49,2.59-0.08,3.13-1.42
								c0.36-0.89,0.27-1.91,0.12-2.84"/>
						</g>
						<g>
							<path class="st9" d="M179.38,141.77c-0.16-0.22-0.33-0.43-0.55-0.55c-0.22-0.13-0.49-0.16-0.72-0.03
								c-0.22,0.12-0.39,0.38-0.47,0.66c-0.08,0.28-0.08,0.58-0.03,0.86c0.09,0.5,0.34,0.96,0.73,1.14
								c0.39,0.17,0.92-0.03,1.11-0.51c0.13-0.32,0.1-0.68,0.04-1.01"/>
						</g>
					</g>
					<g>
						<g>
							<path class="st8" d="M207.36,142.44c0.51-0.54,1.06-1.04,1.69-1.29c0.63-0.25,1.36-0.22,1.92,0.23
								c0.54,0.44,0.88,1.23,0.97,2.04c0.09,0.81-0.04,1.65-0.29,2.4c-0.44,1.34-1.3,2.53-2.41,2.83c-1.11,0.31-2.42-0.49-2.73-1.91
								c-0.21-0.94,0.03-1.93,0.31-2.82"/>
						</g>
						<g>
							<path class="st9" d="M208.24,143.33c0.18-0.19,0.38-0.37,0.6-0.46c0.22-0.09,0.48-0.08,0.68,0.08
								c0.19,0.16,0.31,0.44,0.35,0.73c0.03,0.29-0.02,0.58-0.1,0.85c-0.16,0.48-0.46,0.9-0.85,1.01c-0.39,0.11-0.86-0.17-0.97-0.68
								c-0.07-0.33,0.01-0.68,0.11-1"/>
						</g>
					</g>
					<path class="st13" d="M212.06,133.83c-0.21-1.55-0.92-3.03-0.86-4.59c0.06-1.42,0.75-2.76,0.72-4.18
						c-0.06-2.77-2.8-4.73-5.44-5.56c-2.65-0.83-5.56-1.05-7.86-2.6c-1.72-1.16-2.95-2.96-4.71-4.06c-2.72-1.69-6.51-1.29-8.97,0.76
						c-2.46,2.05-3.53,5.55-2.86,8.69c-2.34-0.5-4.84,1.1-5.67,3.35c-0.82,2.25-0.11,4.89,1.48,6.67c0,0,0.01,0.01,0.01,0.01
						c-0.4,1.65-0.86,5.13,1.37,7.88c0,0,0.88-2.88,1.08-6.03c1.2,0.62,2.53,1,3.87,1.14c1.95,0.21,3.95-0.04,5.79-0.72
						c2.32-0.86,4.6-2.42,7.04-2c1.43,0.25,2.65,1.16,3.75,2.1c0.61,0.52,1.22,1.08,1.99,1.34c1.63,0.54,3.73-0.34,4.96,0.86
						c0.07,0.07,0.13,0.16,0.2,0.24c-0.03,2.81,0.42,5.26,0.42,5.26c0.78-0.77,1.31-1.64,1.67-2.53
						C211.58,138.3,212.36,136.01,212.06,133.83z"/>
					<g>
						<g>
							<g>
								<path class="st14" d="M190.44,153.16c0.71,0.01,2.14-0.37,3.16-0.37c0.73-0.01,1.45,0.1,2.17,0.21
									c0.09,0.01,0.18,0.03,0.25,0.08c0.13,0.09,0.16,0.28,0.12,0.43c-0.05,0.15-0.16,0.27-0.28,0.38
									c-0.74,0.65-1.81,0.76-2.79,0.67C192.05,154.45,190.93,154.07,190.44,153.16"/>
							</g>
							<path class="st9" d="M179.63,147.33c-0.27,1.69,1.37,3.37,3.66,3.73c2.29,0.37,4.37-0.71,4.64-2.41
								c0.27-1.69-1.37-3.37-3.66-3.73C181.98,144.56,179.9,145.64,179.63,147.33z"/>
							<path class="st9" d="M206.64,148.66c0.32,1.69-1.27,3.4-3.55,3.83c-2.28,0.43-4.39-0.59-4.71-2.27
								c-0.32-1.69,1.27-3.4,3.55-3.83C204.21,145.95,206.32,146.97,206.64,148.66z"/>
							<g>
								<path class="st13" d="M190.97,136.65c-2.85-0.39-6.55-0.65-8.43,0.57c-0.93,0.61-1.79,0.37-0.91-0.3
									c2.74-2.07,5.67-2.03,9.9-1.74c0.46,0.03,0.72,0.48,0.55,0.91C191.95,136.45,191.4,136.8,190.97,136.65L190.97,136.65z"/>
							</g>
							<path class="st15" d="M185.04,141.1c0.12,0.83,0.76,1.43,1.44,1.33c0.68-0.1,1.13-0.85,1.02-1.68
								c-0.12-0.83-0.76-1.43-1.44-1.33C185.38,139.52,184.93,140.27,185.04,141.1z"/>
							<g>
								<path class="st13" d="M197.82,137.22c2.56-0.3,5.88-0.47,7.5,0.7c0.81,0.58,1.59,0.38,0.82-0.26
									c-2.36-1.98-4.98-2-8.76-1.81c-0.41,0.02-0.66,0.43-0.53,0.83C196.95,137.02,197.43,137.35,197.82,137.22L197.82,137.22z"/>
							</g>
							<path class="st15" d="M202.75,142.11c-0.21,0.81-0.92,1.33-1.58,1.16c-0.66-0.17-1.03-0.97-0.82-1.78
								c0.21-0.81,0.92-1.33,1.58-1.16C202.59,140.49,202.96,141.29,202.75,142.11z"/>
							<path class="st16" d="M194.6,148.25c0.61-0.11,1.14-0.35,1.64-0.65c-1.68-1.59-2.24-3.42-1.92-5.58
								c0.04-0.29,0.15-0.78,0.51-0.78c0.3,0.01,0.13,0.78,0.11,1.08c-0.17,2.68,0.89,3.56,2.7,4.98c0.25,0.19,0.21,0.59-0.02,0.77
								c-0.77,0.62-1.7,1.05-2.72,1.24C194.12,149.45,193.82,148.38,194.6,148.25z"/>
						</g>
						<g>
							<g>
								<path class="st17" d="M185.47,146.58c-0.91-0.29-1.75-0.82-2.44-1.55c-1.08-1.15-1.67-2.67-1.66-4.28
									c0.03-3.33,2.66-6.02,5.86-5.99c1.56,0.01,3.01,0.65,4.1,1.81c1.08,1.15,1.67,2.67,1.66,4.28
									c-0.03,3.33-2.66,6.02-5.86,5.99C186.56,146.84,186,146.75,185.47,146.58z M188.64,135.83c-0.45-0.14-0.93-0.22-1.41-0.22
									c-2.74-0.02-4.98,2.29-5.01,5.16c-0.01,1.39,0.5,2.7,1.43,3.69c0.93,0.98,2.17,1.53,3.49,1.54
									c2.74,0.02,4.98-2.29,5.01-5.16c0.01-1.39-0.5-2.7-1.43-3.69C190.13,136.53,189.42,136.08,188.64,135.83z"/>
							</g>
							<g>
								<polygon class="st17" points="182.11,139.3 182.09,140.06 179.36,139.9 179.63,138.84 								"/>
								<g>
									<path class="st17" d="M200.67,148.01c-3.18-0.34-5.49-3.3-5.14-6.62c0.17-1.6,0.93-3.05,2.13-4.07
										c1.21-1.03,2.73-1.5,4.28-1.33c3.18,0.34,5.49,3.3,5.14,6.62c-0.17,1.6-0.93,3.05-2.13,4.06
										c-0.77,0.65-1.65,1.07-2.59,1.26C201.8,148.05,201.23,148.07,200.67,148.01z M198.2,137.97c-1.04,0.88-1.69,2.12-1.84,3.51
										c-0.3,2.85,1.67,5.4,4.39,5.69c1.32,0.14,2.61-0.27,3.64-1.14c1.04-0.88,1.69-2.12,1.84-3.51c0.3-2.85-1.67-5.4-4.39-5.69
										c-0.48-0.05-0.96-0.03-1.43,0.06C199.61,137.06,198.86,137.42,198.2,137.97z"/>
								</g>
								<polygon class="st17" points="206.45,141.09 206.45,141.84 208.43,142.16 208.25,141.08 								"/>
							</g>
							<g>
								<path class="st17" d="M192.74,140.89l-0.29-0.66c0.11-0.05,2.58-1.1,3.84,0.56l-0.57,0.44
									C194.8,140.02,192.76,140.88,192.74,140.89z"/>
							</g>
						</g>
					</g>
				</g>
				<g>
					<g>
						<g>
							<path class="st18" d="M247.8,211.94c-4.28-6.99-9.3-14.25-13.97-20.98c-4.55-6.56-8.95-12.71-16.16-15.95
								c-0.57-0.45-1.22-0.81-1.87-1.15c-3.5-1.78-7.22-3.14-11.04-4.04c-0.86-0.2-1.75-0.38-2.61-0.2
								c-0.06,0.01-0.11,0.03-0.17,0.05c-3.48,9.11-10.09,24-10.18,23.69c-0.08-0.27-7.21-17.53-9.98-24.23
								c-0.36-0.06-0.74-0.04-1.11-0.01c-5.7,0.45-15.51,1.93-18.76,3.67c0,0,0,0,0,0c-7.47,3.19-11.96,9.46-16.59,16.15
								c-4.67,6.74-9.69,14-13.97,20.98c-0.26,0.43-0.53,0.97-0.27,1.4c0.09,0.15,0.24,0.27,0.39,0.37
								c6.1,4.48,12.51,8.54,19.18,12.15c0.3,0.16,0.64,0.33,0.98,0.26c0.46-0.1,0.7-0.58,0.89-1.01c2.02-4.64,4.21-7.49,6.58-10.9
								c-0.84,19.16-1.68,38.32-2.52,57.48c-0.03,0.73-0.04,1.54,0.42,2.1c0.35,0.42,0.89,0.62,1.41,0.79
								c19.37,6.55,40.8,6.87,60.36,0.91c0.69-0.21,1.42-0.46,1.84-1.04c0.42-0.57,0.44-1.32,0.45-2.03
								c0.15-15.83-0.87-31.64-2.05-47.42c-0.27-3.67-0.53-7.35-0.49-11.03c2.95,4.54,5.65,7.55,8.09,13.16
								c0.19,0.43,0.43,0.91,0.89,1.01c0.34,0.07,0.67-0.1,0.98-0.26c6.66-3.6,13.07-7.66,19.18-12.15
								c0.15-0.11,0.29-0.22,0.39-0.37C248.33,212.91,248.06,212.37,247.8,211.94z"/>
						</g>
						<g>
							<path class="st19" d="M214.18,243.44c-1.16,4.53-2.09,9.04-2.81,13.66c-0.55,3.49-1.66,6.53-4.34,8.93
								c-5.14,4.62-13.16,5.22-19.7,6.09c-9.2,1.23-19.32,1.4-28.66,0.51c19.31,6.47,40.64,6.77,60.12,0.83
								c0.69-0.21,1.42-0.46,1.84-1.04c0.42-0.57,0.44-1.32,0.45-2.03c0.15-15.82-0.87-31.63-2.05-47.41
								C217.74,229.88,215.92,236.68,214.18,243.44z"/>
						</g>
					</g>
					<g>
						<path class="st19" d="M159.11,212.52c0.03-0.13,0.06-0.27,0.1-0.4c-0.23,0.11-0.46,0.21-0.72,0.3
							c-4.11,1.35-6.98,4.48-11.58,4.67c-3.95,0.17-7.83-1.17-11.51-2.63c4.92,3.4,10.02,6.54,15.27,9.38
							c0.3,0.16,0.64,0.33,0.98,0.26c0.46-0.1,0.7-0.58,0.89-1.01c2.02-4.64,4.21-7.49,6.58-10.9L159.11,212.52z"/>
					</g>
					<g>
						<path class="st19" d="M247.8,211.94c-4.28-6.99-9.3-14.25-13.97-20.98c-0.07-0.1-0.14-0.2-0.2-0.29
							c1.48,4.92,2.11,10.17,2.73,15.2c1.02,8.38-1.73,13.52-6.75,19.38c6.27-3.45,12.32-7.3,18.08-11.53
							c0.15-0.11,0.29-0.22,0.39-0.37C248.33,212.91,248.06,212.37,247.8,211.94z"/>
					</g>
					<g>
						<path class="st6" d="M191.8,192.81c0,0,7.84-16.51,8.74-24.69l5.91,1.8l-1.41,18.6l-6.55-2.03L191.8,192.81z"/>
						<path class="st6" d="M191.8,192.81c0,0-7.55-16.9-8.4-25.07l-5.67,1.67l1.54,19.12l6.21-2.03L191.8,192.81z"/>
					</g>
					<g>
						<g>
							<g>
								<path class="st14" d="M191.42,192.81c-1.18,11.03-1.99,22.11-2.42,33.19c-0.21,5.51-0.33,11.03-0.35,16.54
									c-0.02,5.48,0.06,10.95,0.01,16.43c-0.06,6.16-0.28,12.32-0.99,18.44c-0.06,0.49,0.71,0.48,0.77,0
									c1.28-10.95,0.98-21.98,0.98-32.98c0-11.03,0.38-22.06,1.13-33.06c0.43-6.2,0.97-12.39,1.64-18.57
									C192.23,192.32,191.47,192.32,191.42,192.81L191.42,192.81z"/>
							</g>
							<g>
								<g>
									<path class="st14" d="M187.84,197.84c1.48,0,1.48-2.3,0-2.3C186.36,195.55,186.36,197.84,187.84,197.84L187.84,197.84z"/>
								</g>
								<g>
									<path class="st14" d="M186.49,211.33c1.48,0,1.48-2.3,0-2.3C185.01,209.04,185.01,211.33,186.49,211.33L186.49,211.33z"/>
								</g>
								<g>
									<path class="st14" d="M185.62,226.64c1.48,0,1.48-2.3,0-2.3C184.14,224.34,184.14,226.64,185.62,226.64L185.62,226.64z"/>
								</g>
								<g>
									<path class="st14" d="M185.62,239.98c1.48,0,1.48-2.3,0-2.3C184.14,237.68,184.14,239.98,185.62,239.98L185.62,239.98z"/>
								</g>
								<g>
									<path class="st14" d="M185.23,253.26c1.48,0,1.48-2.3,0-2.3C183.75,250.96,183.75,253.26,185.23,253.26L185.23,253.26z"/>
								</g>
								<g>
									<path class="st14" d="M184.42,266.14c1.48,0,1.48-2.3,0-2.3C182.94,263.84,182.94,266.14,184.42,266.14L184.42,266.14z"/>
								</g>
							</g>
						</g>
						<g>
							<path class="st14" d="M220.01,209.25c-0.19-7.77,0.23-15.54,1.26-23.25c0.3-2.22,0.65-4.44,1.05-6.65
								c0.09-0.52-0.77-0.74-0.86-0.22c-1.39,7.73-2.19,15.55-2.35,23.39c-0.05,2.24-0.04,4.49,0.01,6.73
								C219.13,209.78,220.02,209.78,220.01,209.25L220.01,209.25z"/>
						</g>
						<g>
							<path class="st14" d="M226.29,222.95c5.53-2.81,10.72-6.26,15.46-10.26c1.36-1.14,2.67-2.34,3.95-3.57
								c0.36-0.34-0.19-0.88-0.54-0.54c-4.44,4.28-9.36,8.04-14.66,11.19c-1.5,0.89-3.03,1.73-4.59,2.52
								C225.47,222.52,225.85,223.18,226.29,222.95L226.29,222.95z"/>
						</g>
						<g>
							<path class="st14" d="M159.18,207.23c0.18-7.77-0.23-15.54-1.26-23.25c-0.3-2.22-0.65-4.44-1.05-6.65
								c-0.09-0.52,0.77-0.74,0.86-0.22c1.39,7.73,2.19,15.55,2.35,23.39c0.05,2.24,0.04,4.49-0.01,6.73
								C160.06,207.75,159.16,207.76,159.18,207.23L159.18,207.23z"/>
						</g>
						<g>
							<path class="st14" d="M152.9,220.93c-5.53-2.81-10.72-6.26-15.46-10.26c-1.36-1.14-2.67-2.34-3.95-3.57
								c-0.36-0.34,0.19-0.88,0.54-0.54c4.44,4.28,9.36,8.04,14.66,11.19c1.5,0.89,3.03,1.73,4.59,2.52
								C153.72,220.49,153.34,221.16,152.9,220.93L152.9,220.93z"/>
						</g>
					</g>
				</g>
				<g>
					<g>
						<path class="st8" d="M242.42,217.23l-13.52,8.39c0.79,1.85,1.56,3.7,2.27,5.58c0.55,1.45,1.09,2.96,1.03,4.52
							c-0.06,1.57-0.71,3.04-1.36,4.47c-5.13,11.36-10.27,22.73-16.35,33.61c-0.26,0.47-0.53,0.98-0.44,1.51
							c0.07,0.44,0.39,0.79,0.69,1.11c2.02,2.18,4.18,4.22,6.47,6.1c9.03-12.06,17.36-24.64,24.94-37.66
							c0.71-1.22,1.43-2.47,1.71-3.86c0.25-1.25,0.14-2.53-0.01-3.8C247.03,230.32,245.18,223.58,242.42,217.23z"/>
					</g>
					<g>
						<path class="st9" d="M214.15,275.54c0.67-0.52,1.34-1.04,2-1.57c5.21-6.89,10.08-14.28,14.1-21.83
							c2.36-4.44,4.2-9.21,4.72-14.25c0.51-4.89-1.05-9.21-2.82-13.69c-0.07-0.17-0.12-0.33-0.17-0.5l-3.08,1.91
							c0.79,1.85,1.56,3.7,2.27,5.58c0.55,1.45,1.09,2.96,1.03,4.52c-0.06,1.57-0.71,3.04-1.36,4.47
							c-5.13,11.36-10.27,22.73-16.35,33.61c-0.26,0.47-0.53,0.98-0.44,1.51C214.07,275.39,214.12,275.46,214.15,275.54z"/>
					</g>
				</g>
				<g>
					<g>
						<path class="st8" d="M169.32,171.87c3.78-4.5,7.09-9.57,11.73-13.25c0.78-0.62,1.92-1.24,2.72-0.64
							c-0.65,1.98-3.17,3.41-2.78,5.45c0.14,0.72,0.63,1.33,1.11,1.9c0.84,1,1.67,2,2.51,3c0.28,0.33,0.56,0.68,0.68,1.09
							c0.11,0.42,0.04,0.86-0.1,1.27c-0.92,2.86-4.14,4.28-6.76,5.89c-5.53,3.41-9.36,8.82-12.35,14.42
							c-2.99,5.6-5.29,11.54-8.6,16.98c-3.09,5.07-7.03,9.62-11.23,13.9c-2.19,2.23-4.5,4.42-7.36,5.78
							c-2.2,1.05-5.36,1.32-6.7-0.66c-0.72-1.08-0.63-2.47-0.45-3.73c0.98-7.02,3.72-13.8,7.93-19.62
							C147.51,192.84,164.2,179.41,169.32,171.87"/>
					</g>
					<g>
						<path class="st9" d="M172.06,172.01c2.92-3.59,4.8-7.93,7.49-11.72c0.03-0.05,0.05-0.11,0.08-0.16
							c0.01,0.01,0.02,0.01,0.03,0.02c0.21-0.3,0.43-0.6,0.65-0.89c-4.25,3.62-7.41,8.36-10.98,12.61
							c-1.16,1.71-2.91,3.71-5.01,5.92C167.19,176.18,170.04,174.51,172.06,172.01z"/>
					</g>
					<g>
						<path class="st9" d="M158,203.76c-5.41,6.74-13.06,20.04-23.38,17.65c-0.99-0.23-1.74-0.67-2.31-1.23
							c-0.22,1.02-0.41,2.04-0.56,3.08c-0.18,1.27-0.27,2.65,0.45,3.73c1.33,1.99,4.5,1.71,6.7,0.66c2.86-1.36,5.18-3.56,7.36-5.78
							c4.2-4.28,8.13-8.83,11.23-13.9c1.81-2.97,3.32-6.09,4.8-9.22C160.83,200.36,159.39,202.02,158,203.76z"/>
					</g>
				</g>
			</g>
			<g class="st20">
				<g>
					<path class="st6" d="M288.98,208.45c0.98,0,0.99-1.53,0-1.53C287.99,206.92,287.99,208.45,288.98,208.45L288.98,208.45z"/>
				</g>
				<g>
					<path class="st6" d="M280.89,220.45c0.98,0,0.99-1.53,0-1.53C279.9,218.92,279.9,220.45,280.89,220.45L280.89,220.45z"/>
				</g>
				<g>
					<path class="st6" d="M293.02,220.32c0.98,0,0.99-1.53,0-1.53C292.04,218.79,292.04,220.32,293.02,220.32L293.02,220.32z"/>
				</g>
				<g>
					<path class="st6" d="M286.82,232.05c0.98,0,0.99-1.53,0-1.53C285.84,230.52,285.83,232.05,286.82,232.05L286.82,232.05z"/>
				</g>
				<g>
					<path class="st6" d="M301.11,230.56c0.98,0,0.99-1.53,0-1.53C300.13,229.03,300.13,230.56,301.11,230.56L301.11,230.56z"/>
				</g>
				<g>
					<path class="st6" d="M296.53,240.81c0.98,0,0.99-1.53,0-1.53C295.54,239.28,295.54,240.81,296.53,240.81L296.53,240.81z"/>
				</g>
				<g>
					<path class="st6" d="M283.31,242.43c0.98,0,0.99-1.53,0-1.53C282.33,240.9,282.33,242.43,283.31,242.43L283.31,242.43z"/>
				</g>
				<g>
					<path class="st6" d="M305.16,218.97c0.98,0,0.99-1.53,0-1.53C304.17,217.44,304.17,218.97,305.16,218.97L305.16,218.97z"/>
				</g>
				<g>
					<path class="st6" d="M302.46,208.72c0.98,0,0.99-1.53,0-1.53C301.48,207.19,301.47,208.72,302.46,208.72L302.46,208.72z"/>
				</g>
				<g>
					<path class="st6" d="M281.56,212.23c0.98,0,0.99-1.53,0-1.53C280.58,210.7,280.58,212.23,281.56,212.23L281.56,212.23z"/>
				</g>
				<g>
					<path class="st6" d="M276.71,203.6c0.98,0,0.99-1.53,0-1.53C275.72,202.07,275.72,203.6,276.71,203.6L276.71,203.6z"/>
				</g>
				<g>
					<path class="st6" d="M270.78,213.17c0.98,0,0.99-1.53,0-1.53C269.79,211.64,269.79,213.17,270.78,213.17L270.78,213.17z"/>
				</g>
				<g>
					<path class="st6" d="M269.97,223.01c0.98,0,0.99-1.53,0-1.53C268.98,221.48,268.98,223.01,269.97,223.01L269.97,223.01z"/>
				</g>
				<g>
					<path class="st6" d="M314.46,211.69c0.98,0,0.99-1.53,0-1.53C313.48,210.16,313.47,211.69,314.46,211.69L314.46,211.69z"/>
				</g>
				<g>
					<path class="st6" d="M315.81,201.17c0.98,0,0.99-1.53,0-1.53C314.82,199.64,314.82,201.17,315.81,201.17L315.81,201.17z"/>
				</g>
				<g>
					<path class="st6" d="M305.02,202.25c0.98,0,0.99-1.53,0-1.53C304.04,200.72,304.04,202.25,305.02,202.25L305.02,202.25z"/>
				</g>
				<g>
					<path class="st6" d="M314.33,225.04c0.98,0,0.99-1.53,0-1.53C313.34,223.5,313.34,225.04,314.33,225.04L314.33,225.04z"/>
				</g>
				<g>
					<path class="st6" d="M310.01,235.82c0.98,0,0.99-1.53,0-1.53C309.03,234.29,309.02,235.82,310.01,235.82L310.01,235.82z"/>
				</g>
				<g>
					<path class="st6" d="M305.97,244.32c0.98,0,0.99-1.53,0-1.53C304.98,242.79,304.98,244.32,305.97,244.32L305.97,244.32z"/>
				</g>
				<g>
					<path class="st6" d="M319.31,242.29c0.98,0,0.99-1.53,0-1.53C318.33,240.76,318.33,242.29,319.31,242.29L319.31,242.29z"/>
				</g>
				<g>
					<path class="st6" d="M322.01,233.39c0.98,0,0.99-1.53,0-1.53C321.03,231.86,321.02,233.39,322.01,233.39L322.01,233.39z"/>
				</g>
				<g>
					<path class="st6" d="M320.26,221.53c0.98,0,0.99-1.53,0-1.53C319.27,220,319.27,221.53,320.26,221.53L320.26,221.53z"/>
				</g>
			</g>
			<g>
				<g>
					<g>
						<path class="st4" d="M310.46,438.46c0.26-8.05,0.92-16.16,1.99-24.3c1.07-8.17,2.54-16.38,4.4-24.59
							c1.84-8.12,4.06-16.25,6.68-24.35c2.64-8.18,5.67-16.34,9.08-24.44c3.39-8.07,7.16-16.08,11.29-24
							c0.51-0.98,1.03-1.96,1.55-2.95c0.38-0.71-0.07-1.45-0.82-1.6c-0.81-0.15-1.35,1.23-1.73,1.93
							c-4.25,7.97-8.46,15.14-11.97,23.25c-3.48,8.05-6.59,16.17-9.31,24.31c-2.76,8.26-5.15,16.55-7.13,24.84
							c-1.96,8.21-3.53,16.42-4.7,24.6c-1.17,8.18-1.94,16.33-2.3,24.43c-0.04,1-0.08,2-0.11,3c-0.02,0.72,0.41,1.32,1.31,1.28
							C309.43,439.84,310.44,439.18,310.46,438.46L310.46,438.46z"/>
					</g>
					<g>
						<path class="st4" d="M342.22,317.08c1.15-4.93,2.07-9.54,4.84-13.77c1.11-1.69,3.5-3.46,5.28-4.41
							c0.83-0.44,2.13-0.55,2.46,0.33c0.11,0.29,0.07,0.62,0.01,0.93c-0.51,2.75-1.71,5.98-3.35,8.25
							C348.85,312.04,345.29,313.8,342.22,317.08"/>
					</g>
					<g>
						<path class="st4" d="M339.2,322.7c-3.13-4.13-6.16-7.88-7.68-12.84c-0.6-1.98-0.43-5.02-0.02-7.05
							c0.19-0.94,0.96-2.04,1.87-1.73c0.3,0.1,0.53,0.35,0.74,0.6c1.84,2.21,3.59,5.26,4.31,8.04
							C339.57,314.18,338.63,318.13,339.2,322.7"/>
					</g>
					<g>
						<path class="st4" d="M338.66,323.12c4.46-2.65,8.52-5.24,13.62-6.19c2.03-0.38,5.04,0.13,7.01,0.78
							c0.92,0.3,1.92,1.18,1.51,2.05c-0.14,0.29-0.41,0.49-0.68,0.67c-2.4,1.58-5.63,2.98-8.48,3.38
							C347.09,324.45,343.27,323.07,338.66,323.12"/>
					</g>
					<g>
						<path class="st4" d="M331.7,338.21c-3.39-4.47-6.67-8.53-8.31-13.89c-0.65-2.14-0.47-5.44-0.02-7.63
							c0.21-1.02,1.04-2.21,2.03-1.87c0.33,0.11,0.58,0.38,0.8,0.65c1.99,2.39,3.89,5.7,4.66,8.71
							C332.11,328.99,331.08,333.27,331.7,338.21"/>
					</g>
					<g>
						<path class="st4" d="M331.07,338.1c4.83-2.86,9.22-5.67,14.74-6.7c2.2-0.41,5.46,0.15,7.59,0.84
							c0.99,0.32,2.08,1.28,1.63,2.22c-0.15,0.31-0.44,0.53-0.73,0.72c-2.6,1.71-6.1,3.22-9.17,3.66
							C340.18,339.54,336.05,338.04,331.07,338.1"/>
					</g>
					<g>
						<path class="st4" d="M323.9,357.64c-4.33-5.72-8.53-10.9-10.62-17.76c-0.84-2.74-0.6-6.95-0.02-9.76
							c0.27-1.31,1.33-2.83,2.59-2.39c0.42,0.14,0.74,0.49,1.02,0.83c2.54,3.05,4.97,7.28,5.96,11.13
							C324.42,345.85,323.11,351.32,323.9,357.64"/>
					</g>
					<g>
						<path class="st4" d="M323.78,358.34c6.17-3.66,11.79-7.25,18.85-8.56c2.81-0.52,6.98,0.19,9.7,1.08
							c1.27,0.41,2.66,1.64,2.08,2.84c-0.19,0.4-0.57,0.68-0.94,0.92c-3.32,2.18-7.8,4.12-11.73,4.67
							C335.44,360.18,330.15,358.26,323.78,358.34"/>
					</g>
					<g>
						<path class="st4" d="M318.23,376.26c-4.8-5.33-9.42-10.14-12.09-16.8c-1.07-2.66-1.19-6.88-0.85-9.72
							c0.16-1.33,1.08-2.93,2.38-2.6c0.43,0.11,0.78,0.42,1.09,0.74c2.79,2.83,5.57,6.84,6.88,10.58
							C317.75,364.47,316.91,370.03,318.23,376.26"/>
					</g>
					<g>
						<path class="st4" d="M318.17,376.96c5.84-4.17,11.13-8.22,18.05-10.12c2.76-0.76,6.97-0.41,9.75,0.25
							c1.3,0.31,2.79,1.41,2.32,2.66c-0.16,0.42-0.51,0.73-0.86,1c-3.12,2.46-7.42,4.77-11.29,5.65
							C329.94,377.81,324.51,376.35,318.17,376.96"/>
					</g>
					<g>
						<path class="st4" d="M313.73,395.32c-4.15-4.09-8.13-7.77-10.62-13.04c-0.99-2.1-1.3-5.52-1.16-7.84
							c0.06-1.08,0.74-2.43,1.8-2.23c0.36,0.07,0.65,0.31,0.92,0.55c2.4,2.16,4.85,5.28,6.1,8.25
							C312.77,385.78,312.35,390.33,313.73,395.32"/>
					</g>
					<g>
						<path class="st4" d="M313.72,395.89c4.53-3.67,8.63-7.21,14.15-9.09c2.2-0.75,5.63-0.67,7.92-0.27
							c1.07,0.19,2.33,1.01,2.01,2.04c-0.11,0.35-0.38,0.61-0.65,0.85c-2.41,2.14-5.79,4.23-8.89,5.13
							C323.3,396.01,318.83,395.09,313.72,395.89"/>
					</g>
					<g>
						<path class="st4" d="M311.02,411.81c-3.71-3.14-7.26-5.94-9.67-10.17c-0.96-1.69-1.43-4.51-1.46-6.45
							c-0.02-0.9,0.46-2.07,1.36-1.97c0.3,0.03,0.56,0.21,0.8,0.4c2.13,1.64,4.37,4.08,5.6,6.48
							C309.61,403.93,309.56,407.74,311.02,411.81"/>
					</g>
					<g>
						<path class="st4" d="M311.04,412.28c3.54-3.34,6.72-6.55,11.2-8.46c1.78-0.76,4.64-0.91,6.57-0.73c0.9,0.09,2,0.69,1.8,1.57
							c-0.07,0.29-0.27,0.53-0.48,0.75c-1.87,1.94-4.54,3.88-7.07,4.83C319.03,411.77,315.24,411.29,311.04,412.28"/>
					</g>
					<g>
						<path class="st4" d="M309.16,425.55c-3.28-2.28-6.39-4.3-8.68-7.57c-0.91-1.31-1.51-3.58-1.69-5.16
							c-0.08-0.74,0.22-1.72,0.96-1.71c0.25,0,0.48,0.13,0.68,0.26c1.87,1.18,3.88,3,5.07,4.86
							C307.4,419.23,307.65,422.35,309.16,425.55"/>
					</g>
					<g>
						<path class="st4" d="M309.21,425.94c2.64-3,4.99-5.86,8.5-7.77c1.4-0.76,3.72-1.1,5.32-1.1c0.74,0,1.69,0.41,1.59,1.15
							c-0.03,0.25-0.18,0.46-0.34,0.65c-1.38,1.73-3.42,3.52-5.4,4.49C315.7,424.91,312.57,424.8,309.21,425.94"/>
					</g>
				</g>
				<g>
					<g>
						<path class="st1" d="M359.55,373.12c-0.01-0.14-0.01-0.28-0.02-0.42c5.7-5.24,12.06-9.79,18.79-13.62
							c12.49-7.11,26.22-11.84,40.2-15.17c11.92-2.83,24.07-4.66,36.29-5.47c-7.04,6.64-10.73,10.6-16.06,15.96
							c-2.78,2.8-5.26,5.85-7.55,9.04c-4.2-1.14-8.33-2.5-12.38-4.1c3.36,2.49,6.71,4.97,10.07,7.46
							c-5.79,8.77-10.52,18.39-16.39,27.17c-1.1-0.51-2.18-1.05-3.26-1.61c-2.85-1.5-5.69-3.21-8.88-3.67
							c1.86,4.45,4.01,8.77,6.42,12.95c-16.42,19.51-44.36,33.22-69.48,34.26c-4.62-9.04-3.32-20.03-0.03-29.64
							c2.25-6.57,5.37-12.84,9.26-18.6c1.97-2.92,4.14-5.7,6.47-8.33c1.84,3,3.72,5.99,5.65,8.94
							C359.46,383.26,359.76,378.18,359.55,373.12z"/>
					</g>
					<g>
						<path class="st5" d="M418.53,343.91c10.9-2.59,22.01-4.33,33.18-5.23c-5.46,1.38-10.46,4.11-15.29,6.96
							c-5.59,3.3-11.26,6.45-16.97,9.54c-19.45,10.54-36.43,25.73-52.11,41.47c-11.84,11.89-22.26,25.59-27.88,39.12
							c-0.71,0.05-1.43,0.09-2.14,0.12c-4.62-9.04-3.32-20.03-0.03-29.64c2.25-6.57,5.37-12.84,9.26-18.6
							c1.97-2.92,4.14-5.7,6.47-8.33c1.84,3,3.72,5.99,5.65,8.94c0.8-5,1.1-10.08,0.89-15.15c-0.01-0.14-0.01-0.28-0.02-0.42
							c5.7-5.24,12.06-9.79,18.79-13.62C390.81,351.97,404.54,347.23,418.53,343.91z"/>
					</g>
					<g>
						<g>
							<path class="st6" d="M340.94,429.72c4.13-6.14,8.52-12.1,13.16-17.86c4.65-5.78,9.55-11.36,14.68-16.72
								c5.13-5.36,10.48-10.5,16.05-15.41c5.55-4.89,11.31-9.55,17.25-13.96c5.96-4.42,12.11-8.58,18.42-12.47
								c0.78-0.48,1.57-0.96,2.36-1.43c0.5-0.3,0.97,0.47,0.47,0.77c-6.33,3.81-12.5,7.89-18.49,12.22
								c-5.98,4.33-11.77,8.91-17.35,13.74c-5.59,4.83-10.98,9.9-16.14,15.18c-5.14,5.27-10.06,10.75-14.74,16.43
								c-4.69,5.7-9.14,11.59-13.32,17.67c-0.52,0.76-1.04,1.52-1.55,2.28C341.41,430.63,340.61,430.2,340.94,429.72L340.94,429.72z
								"/>
						</g>
						<g>
							<path class="st6" d="M352.27,414.49c6.04-1.78,12.3-2.82,18.59-3.09c1.76-0.07,3.52-0.09,5.28-0.04
								c0.58,0.02,0.6,0.92,0.01,0.9c-6.22-0.16-12.45,0.42-18.52,1.77c-1.72,0.38-3.43,0.82-5.12,1.32
								C351.97,415.52,351.71,414.66,352.27,414.49L352.27,414.49z"/>
						</g>
						<g>
							<path class="st6" d="M386.67,378.24c5.78-2.44,11.84-4.18,18.04-5.15c1.77-0.28,3.55-0.49,5.33-0.65
								c0.58-0.05,0.59,0.85,0.01,0.9c-6.21,0.54-12.34,1.85-18.23,3.88c-1.65,0.57-3.29,1.2-4.9,1.88c-0.23,0.1-0.5-0.09-0.56-0.31
								C386.29,378.54,386.44,378.33,386.67,378.24L386.67,378.24z"/>
						</g>
						<g>
							<path class="st6" d="M366.33,397.88c0.48-3.79,1.12-7.57,1.93-11.31c0.81-3.76,1.78-7.48,2.9-11.15
								c0.63-2.06,1.31-4.1,2.04-6.13c0.08-0.23,0.3-0.39,0.55-0.33c0.22,0.06,0.41,0.32,0.33,0.55c-1.3,3.6-2.44,7.25-3.43,10.94
								c-0.99,3.71-1.82,7.47-2.48,11.25c-0.37,2.12-0.69,4.25-0.97,6.39c-0.03,0.24-0.33,0.38-0.55,0.33
								C366.4,398.36,366.3,398.12,366.33,397.88L366.33,397.88z"/>
						</g>
					</g>
				</g>
				<g>
					<g>
						<path class="st3" d="M357.69,437.69c3.76-3.14,7.7-6.13,11.82-8.95c4.14-2.83,8.45-5.49,12.93-7.97
							c4.43-2.46,9.01-4.74,13.75-6.84c4.78-2.12,9.7-4.05,14.76-5.79c5.03-1.73,10.19-3.27,15.46-4.61
							c0.65-0.17,1.31-0.33,1.96-0.49c0.47-0.12,0.63-0.62,0.39-1.02c-0.26-0.43-1.1-0.12-1.58,0c-5.33,1.3-10.29,2.3-15.39,4
							c-5.06,1.69-10,3.57-14.79,5.63c-4.86,2.09-9.59,4.37-14.15,6.83c-4.52,2.44-8.87,5.05-13.06,7.84s-8.19,5.74-12.01,8.86
							c-0.47,0.39-0.94,0.77-1.41,1.16c-0.33,0.28-0.43,0.72-0.05,1.11C356.65,437.78,357.36,437.97,357.69,437.69L357.69,437.69z"
							/>
					</g>
					<g>
						<path class="st3" d="M425.59,402.9c2.7-1.48,5.16-2.93,8.21-3.39c1.21-0.18,2.99,0.18,4.14,0.61c0.54,0.2,1.11,0.74,0.85,1.25
							c-0.09,0.17-0.25,0.28-0.42,0.38c-1.46,0.89-3.4,1.65-5.1,1.83C430.55,403.87,428.32,402.97,425.59,402.9"/>
					</g>
					<g>
						<path class="st3" d="M421.81,403.81c0.61-3.09,1.07-5.99,2.71-8.68c0.65-1.08,2.1-2.23,3.19-2.86
							c0.51-0.29,1.31-0.39,1.54,0.15c0.08,0.18,0.06,0.38,0.03,0.58c-0.26,1.73-0.93,3.76-1.9,5.21
							C425.83,400.53,423.65,401.7,421.81,403.81"/>
					</g>
					<g>
						<path class="st3" d="M421.4,403.74c3.01,0.95,5.83,1.74,8.32,3.67c1,0.77,1.98,2.34,2.49,3.49c0.24,0.54,0.24,1.35-0.32,1.52
							c-0.19,0.05-0.39,0.01-0.58-0.04c-1.69-0.45-3.63-1.35-4.97-2.47C424.21,408.1,423.29,405.8,421.4,403.74"/>
					</g>
					<g>
						<path class="st3" d="M411.75,406.7c0.66-3.35,1.16-6.48,2.93-9.4c0.71-1.16,2.28-2.42,3.45-3.1c0.55-0.32,1.42-0.42,1.67,0.16
							c0.08,0.2,0.06,0.42,0.03,0.63c-0.28,1.87-1.01,4.07-2.06,5.64C416.09,403.14,413.74,404.41,411.75,406.7"/>
					</g>
					<g>
						<path class="st3" d="M411.54,406.36c3.25,1.03,6.31,1.88,9.01,3.97c1.08,0.83,2.15,2.53,2.69,3.78
							c0.26,0.58,0.26,1.46-0.35,1.64c-0.2,0.06-0.42,0.01-0.63-0.04c-1.83-0.49-3.93-1.46-5.37-2.68
							C414.58,411.08,413.58,408.6,411.54,406.36"/>
					</g>
					<g>
						<path class="st3" d="M399.77,411.03c0.84-4.28,1.49-8.28,3.75-12.01c0.9-1.49,2.91-3.09,4.41-3.96
							c0.7-0.41,1.82-0.54,2.13,0.2c0.1,0.25,0.08,0.53,0.04,0.8c-0.35,2.39-1.29,5.2-2.63,7.21
							C405.33,406.49,402.32,408.12,399.77,411.03"/>
					</g>
					<g>
						<path class="st3" d="M399.41,411.26c4.16,1.31,8.06,2.41,11.52,5.07c1.38,1.06,2.74,3.24,3.44,4.83
							c0.33,0.74,0.34,1.87-0.44,2.1c-0.26,0.08-0.54,0.02-0.8-0.05c-2.33-0.62-5.03-1.86-6.87-3.42
							C403.3,417.29,402.03,414.12,399.41,411.26"/>
					</g>
					<g>
						<path class="st3" d="M389.04,416.01c0.47-4.34,0.78-8.38,2.72-12.29c0.77-1.56,2.64-3.32,4.06-4.32
							c0.66-0.47,1.77-0.7,2.14,0.02c0.13,0.24,0.12,0.52,0.11,0.79c-0.15,2.41-0.84,5.29-2.01,7.41
							C394.19,411.01,391.32,412.88,389.04,416.01"/>
					</g>
					<g>
						<path class="st3" d="M388.7,416.27c4.26,0.96,8.24,1.72,11.9,4.08c1.46,0.94,3.01,2.99,3.84,4.52
							c0.39,0.71,0.49,1.83-0.26,2.13c-0.25,0.1-0.53,0.06-0.8,0.02c-2.38-0.42-5.17-1.43-7.14-2.83
							C393.08,421.94,391.54,418.89,388.7,416.27"/>
					</g>
					<g>
						<path class="st3" d="M378.57,421.69c0.17-3.54,0.23-6.83,1.61-10.1c0.55-1.3,1.98-2.82,3.09-3.7c0.52-0.41,1.4-0.65,1.74-0.08
							c0.11,0.19,0.13,0.42,0.13,0.64c-0.01,1.96-0.43,4.34-1.27,6.11C382.51,417.39,380.28,419.05,378.57,421.69"/>
					</g>
					<g>
						<path class="st3" d="M378.31,421.92c3.5,0.57,6.77,0.99,9.85,2.73c1.23,0.69,2.58,2.28,3.33,3.48
							c0.35,0.56,0.49,1.46-0.11,1.74c-0.2,0.09-0.43,0.08-0.65,0.05c-1.95-0.23-4.26-0.91-5.93-1.95
							C382.14,426.31,380.74,423.91,378.31,421.92"/>
					</g>
					<g>
						<path class="st3" d="M370,427.14c-0.08-2.96-0.25-5.7,0.7-8.5c0.38-1.12,1.47-2.48,2.33-3.28c0.4-0.37,1.12-0.63,1.44-0.18
							c0.11,0.15,0.13,0.34,0.14,0.52c0.12,1.63-0.08,3.63-0.67,5.16C373,423.31,371.25,424.83,370,427.14"/>
					</g>
					<g>
						<path class="st3" d="M369.8,427.35c2.95,0.25,5.69,0.4,8.37,1.65c1.07,0.5,2.3,1.73,2.99,2.69c0.33,0.44,0.5,1.19,0.02,1.45
							c-0.16,0.09-0.35,0.09-0.54,0.09c-1.64-0.06-3.6-0.49-5.05-1.24C373.26,430.76,371.95,428.85,369.8,427.35"/>
					</g>
					<g>
						<path class="st3" d="M363.01,431.87c-0.29-2.41-0.64-4.64-0.08-7c0.22-0.94,1.01-2.13,1.65-2.86c0.3-0.34,0.87-0.6,1.16-0.26
							c0.1,0.11,0.13,0.27,0.16,0.42c0.22,1.33,0.21,2.98-0.15,4.27C365.17,428.51,363.86,429.89,363.01,431.87"/>
					</g>
					<g>
						<path class="st3" d="M362.86,432.05c2.43-0.02,4.68-0.11,6.97,0.71c0.91,0.33,2.01,1.24,2.65,1.96
							c0.3,0.34,0.5,0.93,0.13,1.19c-0.12,0.08-0.28,0.1-0.43,0.11c-1.34,0.07-2.98-0.12-4.22-0.63
							C365.96,434.57,364.74,433.11,362.86,432.05"/>
					</g>
				</g>
			</g>
			<g>
				<g>
					<path class="st21" d="M311.97,179.19c0.18,1.75-0.01,3.49-0.55,5.16c-0.15,0.47,0.59,0.67,0.74,0.2
						c0.56-1.73,0.76-3.56,0.58-5.36c-0.02-0.21-0.16-0.38-0.38-0.38C312.16,178.81,311.95,178.99,311.97,179.19L311.97,179.19z"/>
				</g>
			</g>
			<g>
				<g>
					<g>
						<path class="st8" d="M281.66,242.53c0.2,2.66,0.39,5.42-0.61,7.89c-0.87,2.14-2.63,4.07-2.5,6.38
							c0.01,0.16,0.03,0.34,0.14,0.46c0.14,0.15,0.36,0.18,0.57,0.2c6.03,0.48,12.08,0.95,18.12,0.59c2.49-0.15,4.98-0.44,7.47-0.64
							c6.19-0.5,12.42-0.44,18.6,0.19c-1.69-5.62-2.55-11.48-2.53-17.35"/>
					</g>
					<g>
						<path class="st9" d="M281.59,248.54c5.98,0.16,12.27-0.36,18.24-0.68c6.98-0.37,14.28-0.93,20.9-3.3
							c0.1-0.04,0.21-0.06,0.32-0.09c-0.1-1.41-0.15-2.82-0.14-4.24l-39.25,2.29C281.81,244.53,281.95,246.59,281.59,248.54z"/>
					</g>
				</g>
				<g>
					<path class="st8" d="M298.1,423.51l0.39-17.95c-1.97-0.11-3.93-0.25-5.91-0.3c-1.67-0.05-3.27,0.07-4.87-0.08
						c1.3,9.07,2.42,17.74,2.44,20.73c0.03,3.84-1.82,8.51-1.82,8.51c10.32,4.9,10.14-2.41,9.94-5.38
						C298.15,427.2,298.06,425.36,298.1,423.51z"/>
					<g>
						<path class="st19" d="M289.53,429.29c-2.41,4.27-3.49,9.77-2.93,15.01c0.07,0.65,0.17,1.33,0.51,1.82
							c0.27,0.4,0.66,0.63,1.05,0.83c3.54,1.8,7.64,1.7,11.12-0.27c0.29-0.16,0.59-0.35,0.79-0.67c0.23-0.37,0.29-0.86,0.34-1.33
							c0.3-2.93,0.28-5.93-0.08-8.85"/>
						<path class="st18" d="M289.81,427.86c2.07-1.81,4.98-2.24,7.06-0.46c2.05,1.75,2.87,5.07,3.54,8.13
							c0.46,2.1,0.83,4.7-0.41,6.19c-0.45,0.55-1.06,0.84-1.65,1.07c-2.26,0.88-4.67,1.11-7.01,0.68c-1.91-0.36-4.05-1.51-4.54-3.93
							c-0.27-1.33,0.04-2.74,0.39-4.04C288.01,432.48,288.55,430.61,289.81,427.86"/>
						<g>
							<g>
								<path class="st6" d="M290.28,437.97c0.45,0,0.45-0.8,0-0.8C289.82,437.17,289.82,437.97,290.28,437.97L290.28,437.97z"/>
							</g>
							<g>
								<path class="st6" d="M297.21,437.82c0.45,0,0.45-0.8,0-0.8C296.76,437.01,296.76,437.82,297.21,437.82L297.21,437.82z"/>
							</g>
							<g>
								<path class="st6" d="M291.89,437.9c1.25-0.17,2.51-0.19,3.77-0.06c0.19,0.02,0.35-0.2,0.35-0.4c0-0.23-0.16-0.38-0.35-0.4
									c-1.25-0.13-2.52-0.11-3.77,0.06c-0.19,0.03-0.35,0.17-0.35,0.4C291.54,437.69,291.7,437.92,291.89,437.9L291.89,437.9z"/>
							</g>
							<g>
								<path class="st6" d="M290.31,434.26c0.45,0,0.45-0.8,0-0.8C289.85,433.46,289.85,434.26,290.31,434.26L290.31,434.26z"/>
							</g>
							<g>
								<path class="st6" d="M297.24,434.1c0.45,0,0.45-0.8,0-0.8C296.79,433.3,296.79,434.1,297.24,434.1L297.24,434.1z"/>
							</g>
							<g>
								<path class="st6" d="M291.92,434.18c1.25-0.17,2.51-0.19,3.77-0.06c0.19,0.02,0.35-0.2,0.35-0.4c0-0.23-0.16-0.38-0.35-0.4
									c-1.25-0.13-2.52-0.11-3.77,0.06c-0.19,0.03-0.35,0.17-0.35,0.4C291.57,433.98,291.73,434.21,291.92,434.18L291.92,434.18z"
									/>
							</g>
							<g>
								<path class="st6" d="M290.31,430.47c0.45,0,0.45-0.8,0-0.8C289.85,429.67,289.85,430.47,290.31,430.47L290.31,430.47z"/>
							</g>
							<g>
								<path class="st6" d="M297.24,430.31c0.45,0,0.45-0.8,0-0.8C296.79,429.51,296.79,430.31,297.24,430.31L297.24,430.31z"/>
							</g>
							<g>
								<path class="st6" d="M291.92,430.4c1.25-0.17,2.51-0.19,3.77-0.06c0.19,0.02,0.35-0.2,0.35-0.4c0-0.23-0.16-0.38-0.35-0.4
									c-1.25-0.13-2.52-0.11-3.77,0.06c-0.19,0.03-0.35,0.17-0.35,0.4C291.57,430.19,291.73,430.42,291.92,430.4L291.92,430.4z"/>
							</g>
						</g>
					</g>
				</g>
				<g>
					<path class="st8" d="M331.48,423.63l-2.39-17.8c1.94-0.33,3.88-0.69,5.84-0.96c1.65-0.23,3.25-0.3,4.83-0.62
						c-0.28,9.16-0.43,17.9-0.11,20.87c0.4,3.82,2.76,8.25,2.76,8.25c-9.71,6.03-10.35-1.26-10.48-4.24
						C331.84,427.3,331.72,425.46,331.48,423.63z"/>
					<g>
						<path class="st19" d="M340.64,428.41c2.88,3.97,4.56,9.32,4.58,14.59c0,0.65-0.03,1.34-0.3,1.87
							c-0.23,0.43-0.59,0.7-0.95,0.94c-3.32,2.18-7.4,2.54-11.08,0.98c-0.31-0.13-0.62-0.28-0.86-0.58
							c-0.27-0.34-0.39-0.83-0.49-1.29c-0.63-2.88-0.94-5.86-0.91-8.8"/>
						<path class="st18" d="M340.2,427.02c-2.26-1.57-5.19-1.67-7.07,0.33c-1.84,1.97-2.28,5.36-2.61,8.47
							c-0.23,2.14-0.3,4.76,1.09,6.11c0.51,0.49,1.14,0.71,1.76,0.88c2.35,0.62,4.77,0.58,7.04-0.11c1.86-0.57,3.86-1.95,4.07-4.41
							c0.12-1.35-0.35-2.71-0.84-3.97C342.5,431.41,341.76,429.62,340.2,427.02"/>
						<g>
							<g>
								<path class="st6" d="M340.86,437.12c-0.45,0.05-0.54-0.75-0.09-0.8C341.22,436.27,341.31,437.07,340.86,437.12
									L340.86,437.12z"/>
							</g>
							<g>
								<path class="st6" d="M333.95,437.74c-0.45,0.05-0.54-0.75-0.09-0.8C334.31,436.89,334.4,437.69,333.95,437.74L333.95,437.74
									z"/>
							</g>
							<g>
								<path class="st6" d="M339.25,437.23c-1.26-0.03-2.52,0.09-3.75,0.36c-0.19,0.04-0.37-0.16-0.39-0.36
									c-0.03-0.23,0.12-0.4,0.31-0.44c1.23-0.27,2.49-0.39,3.75-0.36c0.19,0,0.37,0.13,0.39,0.36
									C339.58,436.99,339.44,437.23,339.25,437.23L339.25,437.23z"/>
							</g>
							<g>
								<path class="st6" d="M340.42,433.43c-0.45,0.05-0.54-0.75-0.09-0.8C340.78,432.59,340.87,433.38,340.42,433.43
									L340.42,433.43z"/>
							</g>
							<g>
								<path class="st6" d="M333.51,434.05c-0.45,0.05-0.54-0.75-0.09-0.8C333.87,433.2,333.96,434,333.51,434.05L333.51,434.05z"
									/>
							</g>
							<g>
								<path class="st6" d="M338.81,433.54c-1.26-0.03-2.52,0.09-3.75,0.36c-0.19,0.04-0.37-0.16-0.39-0.36
									c-0.03-0.23,0.12-0.4,0.31-0.44c1.23-0.27,2.49-0.39,3.75-0.36c0.19,0,0.37,0.13,0.39,0.36
									C339.13,433.3,339,433.55,338.81,433.54L338.81,433.54z"/>
							</g>
							<g>
								<path class="st6" d="M340,429.67c-0.45,0.05-0.54-0.75-0.09-0.8C340.36,428.82,340.45,429.62,340,429.67L340,429.67z"/>
							</g>
							<g>
								<path class="st6" d="M333.09,430.29c-0.45,0.05-0.54-0.75-0.09-0.8C333.45,429.44,333.54,430.24,333.09,430.29
									L333.09,430.29z"/>
							</g>
							<g>
								<path class="st6" d="M338.38,429.78c-1.26-0.03-2.52,0.09-3.75,0.36c-0.19,0.04-0.37-0.16-0.39-0.36
									c-0.03-0.23,0.12-0.4,0.31-0.44c1.23-0.27,2.49-0.39,3.75-0.36c0.19,0,0.37,0.13,0.39,0.36
									C338.71,429.53,338.57,429.78,338.38,429.78L338.38,429.78z"/>
							</g>
						</g>
					</g>
				</g>
				<g>
					<g>
						<path class="st8" d="M278.53,226.16c-1.97,4.17-4.96,11.3-6.61,15.61c-0.64,1.68-1.27,3.47-1.02,5.25
							c0.19,1.35,0.87,2.58,1.55,3.77c5.07,8.82,10.83,17.25,17.2,25.19c0.37,0.46,0.76,0.98,0.73,1.57
							c-0.02,0.44-0.28,0.83-0.53,1.2c-1.07,1.57-2.15,3.13-3.22,4.7c-0.18,0.27-0.42,0.57-0.75,0.58
							c-0.31,0.01-0.56-0.25-0.76-0.48c-5.14-5.99-10.29-11.98-15.43-17.96c-3.78-4.4-7.58-8.83-10.38-13.91
							c-0.83-1.51-1.59-3.12-1.72-4.84c-0.1-1.32,0.18-2.64,0.48-3.94c2.26-9.66,5.92-18.98,10.83-27.6"/>
					</g>
					<g>
						<path class="st9" d="M270.91,247.02c-0.25-1.79,0.38-3.57,1.02-5.25c1.65-4.31,4.63-11.44,6.61-15.61l-0.11-0.12
							c-0.35,0.43-0.79,0.82-1.35,1.16c-3.75,2.27-5.52,7.38-6.99,11.28c-2.05,5.43-1.62,9.75,0.66,15.1
							c1.57,3.7,3.33,7.4,5.24,11.04c4,5.76,8.05,11.48,11.56,17.51c0.77-1.13,1.55-2.26,2.32-3.39c0.25-0.37,0.51-0.76,0.53-1.2
							c0.03-0.59-0.36-1.11-0.73-1.57c-6.37-7.94-12.13-16.36-17.2-25.19C271.78,249.6,271.1,248.37,270.91,247.02z"/>
					</g>
				</g>
				<g>
					<g>
						<g>
							<path class="st22" d="M280.78,251.68c-5.37,5.39-7.12,13.31-8.63,20.77c-1.37,6.77-2.75,13.6-2.7,20.5
								c0.05,6.2,1.24,12.33,2.31,18.44c3.7,21.22,5.87,42.7,6.49,64.23c0.46,16.04,0.29,33.01,8.44,46.85
								c0.36,0.61,0.78,1.25,1.43,1.52c0.51,0.21,1.09,0.16,1.64,0.1c2.74-0.28,5.49-0.56,8.23-0.85c0.4-0.04,0.84-0.1,1.1-0.41
								c0.21-0.25,0.24-0.59,0.26-0.91c2.93-41.13-1.51-82.65,3.39-123.59c6.92,41.44,15.31,82.63,25.16,123.48
								c0.2,0.82,0.93,1.4,1.78,1.42c3.57,0.08,7.17-0.29,10.77-1.69c0.48-0.19,0.83-0.63,0.91-1.15
								c1.34-8.66,0.16-17.51-0.95-26.21c-4.73-36.92-8.24-74-10.53-111.16c-0.62-9.99-1.29-20.47-6.56-28.98
								c-0.22-0.36-0.47-0.73-0.86-0.88c-0.44-0.17-0.93-0.03-1.38,0.1c-6.02,1.78-12.45,1.34-18.72,0.88
								C295.15,253.61,287.97,252.2,280.78,251.68"/>
						</g>
						<g>
							<path class="st23" d="M300.77,323.31c-0.64,4.61-1.41,9.2-1.92,13.83c-1.34,12.31-1.69,24.69-1.87,37.06
								c-0.18,11.75,0.21,23.8-1.36,35.47c-0.72,5.34-2.43,10.76-6.09,14.43c0.07-0.01,0.14-0.01,0.22-0.02
								c2.74-0.28,5.49-0.56,8.23-0.85c0.4-0.04,0.84-0.1,1.1-0.41c0.21-0.25,0.24-0.59,0.26-0.91
								C301.68,389.12,299.34,356.1,300.77,323.31z"/>
						</g>
						<g>
							<path class="st23" d="M276.32,280.32c2.06-8.22,3.99-20.91,13.72-23.2c4.67-1.1,9.85-0.17,14.62-0.5
								c5.5-0.38,10.92-1,15.93-3.25c-5.89,1.62-12.14,1.21-18.24,0.76c-7.19-0.53-14.37-1.93-21.56-2.45
								c-5.37,5.39-7.12,13.31-8.63,20.77c-1.37,6.77-2.75,13.6-2.7,20.5c0.05,6.2,1.24,12.33,2.31,18.44
								c0.12,0.71,0.23,1.43,0.35,2.14C272.5,302.3,273.6,291.14,276.32,280.32z"/>
						</g>
						<g>
							<path class="st23" d="M340.4,394.16c-3.12-24.34-5.7-48.75-7.76-73.2c0.09,4.24,0.1,8.48-0.12,12.73
								c-0.61,11.67-1.34,23.3-0.45,34.98c0.9,11.81,2.83,23.5,3.63,35.32c0.45,6.65,0.98,13.62-2.42,19.12
								c2.38-0.19,4.77-0.66,7.15-1.59c0.48-0.19,0.83-0.63,0.91-1.15C342.69,411.72,341.51,402.86,340.4,394.16z"/>
						</g>
					</g>
					<g class="st24">
						<g>
							<path class="st6" d="M274.26,267.76c3.56-3.25,5.91-7.73,6.56-12.51c0.07-0.48-0.67-0.69-0.74-0.2
								c-0.63,4.66-2.89,9-6.36,12.17C273.35,267.55,273.9,268.09,274.26,267.76L274.26,267.76z"/>
						</g>
						<g>
							<path class="st6" d="M320.21,256.56c0.74,5.04,3.61,9.64,7.78,12.56c0.4,0.28,0.79-0.38,0.39-0.66
								c-4.01-2.81-6.72-7.26-7.43-12.1C320.87,255.87,320.14,256.07,320.21,256.56L320.21,256.56z"/>
						</g>
						<g>
							<path class="st6" d="M281.14,254.45c-0.06,0.63-0.13,1.25-0.19,1.87c-0.02,0.2,0.19,0.39,0.38,0.38
								c0.22-0.01,0.36-0.17,0.38-0.38c0.06-0.63,0.13-1.25,0.19-1.87c0.02-0.2-0.19-0.39-0.38-0.38
								C281.3,254.07,281.16,254.23,281.14,254.45L281.14,254.45z"/>
						</g>
						<g>
							<path class="st6" d="M284.09,254.53c-0.45,1.05-0.72,2.15-0.77,3.29c-0.01,0.21,0.18,0.38,0.38,0.38
								c0.22,0,0.37-0.18,0.38-0.38c0.05-1,0.27-1.99,0.67-2.91c0.08-0.19,0.06-0.41-0.14-0.52
								C284.45,254.3,284.17,254.34,284.09,254.53L284.09,254.53z"/>
						</g>
						<g>
							<path class="st6" d="M286.78,255.1c-0.16,1.06-0.32,2.12-0.47,3.19c-0.03,0.2,0.05,0.41,0.27,0.47
								c0.18,0.05,0.44-0.06,0.47-0.27c0.16-1.06,0.32-2.12,0.47-3.19c0.03-0.2-0.05-0.41-0.27-0.47
								C287.07,254.78,286.81,254.89,286.78,255.1L286.78,255.1z"/>
						</g>
						<g>
							<path class="st6" d="M289.03,255.66c-0.11,0.72-0.15,1.44-0.11,2.16c0.01,0.2,0.17,0.39,0.38,0.38
								c0.2-0.01,0.4-0.17,0.38-0.38c-0.02-0.34-0.03-0.68-0.01-1.01c0.01-0.17,0.02-0.33,0.03-0.5c0.01-0.08,0.02-0.16,0.03-0.24
								c0-0.01,0.02-0.12,0.01-0.06c0.01-0.05,0.02-0.1,0.02-0.16c0.03-0.2-0.05-0.42-0.27-0.47
								C289.32,255.35,289.06,255.45,289.03,255.66L289.03,255.66z"/>
						</g>
						<g>
							<path class="st6" d="M290.98,255.76c0.03,0.81,0.06,1.62,0.09,2.44c0.01,0.2,0.17,0.39,0.38,0.38
								c0.2-0.01,0.39-0.17,0.38-0.38c-0.03-0.81-0.06-1.62-0.09-2.44c-0.01-0.2-0.17-0.39-0.38-0.38
								C291.16,255.39,290.97,255.55,290.98,255.76L290.98,255.76z"/>
						</g>
						<g>
							<path class="st6" d="M293.81,255.75c-0.13,0.78-0.25,1.56-0.38,2.34c-0.03,0.2,0.05,0.42,0.27,0.47
								c0.18,0.04,0.44-0.06,0.47-0.27c0.13-0.78,0.25-1.56,0.38-2.34c0.03-0.2-0.05-0.42-0.27-0.47
								C294.1,255.44,293.84,255.54,293.81,255.75L293.81,255.75z"/>
						</g>
						<g>
							<path class="st6" d="M296.05,255.67c-0.13,1.12-0.14,2.25-0.03,3.38c0.02,0.21,0.16,0.38,0.38,0.38
								c0.19,0,0.4-0.18,0.38-0.38c-0.11-1.12-0.1-2.25,0.03-3.38c0.02-0.21-0.19-0.38-0.38-0.38
								C296.21,255.28,296.08,255.46,296.05,255.67L296.05,255.67z"/>
						</g>
						<g>
							<path class="st6" d="M298.77,256.23c-0.1,1.09-0.14,2.19-0.09,3.28c0.02,0.49,0.78,0.49,0.77,0
								c-0.04-1.09-0.01-2.19,0.09-3.28c0.02-0.21-0.19-0.38-0.38-0.38C298.92,255.85,298.78,256.02,298.77,256.23L298.77,256.23z"
								/>
						</g>
						<g>
							<path class="st6" d="M301.03,256.51c0.05,1.16,0.09,2.31,0.14,3.47c0.02,0.49,0.79,0.49,0.77,0
								c-0.05-1.16-0.09-2.31-0.14-3.47C301.77,256.02,301.01,256.02,301.03,256.51L301.03,256.51z"/>
						</g>
						<g>
							<path class="st6" d="M304.11,256.6c-0.05,0.94-0.02,1.88,0.08,2.81c0.02,0.21,0.16,0.38,0.38,0.38
								c0.19,0,0.41-0.18,0.38-0.38c-0.1-0.93-0.13-1.87-0.08-2.81c0.01-0.21-0.18-0.38-0.38-0.38
								C304.28,256.22,304.12,256.4,304.11,256.6L304.11,256.6z"/>
						</g>
						<g>
							<path class="st6" d="M306.65,256.79c-0.05,0.97-0.03,1.94,0.07,2.91c0.02,0.21,0.16,0.38,0.38,0.38
								c0.19,0,0.4-0.18,0.38-0.38c-0.1-0.97-0.12-1.94-0.07-2.91c0.01-0.21-0.18-0.38-0.38-0.38
								C306.81,256.41,306.66,256.58,306.65,256.79L306.65,256.79z"/>
						</g>
						<g>
							<path class="st6" d="M308.8,256.32c0,1,0,2,0,3c0,0.49,0.77,0.49,0.77,0c0-1,0-2,0-3
								C309.56,255.83,308.8,255.83,308.8,256.32L308.8,256.32z"/>
						</g>
						<g>
							<path class="st6" d="M311.06,256.51c0.05,1.1,0.16,2.2,0.34,3.3c0.03,0.2,0.29,0.32,0.47,0.27c0.22-0.06,0.3-0.27,0.27-0.47
								c-0.17-1.02-0.27-2.06-0.32-3.09c-0.01-0.21-0.17-0.38-0.38-0.38C311.24,256.13,311.05,256.3,311.06,256.51L311.06,256.51z"
								/>
						</g>
						<g>
							<path class="st6" d="M313.31,257.17c0.2,0.9,0.48,1.78,0.83,2.63c0.08,0.19,0.25,0.33,0.47,0.27
								c0.18-0.05,0.35-0.28,0.27-0.47c-0.36-0.85-0.64-1.73-0.83-2.63c-0.04-0.2-0.28-0.32-0.47-0.27
								C313.37,256.76,313.27,256.97,313.31,257.17L313.31,257.17z"/>
						</g>
						<g>
							<path class="st6" d="M315.85,256.33c0.32,1.14,0.56,2.3,0.74,3.47c0.03,0.2,0.29,0.32,0.47,0.27
								c0.22-0.06,0.3-0.27,0.27-0.47c-0.17-1.17-0.42-2.33-0.74-3.47C316.45,255.65,315.72,255.85,315.85,256.33L315.85,256.33z"/>
						</g>
						<g>
							<path class="st6" d="M318.73,256.13c0,1.17,0.25,2.31,0.71,3.38c0.08,0.19,0.36,0.23,0.52,0.14c0.2-0.12,0.22-0.33,0.14-0.52
								c-0.4-0.94-0.6-1.97-0.6-2.99C319.5,255.64,318.73,255.64,318.73,256.13L318.73,256.13z"/>
						</g>
						<g>
							<path class="st6" d="M321.66,255.29c0.3,0.75,0.6,1.51,0.91,2.26c0.07,0.19,0.26,0.34,0.47,0.27
								c0.18-0.06,0.35-0.27,0.27-0.47c-0.3-0.75-0.6-1.51-0.91-2.26c-0.07-0.19-0.26-0.34-0.47-0.27
								C321.75,254.88,321.59,255.09,321.66,255.29L321.66,255.29z"/>
						</g>
						<g>
							<path class="st6" d="M303.64,261.86c0.62,6.15,0.63,12.35,0.02,18.5c-0.01,0.12,0.08,0.28,0.19,0.33
								c1.1,0.51,2.37,0.2,3.23-0.64c0.95-0.93,1.29-2.29,1.44-3.56c0.2-1.61,0.08-3.25-0.02-4.87c-0.1-1.63-0.23-3.27-0.39-4.9
								c-0.18-1.85-0.41-3.7-0.67-5.54c-0.07-0.49-0.81-0.28-0.74,0.2c0.52,3.68,0.88,7.38,1.08,11.08c0.09,1.72,0.2,3.53-0.26,5.21
								c-0.37,1.36-1.67,3.11-3.3,2.35c0.06,0.11,0.13,0.22,0.19,0.33c0.6-6.15,0.59-12.35-0.02-18.5
								C304.36,261.37,303.59,261.36,303.64,261.86L303.64,261.86z"/>
						</g>
						<g>
							<path class="st6" d="M303.79,279.15c-0.13,5.04-0.47,10.07-1.03,15.09c-0.16,1.44-0.34,2.87-0.53,4.31
								c-0.05,0.36,0.72,0.37,0.77,0.01c0.67-5.01,1.14-10.04,1.39-15.07c0.07-1.44,0.13-2.88,0.16-4.33
								C304.56,278.78,303.8,278.78,303.79,279.15L303.79,279.15z"/>
						</g>
						<g>
							<path class="st6" d="M273.6,267.41c-0.74,5.22-1.5,10.43-2.21,15.65c-0.7,5.15-1.03,10.23-0.51,15.41
								c0.52,5.12,1.41,10.2,2.15,15.29c0.76,5.3,1.49,10.61,2.18,15.92c1.36,10.44,2.57,20.89,3.59,31.36
								c1.02,10.47,1.84,20.96,2.43,31.47c0.28,5.06,0.28,10.19,0.95,15.22c0.32,2.39,0.86,4.73,1.71,7
								c0.85,2.26,1.91,4.43,2.81,6.66c0.44,1.1,0.84,2.21,1.16,3.34c0.13,0.47,0.87,0.27,0.74-0.2c-1.31-4.62-3.91-8.76-5.03-13.44
								c-1.17-4.89-1.13-10.01-1.38-15.01c-0.53-10.46-1.3-20.9-2.27-31.32c-0.96-10.37-2.12-20.73-3.43-31.07
								c-1.3-10.26-2.81-20.49-4.28-30.73c-0.75-5.24-1.09-10.41-0.56-15.69c0.52-5.28,1.39-10.53,2.14-15.77
								c0.18-1.3,0.37-2.59,0.55-3.89C274.4,267.13,273.66,266.92,273.6,267.41L273.6,267.41z"/>
						</g>
						<g>
							<path class="st6" d="M340.37,419.71c-2.22-19.64-4.44-39.29-6.66-58.93c-1.1-9.72-2.37-19.45-3.11-29.21
								c-0.74-9.76-0.84-19.58-1.13-29.37c-0.33-11.15-0.65-22.3-0.98-33.45c-0.01-0.48-0.74-0.49-0.73,0
								c0.29,9.94,0.58,19.89,0.87,29.83c0.29,9.8,0.42,19.62,0.99,29.41c0.57,9.77,1.85,19.49,2.95,29.2
								c1.1,9.77,2.21,19.53,3.31,29.3c1.25,11.07,2.5,22.15,3.75,33.22C339.7,420.19,340.43,420.2,340.37,419.71L340.37,419.71z"/>
						</g>
					</g>
				</g>
				<g>
					<g>
						<path class="st13" d="M321.91,179.36c-0.57-1.62-1.59-3.16-1.52-4.87c0.05-1.03,0.49-1.99,0.86-2.95
							c1.23-3.21,1.59-7.05-0.3-9.92c-0.95-1.45-2.41-2.55-3.23-4.08c-0.92-1.71-0.92-3.75-1.4-5.63c-0.7-2.82-2.51-5.34-4.95-6.92
							c-0.72-0.46-1.5-0.83-2.3-1.13c1.05-2.16,1.03-4.83-0.02-7.02c-1.29-2.68-3.92-4.6-6.8-5.34c-2.88-0.74-5.98-0.39-8.77,0.64
							c-2.55,0.94-4.93,2.47-6.57,4.65c-1.63,2.17-2.45,5.02-1.88,7.68c0.25,1.18,0.82,2.29,1.59,3.22
							c-2.47,2.05-4.47,4.65-4.9,7.77c-0.27,1.99,0.12,4.06-0.38,6.01c-0.92,3.61-4.53,5.8-6.5,8.95c-2.87,4.58-1.77,11,1.92,14.95
							c3.68,3.95,9.46,5.55,14.82,4.92c1.97-0.23,3.91-0.73,5.88-0.89c6.19-0.48,12.42,2.47,18.5,1.24c1.39-0.28,2.77-0.8,3.85-1.72
							c1.01-0.86,1.71-2.05,2.14-3.31C322.64,183.61,322.62,181.36,321.91,179.36z"/>
					</g>
					<g>
						<path class="st8" d="M318.42,194.43c-7.25-1.35-10.42-5.36-10.42-5.36c-2.18-5.57-1.01-10.49-0.35-12.46
							c-4.45-0.24-8.86-0.25-13.32-0.5c-0.45-0.03-0.87-0.1-1.26-0.22c0.45,1.11,2.45,6.7-0.09,13.19c0,0-3.18,4.01-10.42,5.36
							c-7.25,1.35-10.4,4.52-10.38,8.3c0.02,2.99,19.97,2.94,28.31,2.78c8.34,0.15,28.29,0.2,28.31-2.78
							C328.82,198.95,325.66,195.78,318.42,194.43z"/>
						<path class="st9" d="M294.24,179.81c1.01,1.59,5.23,3.11,7.01,3.31c2.25,0.25,4.57-0.22,5.53-1.94
							c-0.2-3.14,0.44-3.29,0.87-4.57c-4.45-0.24-8.86-0.25-13.32-0.5c-0.45-0.03-0.87-0.1-1.26-0.22c0.18,0.45,0.62,1.65,0.9,3.34
							C294.24,179.49,294,179.44,294.24,179.81z"/>
					</g>
					<g>
						<g>
							<g>
								<path class="st8" d="M289.1,165.93c-0.42-0.58-0.9-1.14-1.51-1.51c-0.61-0.38-1.37-0.55-2.05-0.34
									c-0.66,0.21-1.17,0.76-1.43,1.39c-0.26,0.64-0.29,1.35-0.18,2.03c0.19,1.21,0.85,2.41,1.94,2.96
									c1.09,0.55,2.62,0.26,3.23-0.8c0.4-0.7,0.36-1.57,0.25-2.37"/>
							</g>
							<g>
								<path class="st9" d="M287.99,166.42c-0.15-0.21-0.32-0.4-0.53-0.54c-0.22-0.13-0.49-0.2-0.73-0.12
									c-0.23,0.07-0.41,0.27-0.51,0.49c-0.09,0.23-0.1,0.48-0.06,0.72c0.07,0.43,0.3,0.85,0.69,1.05c0.39,0.2,0.93,0.09,1.15-0.28
									c0.14-0.25,0.13-0.56,0.09-0.84"/>
							</g>
						</g>
						<g>
							<g>
								<path class="st8" d="M310.73,165.51c0.42-0.58,0.9-1.14,1.51-1.51c0.61-0.38,1.37-0.55,2.05-0.34
									c0.66,0.21,1.17,0.76,1.43,1.39c0.26,0.64,0.29,1.35,0.18,2.03c-0.19,1.21-0.85,2.41-1.94,2.96
									c-1.09,0.55-2.62,0.26-3.23-0.8c-0.4-0.7-0.36-1.57-0.25-2.37"/>
							</g>
							<g>
								<path class="st9" d="M311.83,166c0.15-0.21,0.32-0.4,0.53-0.54c0.22-0.13,0.49-0.2,0.73-0.12c0.23,0.07,0.42,0.27,0.51,0.49
									c0.09,0.23,0.1,0.48,0.06,0.72c-0.07,0.43-0.3,0.85-0.69,1.05c-0.39,0.2-0.93,0.09-1.15-0.28
									c-0.14-0.25-0.13-0.56-0.09-0.84"/>
							</g>
						</g>
						<g>
							<g>
								<path class="st8" d="M287.98,154.75c-1.22,5.84-0.81,12.01,1.17,17.64c0.6,1.7,1.35,3.36,2.47,4.77
									c1.19,1.5,2.76,2.65,4.41,3.61c1.03,0.6,2.12,1.13,3.29,1.38c2.28,0.48,4.72-0.23,6.59-1.61c1.87-1.39,2.81-2.44,4.12-4.9
									c0.91-1.72,1.35-3.6,1.75-5.51c0.52-2.46,0.78-5.74,0.7-8.25c-0.05-1.51-0.31-3-0.58-4.48c-0.58-3.11-1.38-6.48-3.89-8.41
									c-2.69-2.07-6.5-1.8-9.78-0.9"/>
							</g>
							<g>
								<path class="st9" d="M289.01,168.94c-0.13,1.25,1.14,2.41,2.84,2.59c1.7,0.17,3.18-0.7,3.3-1.96
									c0.13-1.25-1.14-2.41-2.84-2.59C290.62,166.81,289.14,167.69,289.01,168.94z"/>
								<path class="st9" d="M310.63,169.04c0.3,1.22-0.79,2.55-2.45,2.96c-1.66,0.41-3.24-0.25-3.55-1.47
									c-0.3-1.22,0.79-2.55,2.45-2.96C308.74,167.16,310.33,167.82,310.63,169.04z"/>
								<g>
									<path class="st13" d="M294.29,159.73c-1.86,0.02-4.23,0.23-5.14,1.35c-0.45,0.56-1.04,0.47-0.63-0.12
										c1.26-1.85,3.1-2.14,5.81-2.38c0.29-0.03,0.55,0.28,0.54,0.62C294.86,159.48,294.59,159.8,294.29,159.73L294.29,159.73z"/>
								</g>
								<path class="st15" d="M292.11,164.03c0.16,0.82,0.84,1.38,1.52,1.25c0.67-0.13,1.09-0.91,0.92-1.73
									c-0.16-0.82-0.84-1.38-1.52-1.25C292.36,162.43,291.95,163.2,292.11,164.03z"/>
								<g>
									<path class="st13" d="M304.97,159.73c1.86,0.02,4.23,0.23,5.14,1.35c0.45,0.56,1.04,0.47,0.63-0.12
										c-1.26-1.85-3.1-2.14-5.81-2.38c-0.29-0.03-0.55,0.28-0.54,0.62C304.4,159.48,304.67,159.8,304.97,159.73L304.97,159.73z"
										/>
								</g>
								<path class="st15" d="M307.15,164.03c-0.16,0.82-0.84,1.38-1.52,1.25c-0.67-0.13-1.09-0.91-0.92-1.73
									c0.16-0.82,0.84-1.38,1.52-1.25C306.9,162.43,307.32,163.2,307.15,164.03z"/>
								<path class="st16" d="M300.72,168.56c0.48-0.11,0.9-0.33,1.29-0.59c-1.42-1.2-1.95-2.65-1.8-4.4
									c0.02-0.24,0.09-0.64,0.37-0.65c0.24-0.01,0.14,0.62,0.13,0.86c-0.02,2.16,0.88,2.82,2.39,3.88
									c0.21,0.14,0.19,0.46,0.02,0.62c-0.59,0.54-1.31,0.92-2.13,1.12C300.4,169.55,300.11,168.71,300.72,168.56z"/>
								<path class="st25" d="M303.76,173.16c0,0-3.07,0-6.68,0.65C297.08,173.81,301.45,176.85,303.76,173.16z"/>
							</g>
						</g>
					</g>
					<g>
						<path class="st13" d="M300,143.06c-4.38-0.57-8.8,1.87-11.36,5.47c-2.56,3.6-3.47,8.16-3.39,12.57c0,0.1,0.01,0.2,0.06,0.28
							c0.12,0.17,0.37,0.12,0.57,0.05c2.2-0.8,4.28-1.9,6.54-2.54c1.91-0.54,3.93-0.72,5.9-0.54c0.35,0.03,0.76,0.06,1.01-0.19
							c0.17-0.17,0.22-0.42,0.26-0.66c0.33-2.01,0.64-4.02,0.93-6.04c1.28,1.97,1.94,4.34,1.84,6.69c-0.01,0.25-0.01,0.55,0.19,0.7
							c0.13,0.1,0.3,0.11,0.46,0.11c0.76,0.03,1.52,0.06,2.29,0.09c0.36,0.01,0.77,0.01,1.03-0.25c0.23-0.23,0.25-0.59,0.27-0.92
							c0.04-1.05,0.08-2.1,0.11-3.15c1.23,1.42,2.15,3.11,2.66,4.92c1.55,0.57,3.09,1.14,4.64,1.71c0.13,0.05,0.25,0.09,0.39,0.09
							c0.44-0.01,0.66-0.52,0.76-0.94c0.66-2.98-0.05-6.13-1.34-8.91c-2.02-4.37-5.75-8.2-10.47-9.17"/>
					</g>
					<g>
						<g>
							<path class="st12" d="M298.21,143.14c-3.29,2.77-5.72,6.49-6.93,10.62c-0.13,0.44,0.56,0.63,0.69,0.19
								c1.18-4.02,3.54-7.61,6.75-10.3C299.08,143.35,298.57,142.84,298.21,143.14L298.21,143.14z"/>
						</g>
						<g>
							<path class="st12" d="M299.35,143.89c-1.23,2.16-2.13,4.5-2.67,6.93c-0.1,0.45,0.59,0.64,0.69,0.19
								c0.53-2.37,1.4-4.64,2.6-6.76C300.2,143.85,299.58,143.49,299.35,143.89L299.35,143.89z"/>
						</g>
						<g>
							<path class="st12" d="M301.81,144.46c1.83,1.76,3.12,4,3.71,6.47c0.11,0.45,0.8,0.26,0.69-0.19
								c-0.62-2.58-1.98-4.96-3.9-6.79C301.99,143.64,301.48,144.14,301.81,144.46L301.81,144.46z"/>
						</g>
						<g>
							<path class="st12" d="M304.5,144.63c4.07,1.99,6.9,6.19,7.15,10.72c0.03,0.46,0.74,0.46,0.72,0
								c-0.27-4.78-3.2-9.24-7.51-11.35C304.45,143.81,304.08,144.43,304.5,144.63L304.5,144.63z"/>
						</g>
						<g>
							<path class="st12" d="M290.86,144.43c-0.37-1.48-0.64-3.12-0.06-4.59c0.46-1.15,1.62-2.2,2.93-2.11
								c0.67,0.04,1.28,0.41,1.96,0.31c0.51-0.07,0.92-0.37,1.23-0.78c0.68-0.91,0.87-2.03,1.8-2.77c1.05-0.84,2.51-1.07,3.76-0.57
								c0.43,0.17,0.62-0.52,0.19-0.69c-1.16-0.46-2.46-0.35-3.57,0.19c-0.57,0.27-1.09,0.68-1.49,1.17
								c-0.39,0.48-0.61,1.04-0.88,1.58c-0.27,0.54-0.61,1.17-1.29,1.18c-0.74,0.02-1.41-0.4-2.17-0.32c-1.31,0.14-2.43,1.09-3,2.24
								c-0.82,1.67-0.54,3.62-0.11,5.36C290.27,145.07,290.97,144.88,290.86,144.43L290.86,144.43z"/>
						</g>
						<g>
							<path class="st12" d="M302.01,137.9c0.87-0.4,1.93-0.29,2.74,0.19c0.79,0.46,1.37,1.23,1.69,2.08
								c0.16,0.43,0.86,0.24,0.69-0.19c-0.4-1.05-1.09-2-2.09-2.55c-1.05-0.58-2.32-0.66-3.4-0.15
								C301.23,137.48,301.59,138.1,302.01,137.9L302.01,137.9z"/>
						</g>
						<g>
							<path class="st12" d="M312.67,157.05c2.67,2.35,3.99,6.13,3.29,9.64c-0.42,2.1-1.67,3.98-1.72,6.16
								c-0.02,0.98,0.25,1.9,0.79,2.71c0.52,0.79,1.18,1.47,1.69,2.27c1.22,1.93,1.69,4.29,1.31,6.53
								c-0.08,0.45,0.61,0.65,0.69,0.19c0.33-1.96,0.1-3.96-0.69-5.78c-0.41-0.94-0.97-1.76-1.61-2.55
								c-0.67-0.84-1.32-1.69-1.43-2.81c-0.23-2.28,1.21-4.3,1.66-6.47c0.36-1.76,0.26-3.6-0.25-5.32
								c-0.58-1.95-1.69-3.74-3.22-5.09C312.83,156.23,312.32,156.74,312.67,157.05L312.67,157.05z"/>
						</g>
						<g>
							<path class="st12" d="M286.41,155.53c-1.27,1.2-2.26,2.66-2.89,4.29c-0.71,1.82-0.79,3.74-0.87,5.67
								c-0.05,1.01-0.11,2.03-0.33,3.02c-0.22,0.97-0.62,1.87-1.07,2.74c-0.87,1.68-1.79,3.29-2.13,5.18
								c-0.39,2.14-0.19,4.36,0.61,6.39c0.17,0.43,0.86,0.24,0.69-0.19c-0.7-1.77-0.94-3.7-0.68-5.59c0.27-1.88,1.11-3.49,1.99-5.15
								c0.41-0.78,0.8-1.57,1.07-2.4c0.3-0.92,0.43-1.88,0.51-2.84c0.15-1.9,0.06-3.83,0.59-5.68c0.54-1.89,1.6-3.59,3.03-4.93
								C287.26,155.72,286.75,155.21,286.41,155.53L286.41,155.53z"/>
						</g>
						<g>
							<path class="st12" d="M287.47,181.78c-1.52-2.09-1.28-4.75-0.47-7.07c0.15-0.44-0.54-0.63-0.69-0.19
								c-0.86,2.48-1.08,5.39,0.54,7.62C287.12,182.51,287.74,182.16,287.47,181.78L287.47,181.78z"/>
						</g>
					</g>
				</g>
				<g>
					<path class="st14" d="M273.32,199.09c0,0,24.29,6.96,48.71-3.73c0,0,4.51,0.24,6.76,3.79c2.25,3.55,11.2,19.96,11.2,19.96
						l-14.45,9.15c0,0-1.14,10.13-2.11,16.02c0,0-31.57,4.09-43.15,0c0,0-2.2-13.48-2.41-16.31l-13.93-4.76
						C263.94,223.19,269.8,202.67,273.32,199.09z"/>
					<path class="st26" d="M331.32,203.46c1.09,6.85-2.57,11.85-5.4,18.21c-3.21,7.22-4.28,13.36-12.23,16.73
						c-7.11,3.02-16.2,4.67-23.88,4.63c-4.76-0.03-8.1-1.57-10.44-4.49c0.49,3.14,0.91,5.72,0.91,5.72c11.58,4.09,43.15,0,43.15,0
						c0.97-5.89,2.11-16.02,2.11-16.02l14.45-9.15C339.99,219.1,334.79,209.56,331.32,203.46z"/>
					<path class="st26" d="M274.46,206.37c3.56-3.32,8.4-4.17,13.08-4.42c3.85-0.21,7.66-0.47,11.45-0.91
						c-14.65,1.2-25.67-1.95-25.67-1.95c-2.7,2.75-6.78,15.47-8.53,21.24C267.61,215.48,270.51,210.06,274.46,206.37z"/>
				</g>
				<g>
					<g>
						<path class="st8" d="M318.36,196.63c0.04-1.59-1.29-2.94-2.76-3.73c-1.47-0.79-2.35-1.15-3.81-1.97
							c-1.46-0.82-3.48-2.95-3.35-4.54c0.05-0.67,0.27-1.82,0.57-2.44c0.59-1.24,0.81-1.96,1.4-3.2c0.28-0.59,1.91-2.16,2.02-2.8
							c0.24-1.44-0.66-1.66-1.33-2.97c-0.74-1.43-2.22-2.42-2.96-3.85c-0.12-0.24-0.25-0.5-0.16-0.76c0.2-0.59,1.14-0.42,1.71-0.12
							c2.03,1.07,3.97,2.31,5.77,3.69c2.02,1.54,3.9,3.31,5.09,5.47c0.84,1.53,1.29,3.22,1.95,4.82c1.17,2.87,1.82,6.2,3.39,8.89
							c2.86,4.89,6,13.05,8.18,18.25c1.21,2.89,2.22,4.41,2.88,7.46c0.48,2.23,1.64,5.91,1.8,8.18c0.24,3.57,0.37,4.52-0.43,7.53
							c-0.53,2-1.49,3.24-3.71,3.4c-1.67,0.13-4.44-2.53-5.43-3.78c-4.12-5.17-5.45-9.21-7.05-15.5
							C320.53,212.39,319.03,203.08,318.36,196.63"/>
					</g>
					<g>
						<path class="st9" d="M310.06,171.9c1.36,2.59,4.82,3.52,7.13,5.12c1.36,0.94,2.59,1.96,3.67,3.07
							c-0.11-0.23-0.2-0.45-0.32-0.67c-1.18-2.17-3.07-3.93-5.09-5.47c-1.8-1.38-3.74-2.61-5.77-3.69c-0.38-0.2-0.92-0.34-1.3-0.23
							C309.03,170.43,309.61,171.04,310.06,171.9z"/>
					</g>
					<g>
						<path class="st9" d="M332.91,231.26c-4.66-2.49-6.56-7.79-8.18-12.46c-1.98-5.71-3.33-11.78-5.78-17.32
							c0.78,5.73,1.95,12.36,3.18,17.2c1.59,6.29,2.92,10.33,7.05,15.5c0.99,1.24,3.76,3.9,5.43,3.78c2.21-0.17,3.18-1.4,3.71-3.4
							c0.31-1.17,0.48-2.02,0.56-2.84C337.13,232.44,335,232.38,332.91,231.26z"/>
					</g>
				</g>
			</g>
		</g>
	</g>
</g>
</svg>
