<?xml version="1.0" encoding="utf-8"?>
<!-- Generator: Adobe Illustrator 24.0.2, SVG Export Plug-In . SVG Version: 6.00 Build 0)  -->
<svg version="1.1" id="Default" xmlns="http://www.w3.org/2000/svg" xmlns:xlink="http://www.w3.org/1999/xlink" x="0px" y="0px"
	 viewBox="0 0 491.62 440.25" style="enable-background:new 0 0 491.62 440.25;" xml:space="preserve">
<style type="text/css">
	.st0{fill:#FF7F85;}
	.st1{fill:#B0A7C2;}
	.st2{fill:#A9A8C6;}
	.st3{fill:#1C1A2A;}
	.st4{fill:#E1DFEA;}
	.st5{fill:#7C7CA0;}
	.st6{fill:url(#SVGID_1_);}
	.st7{fill:#090000;}
	.st8{fill:#1A2738;}
	.st9{opacity:0.27;}
	.st10{fill:#F2F8FF;}
	.st11{fill:#717F90;}
	.st12{fill:#8140FF;}
	.st13{fill:#A68EFE;}
	.st14{fill:#D0B8FF;}
	.st15{fill:#FF73B5;}
	.st16{fill:#A135BC;}
	.st17{fill:#D2448D;}
	.st18{fill:#FBFAFC;}
	.st19{fill:#CDC3E2;}
	.st20{fill:#AA9BC3;}
	.st21{fill:#B4AAD1;}
	.st22{fill:#C42979;}
	.st23{fill:#F1519D;}
	.st24{fill:#ECE7F2;}
	.st25{fill:#1A293B;}
	.st26{fill:#3F4F5D;}
	.st27{fill:#9B346C;}
	.st28{fill:#FAC152;}
	.st29{fill:#A23042;}
	.st30{fill:#FDE86B;}
	.st31{fill:#EF4F25;}
	.st32{fill:#FA7800;}
	.st33{fill:#C2485C;}
	.st34{fill:#FFEC8E;}
	.st35{fill:#DBD0F2;}
	.st36{fill:#D64A78;}
	.st37{fill:#F50054;}
	.st38{fill:#5F26CF;}
	.st39{fill:#E95950;}
	.st40{fill:#F5B538;}
	.st41{fill:#F8E150;}
	.st42{fill:#AA682D;}
	.st43{fill:#A482F4;}
	.st44{fill:#C6B3EB;}
	.st45{fill:#F0E0DC;}
	.st46{fill:#821E4D;}
	.st47{fill:#AD3970;}
	.st48{fill:#F3E187;}
	.st49{fill:#F7B23B;}
	.st50{fill:#FBC959;}
</style>
<g>
	<path class="st0" d="M36.5,303.52c2.99,1.73,2.99,4.52,0,6.25c-2.99,1.73-7.83,1.73-10.82,0c-2.99-1.73-2.99-4.53,0-6.25
		C28.66,301.79,33.51,301.79,36.5,303.52z"/>
	<path class="st0" d="M209.9,390.62c2.07,1.2,2.07,3.14,0,4.33c-2.07,1.2-5.43,1.2-7.5,0c-2.07-1.2-2.07-3.14,0-4.33
		C204.47,389.42,207.83,389.42,209.9,390.62z"/>
	<path class="st1" d="M437.5,349.43l-89.75,51.81c-11.13,6.42-29.17,6.42-40.29,0L92.84,277.33c-11.13-6.42-11.13-16.84,0-23.26
		l89.75-51.81c11.13-6.42,29.17-6.42,40.29,0L437.5,326.16C448.63,332.59,448.63,343,437.5,349.43z"/>
	<g>
		<path class="st2" d="M89.61,235.81c1.27,1.66,2.99,2.92,4.77,3.96L310.14,364.4c2.5,1.46,5.21,2.48,8.11,3.1
			c2.78,0.59,5.75,0.92,8.73,0.93c5.94,0.02,11.98-1.22,16.86-4.04l102.67-59.3c2.9-1.67,6.05-4.56,6.8-7.82
			c0.12-0.55,0.18-1.1,0.18-1.66c0,6.65,0,8.64,0,15.31c0.01,4.21-3.25,7.58-6.98,9.73l-102.67,59.31c-2.5,1.44-5.21,2.48-8.11,3.09
			c-8.33,1.79-18.25,1.15-25.59-3.09L94.38,255.33c-0.93-0.55-1.84-1.15-2.7-1.84c-2.34-1.85-4.26-4.97-4.26-7.96h-0.01
			c0-6.72,0-8.78,0-15.5h0.01C87.47,232.08,88.34,234.15,89.61,235.81z"/>
		<path class="st3" d="M403.87,334.5c0.66-0.38,1.25-0.43,1.7-0.22c0.51,0.24,0.83,0.82,0.83,1.68v1.09c0,1.63-1.15,3.59-2.53,4.39
			l-17.37,10.03c-0.7,0.41-1.33,0.44-1.78,0.18c-0.47-0.26-0.75-0.83-0.75-1.64v-1.1c0-1.61,1.15-3.58,2.53-4.38L403.87,334.5z"/>
		<path class="st3" d="M365.32,356.5c2.42-2.46,4.74-1.48,4.67,1.06c-0.1,3.81-3.88,7.53-5.92,6.25c-0.27-0.17-0.5-0.42-0.7-0.76
			c-0.34-0.59-0.35-1.32-0.27-2.01c0.1-0.84,0.35-1.65,0.72-2.4c0,0,0-0.01,0.01-0.01c0.19-0.3,0.37-0.6,0.53-0.93
			C364.64,357.26,364.96,356.86,365.32,356.5z"/>
		<path class="st4" d="M93.8,234.86c1.77,2.14,3.19,2.71,9.4,6.33c0.11,0.07,210.26,121.5,211.35,122.04
			c3.57,1.74,8.01,2.61,12.46,2.61l-0.02,2.59c-2.98-0.01-5.94-0.34-8.73-0.93c-2.91-0.63-5.61-1.65-8.11-3.1L94.38,239.77
			c-1.78-1.03-3.5-2.3-4.77-3.96c-1.27-1.66-2.14-3.73-2.19-5.79c-0.03-0.65,0.02-1.28,0.17-1.91c0.76-3.26,3.9-6.15,6.8-7.82
			l102.67-59.3c4.89-2.82,10.91-4.05,16.85-4.04l-0.02,2.59c-2.19,0-4.44,0.22-6.64,0.68c-4.44,0.94-6.59,2.3-9.9,4.28
			c-3.35,2.01,7.63-4.47-38.54,22.2c-7.51,4.34-14.99,8.77-22.5,13.1c-7.51,4.33-15.06,8.58-22.56,12.97
			c-3.13,1.83-6.24,3.68-9.38,5.46c-3.67,2.07-7.09,3.88-8.84,5.28C91.62,226.65,90.6,231,93.8,234.86z"/>
		<g>
			<polygon class="st4" points="145.57,277.57 147.29,276.58 128.37,265.65 126.65,266.64 			"/>
			<polygon class="st5" points="147.29,278.97 147.29,276.58 145.57,277.57 145.57,279.96 			"/>
			<polygon class="st5" points="145.57,279.96 145.57,277.57 126.65,266.64 126.65,269.03 			"/>
		</g>
		<path class="st3" d="M354.25,366.58L354.25,366.58c0.37-0.21,0.67-0.72,0.67-1.12l0,0c0-0.41-0.3-0.57-0.67-0.36l0,0
			c-0.37,0.21-0.67,0.72-0.67,1.12l0,0C353.58,366.63,353.88,366.79,354.25,366.58z"/>
		<g>
			<path class="st3" d="M441.01,320.05L441.01,320.05c0.57-0.33,1.03-1.11,1.03-1.74v-4.92c0-0.63-0.46-0.88-1.03-0.55l0,0
				c-0.57,0.33-1.03,1.11-1.03,1.74v4.92C439.98,320.13,440.44,320.38,441.01,320.05z"/>
			<path class="st3" d="M436.88,322.44L436.88,322.44c0.57-0.33,1.03-1.11,1.03-1.74v-4.92c0-0.63-0.46-0.88-1.03-0.55l0,0
				c-0.57,0.33-1.03,1.11-1.03,1.74v4.92C435.85,322.52,436.31,322.77,436.88,322.44z"/>
			<path class="st3" d="M432.75,324.82L432.75,324.82c0.57-0.33,1.03-1.11,1.03-1.74v-4.92c0-0.63-0.46-0.88-1.03-0.55l0,0
				c-0.57,0.33-1.03,1.11-1.03,1.74v4.92C431.72,324.9,432.18,325.15,432.75,324.82z"/>
			<path class="st3" d="M428.62,327.21L428.62,327.21c0.57-0.33,1.03-1.11,1.03-1.74v-4.92c0-0.63-0.46-0.88-1.03-0.55l0,0
				c-0.57,0.33-1.03,1.11-1.03,1.74v4.92C427.59,327.29,428.05,327.54,428.62,327.21z"/>
			<path class="st3" d="M424.49,329.6L424.49,329.6c0.57-0.33,1.03-1.11,1.03-1.74v-4.92c0-0.63-0.46-0.88-1.03-0.55l0,0
				c-0.57,0.33-1.03,1.11-1.03,1.74v4.92C423.46,329.68,423.92,329.92,424.49,329.6z"/>
			<path class="st3" d="M420.36,331.98L420.36,331.98c0.57-0.33,1.03-1.11,1.03-1.74v-4.92c0-0.63-0.46-0.88-1.03-0.55l0,0
				c-0.57,0.33-1.03,1.11-1.03,1.74v4.92C419.33,332.06,419.79,332.31,420.36,331.98z"/>
		</g>
		<path class="st4" d="M446.52,305.1l-102.67,59.3c-4.89,2.82-10.92,4.06-16.86,4.04l0.02-2.59c3.95,0,7.93-0.7,11.31-2.11
			c1.99-0.83,3.47-1.79,5.24-2.84c3.35-2.01-7.63,4.47,38.54-22.2c7.51-4.34,14.99-8.77,22.5-13.1c7.52-4.33,15.07-8.59,22.56-12.97
			c3.13-1.83,6.24-3.68,9.39-5.46c6.22-3.5,9.15-4.87,11.07-7.63c2.51-3.62,1.93-8.39-4.27-12.07
			c-0.24-0.15-216.01-124.82-216.99-125.3c-3.42-1.66-7.84-2.62-12.47-2.62l0.02-2.59c2.98,0.01,5.94,0.34,8.74,0.93
			c2.91,0.63,5.61,1.65,8.13,3.1l215.75,124.63c1.8,1.04,3.5,2.3,4.78,3.96c1.33,1.73,2.19,3.9,2.19,6.04
			c0,0.56-0.06,1.11-0.18,1.66C452.57,300.54,449.42,303.43,446.52,305.1z"/>
		<g>
			<path class="st4" d="M230.32,164.45c-2.51-1.45-3.9-2.26-3.98-2.29c-3.42-1.66-7.84-2.61-12.47-2.62
				c-2.19,0.01-4.44,0.22-6.63,0.69c-4.44,0.94-6.6,2.29-9.9,4.27c-3.11,1.87,6.17-3.61-29.71,17.09l-8.83,5.1
				c-7.51,4.35-14.99,8.77-22.49,13.1c-2.06,1.19-4.12,2.37-6.19,3.54c-5.46,3.13-10.94,6.24-16.38,9.43
				c-3.12,1.84-6.23,3.69-9.37,5.46c-3.66,2.07-7.09,3.88-8.84,5.28c-3.9,3.14-4.94,7.49-1.73,11.35c1.78,2.14,3.2,2.71,9.4,6.34
				l91.26,52.72c56.91,32.88,119.5,69.02,120.1,69.32c3.56,1.74,8.01,2.62,12.45,2.62c3.95,0,7.93-0.71,11.3-2.12
				c1.99-0.83,3.48-1.78,5.24-2.84c3.35-2.01-7.62,4.47,38.55-22.19c7.51-4.35,14.99-8.77,22.5-13.11
				c7.52-4.33,15.07-8.59,22.57-12.97c3.11-1.83,6.23-3.69,9.37-5.46c6.22-3.5,9.15-4.87,11.07-7.63c2.42-3.48,1.98-8.02-3.58-11.63
				c-0.22-0.15-0.46-0.3-0.7-0.44C443.11,287.33,259.85,181.43,230.32,164.45z"/>
			<linearGradient id="SVGID_1_" gradientUnits="userSpaceOnUse" x1="91.8922" y1="262.696" x2="448.9971" y2="262.696">
				<stop  offset="0" style="stop-color:#FFC485"/>
				<stop  offset="1" style="stop-color:#D03E3E"/>
			</linearGradient>
			<path class="st6" d="M444.02,287.9c5.55,3.61,6,8.15,3.58,11.63c-1.92,2.77-4.85,4.13-11.07,7.63c-3.14,1.77-6.26,3.63-9.37,5.46
				c-7.5,4.39-15.05,8.64-22.57,12.97c-7.51,4.34-14.99,8.76-22.5,13.11c-46.17,26.66-35.19,20.18-38.55,22.19
				c-1.76,1.06-3.24,2.01-5.24,2.84c-7.22,3.02-17.09,2.76-23.75-0.5c-1-0.49-183.73-106.07-211.36-122.03
				c-6.21-3.63-7.62-4.2-9.4-6.34c-3.21-3.85-2.17-8.21,1.73-11.35c2.13-1.7,98.82-57.2,101.82-59c3.3-1.98,5.45-3.33,9.9-4.27
				c6.8-1.45,14.1-0.51,19.1,1.93C226.48,162.22,220.63,158.85,444.02,287.9z"/>
		</g>
		<g>
			<path class="st7" d="M163.2,189.71c0.93-0.55,2.43-0.55,3.36,0l1.25,0.72l-22.85,13.2c-0.93,0.55-2.44,0.53-3.38,0l-1.24-0.72
				L163.2,189.71z"/>
			<path class="st8" d="M166.57,187.38l1.58,0.91c0.94,0.55,0.92,1.41,0,1.94l-0.33,0.19l-1.25-0.72c-0.93-0.55-2.43-0.55-3.36,0
				l-22.85,13.2l-0.33-0.19c-0.45-0.26-0.69-0.61-0.7-0.95c0-0.01,0-0.01,0-0.02c0-0.35,0.24-0.7,0.7-0.97l23.18-13.39
				C164.13,186.83,165.65,186.85,166.57,187.38z"/>
		</g>
	</g>
	<g class="st9">
		<path class="st10" d="M186.58,214.6l-46.79,27.03c-1.52,0.88-3.98,0.88-5.5,0l0,0c-1.52-0.88-1.52-2.3,0-3.18l46.79-27.03
			c1.52-0.88,3.98-0.88,5.5,0l0,0C188.1,212.3,188.1,213.72,186.58,214.6z"/>
		<path class="st10" d="M183.44,229.12l-32.66,18.86c-1.52,0.88-3.98,0.88-5.5,0l0,0c-1.52-0.88-1.52-2.3,0-3.18l32.66-18.86
			c1.52-0.88,3.98-0.88,5.5,0l0,0C184.96,226.82,184.96,228.24,183.44,229.12z"/>
		<path class="st10" d="M194.45,235.48l-32.66,18.86c-1.52,0.88-3.98,0.88-5.5,0h0c-1.52-0.88-1.52-2.3,0-3.18l32.66-18.86
			c1.52-0.88,3.98-0.88,5.5,0l0,0C195.97,233.18,195.97,234.6,194.45,235.48z"/>
	</g>
	<g class="st9">
		<path class="st10" d="M258.49,259.99l-46.79,27.03c-1.52,0.88-3.98,0.88-5.5,0v0c-1.52-0.88-1.52-2.3,0-3.18l46.79-27.03
			c1.52-0.88,3.98-0.88,5.5,0l0,0C260.01,257.69,260.01,259.11,258.49,259.99z"/>
		<path class="st10" d="M255.35,274.51l-32.66,18.86c-1.52,0.88-3.98,0.88-5.5,0l0,0c-1.52-0.88-1.52-2.3,0-3.18l32.66-18.86
			c1.52-0.88,3.98-0.88,5.5,0h0C256.87,272.21,256.87,273.63,255.35,274.51z"/>
		<path class="st10" d="M266.36,280.87l-32.66,18.86c-1.52,0.88-3.98,0.88-5.5,0l0,0c-1.52-0.88-1.52-2.3,0-3.18l32.66-18.86
			c1.52-0.88,3.98-0.88,5.5,0v0C267.88,278.57,267.88,279.99,266.36,280.87z"/>
	</g>
	<g class="st9">
		<path class="st10" d="M354.29,246.98l-46.79,27.03c-1.52,0.88-3.98,0.88-5.5,0v0c-1.52-0.88-1.52-2.3,0-3.18l46.79-27.03
			c1.52-0.88,3.98-0.88,5.5,0l0,0C355.81,244.68,355.81,246.11,354.29,246.98z"/>
		<path class="st10" d="M351.16,261.51l-32.66,18.86c-1.52,0.88-3.98,0.88-5.5,0l0,0c-1.52-0.88-1.52-2.3,0-3.18l32.66-18.86
			c1.52-0.88,3.98-0.88,5.5,0l0,0C352.68,259.2,352.68,260.63,351.16,261.51z"/>
		<path class="st10" d="M362.16,267.86l-32.66,18.86c-1.52,0.88-3.98,0.88-5.5,0h0c-1.52-0.88-1.52-2.3,0-3.18l32.66-18.86
			c1.52-0.88,3.98-0.88,5.5,0v0C363.68,265.56,363.68,266.98,362.16,267.86z"/>
	</g>
	<g class="st9">
		<path class="st10" d="M344.25,307.09l-46.79,27.03c-1.52,0.88-3.98,0.88-5.5,0v0c-1.52-0.88-1.52-2.3,0-3.18l46.79-27.03
			c1.52-0.88,3.98-0.88,5.5,0l0,0C345.77,304.79,345.77,306.22,344.25,307.09z"/>
		<path class="st10" d="M341.12,321.62l-32.66,18.86c-1.52,0.88-3.98,0.88-5.5,0l0,0c-1.52-0.88-1.52-2.3,0-3.18l32.66-18.86
			c1.52-0.88,3.98-0.88,5.5,0h0C342.64,319.31,342.64,320.74,341.12,321.62z"/>
		<path class="st10" d="M352.12,327.97l-32.66,18.86c-1.52,0.88-3.98,0.88-5.5,0l0,0c-1.52-0.88-1.52-2.3,0-3.18l32.66-18.86
			c1.52-0.88,3.98-0.88,5.5,0v0C353.64,325.67,353.64,327.09,352.12,327.97z"/>
	</g>
	<g class="st9">
		<path class="st11" d="M277.86,201.26l-46.79,27.03c-1.52,0.88-3.98,0.88-5.5,0v0c-1.52-0.88-1.52-2.3,0-3.18l46.79-27.03
			c1.52-0.88,3.98-0.88,5.5,0l0,0C279.38,198.96,279.38,200.38,277.86,201.26z"/>
		<path class="st11" d="M274.73,215.78l-32.66,18.86c-1.52,0.88-3.98,0.88-5.5,0l0,0c-1.52-0.88-1.52-2.3,0-3.18l32.66-18.86
			c1.52-0.88,3.98-0.88,5.5,0l0,0C276.25,213.48,276.25,214.9,274.73,215.78z"/>
		<path class="st11" d="M285.73,222.14L253.07,241c-1.52,0.88-3.98,0.88-5.5,0h0c-1.52-0.88-1.52-2.3,0-3.18l32.66-18.86
			c1.52-0.88,3.98-0.88,5.5,0v0C287.25,219.84,287.25,221.26,285.73,222.14z"/>
	</g>
	<g>
		<path class="st12" d="M138.46,93.34c0,8.66,0,17.32,0,25.97c0,9.09-6.38,20.15-14.25,24.7c-1.11,0.64-2.22,1.28-3.33,1.92
			l-7.91,19.05l-7.91-9.91c-1.11,0.64-2.22,1.28-3.33,1.92c-0.32,0.19-0.64,0.36-0.96,0.51c-3.56,1.79-6.75,1.85-9.13,0.48
			c-0.06-0.04-0.12-0.07-0.19-0.11c-2.47-1.53-3.99-4.68-3.99-9.12c0-8.65,0-17.31,0-25.96c0-9.1,6.38-20.16,14.26-24.7
			c7.49-4.32,14.98-8.65,22.47-12.98c3.86-2.23,7.36-2.48,9.92-1.09c0.05,0.02,0.11,0.06,0.15,0.09
			C136.86,85.6,138.46,88.8,138.46,93.34z"/>
		<path class="st13" d="M80.09,151.31c-2.58-1.49-4.17-4.69-4.17-9.23c0-8.65,0-17.31,0-25.97c0-9.09,6.38-20.15,14.25-24.7
			c7.49-4.32,14.98-8.65,22.47-12.99c3.94-2.27,7.5-2.48,10.08-0.99c3.81,2.19,7.61,4.39,11.41,6.59c-2.56-1.4-6.06-1.14-9.92,1.09
			c-7.49,4.32-14.98,8.65-22.47,12.98c-7.87,4.55-14.26,15.6-14.26,24.7c0,8.65,0,17.31,0,25.96c0,4.44,1.52,7.59,3.99,9.12
			C87.68,155.69,83.88,153.51,80.09,151.31z"/>
		<path class="st13" d="M105.06,155.08l7.91,9.91l-11.56-6.68l-0.63-0.8c0.31-0.15,0.64-0.33,0.96-0.51
			C102.84,156.35,103.95,155.71,105.06,155.08z"/>
		<path class="st14" d="M121.08,110.56c-3.01-2.7-8.9-0.55-13.16,4.79c-4.25,5.35-5.26,11.87-2.24,14.57
			c2.61,2.34,7.37,1.04,11.36-2.82l5.46,4.89c0.62,0.56,1.87,0.08,2.79-1.08c0.92-1.15,1.16-2.54,0.53-3.1l-5.46-4.89
			C123.28,118.09,123.69,112.89,121.08,110.56z M117.52,123.95c-3.23,4.06-7.7,5.69-9.98,3.64c-2.29-2.05-1.52-7,1.7-11.06
			c3.23-4.06,7.7-5.69,9.98-3.64C121.51,114.94,120.74,119.89,117.52,123.95z"/>
	</g>
	<g>
		<path class="st15" d="M88.07,191.64l1.24,1.8c0.1,0.15,0.3,0.18,0.53,0.08l2.78-1.2c0.57-0.25,0.8,0.33,0.39,0.97L91,196.42
			c-0.17,0.26-0.24,0.53-0.2,0.74l0.48,2.5c0.1,0.52-0.5,1.3-1.02,1.33l-2.49,0.13c-0.2,0.01-0.45,0.15-0.65,0.38l-2.49,2.75
			c-0.51,0.57-1.11,0.48-1.02-0.15l0.48-3.05c0.04-0.25-0.04-0.44-0.2-0.5l-2.01-0.8c-0.42-0.17-0.19-1,0.39-1.42l2.78-2.01
			c0.23-0.17,0.43-0.42,0.53-0.69l1.24-3.24C87.07,191.7,87.81,191.27,88.07,191.64z"/>
		<path class="st15" d="M102.18,183.49l1.24,1.8c0.1,0.15,0.3,0.18,0.53,0.08l2.78-1.2c0.57-0.25,0.8,0.33,0.39,0.97l-2.01,3.13
			c-0.17,0.26-0.24,0.53-0.2,0.74l0.48,2.5c0.1,0.52-0.5,1.3-1.02,1.33l-2.49,0.13c-0.2,0.01-0.45,0.15-0.65,0.38l-2.49,2.75
			c-0.51,0.57-1.11,0.48-1.02-0.15l0.48-3.05c0.04-0.25-0.04-0.44-0.2-0.5l-2.01-0.8c-0.42-0.17-0.19-1,0.39-1.42l2.78-2.01
			c0.23-0.16,0.43-0.42,0.53-0.69l1.24-3.24C101.19,183.54,101.93,183.12,102.18,183.49z"/>
		<path class="st15" d="M116.3,175.33l1.24,1.8c0.1,0.15,0.3,0.18,0.53,0.08l2.78-1.2c0.57-0.25,0.8,0.33,0.39,0.97l-2.01,3.13
			c-0.17,0.26-0.24,0.53-0.2,0.74l0.48,2.5c0.1,0.52-0.5,1.3-1.02,1.33L116,184.8c-0.2,0.01-0.45,0.15-0.65,0.38l-2.49,2.75
			c-0.51,0.57-1.11,0.48-1.02-0.15l0.48-3.05c0.04-0.25-0.04-0.44-0.2-0.5l-2.01-0.8c-0.42-0.17-0.19-1,0.39-1.42l2.78-2.01
			c0.23-0.16,0.43-0.42,0.53-0.69l1.24-3.24C115.3,175.39,116.04,174.96,116.3,175.33z"/>
		<path class="st16" d="M130.41,167.18l1.24,1.8c0.1,0.15,0.3,0.18,0.53,0.08l2.78-1.2c0.57-0.25,0.8,0.33,0.39,0.97l-2.01,3.13
			c-0.17,0.26-0.24,0.53-0.2,0.74l0.48,2.5c0.1,0.52-0.5,1.3-1.02,1.33l-2.49,0.13c-0.2,0.01-0.45,0.15-0.65,0.38l-2.49,2.75
			c-0.51,0.57-1.11,0.48-1.02-0.15l0.48-3.05c0.04-0.25-0.04-0.44-0.2-0.5l-2.01-0.8c-0.42-0.17-0.19-1,0.39-1.42l2.78-2.01
			c0.23-0.16,0.43-0.42,0.53-0.69l1.24-3.24C129.41,167.24,130.16,166.81,130.41,167.18z"/>
		<path class="st16" d="M144.53,159.03l1.24,1.8c0.1,0.15,0.3,0.18,0.53,0.08l2.78-1.2c0.57-0.25,0.8,0.33,0.39,0.97l-2.01,3.13
			c-0.17,0.26-0.24,0.53-0.2,0.74l0.48,2.5c0.1,0.52-0.5,1.3-1.02,1.33l-2.49,0.13c-0.2,0.01-0.45,0.15-0.65,0.38l-2.49,2.75
			c-0.51,0.57-1.11,0.48-1.02-0.15l0.48-3.05c0.04-0.25-0.04-0.44-0.2-0.5l-2.01-0.8c-0.42-0.17-0.19-1,0.39-1.42l2.78-2.01
			c0.23-0.16,0.43-0.42,0.53-0.69l1.24-3.24C143.53,159.08,144.27,158.66,144.53,159.03z"/>
	</g>
	<g>
		<path class="st15" d="M295.58,49.24c0,7.16,0,14.32,0,21.48c0,7.52,5.27,16.66,11.78,20.42c0.92,0.53,1.83,1.06,2.75,1.59
			l6.54,15.75l6.54-8.19c0.92,0.53,1.84,1.06,2.75,1.59c0.27,0.15,0.53,0.3,0.79,0.42c2.94,1.48,5.59,1.53,7.55,0.4
			c0.05-0.03,0.1-0.06,0.15-0.09c2.04-1.27,3.3-3.87,3.3-7.54c0-7.16,0-14.31,0-21.47c0-7.52-5.28-16.67-11.79-20.43
			c-6.19-3.58-12.39-7.16-18.58-10.73c-3.19-1.84-6.09-2.05-8.2-0.9c-0.04,0.02-0.09,0.05-0.13,0.07
			C296.9,42.84,295.58,45.48,295.58,49.24z"/>
		<path class="st17" d="M343.84,97.18c2.13-1.23,3.45-3.88,3.45-7.63c0-7.16,0-14.31,0-21.48c0-7.52-5.27-16.66-11.78-20.42
			c-6.19-3.58-12.39-7.16-18.58-10.74c-3.26-1.88-6.2-2.05-8.33-0.82c-3.15,1.81-6.29,3.63-9.43,5.45c2.12-1.15,5.01-0.94,8.2,0.9
			c6.19,3.58,12.39,7.16,18.58,10.73c6.51,3.76,11.79,12.9,11.79,20.43c0,7.16,0,14.31,0,21.47c0,3.67-1.26,6.27-3.3,7.54
			C337.57,100.8,340.71,98.99,343.84,97.18z"/>
		<path class="st17" d="M323.2,100.29l-6.54,8.19l9.56-5.52l0.52-0.66c-0.26-0.13-0.53-0.27-0.79-0.42
			C325.03,101.35,324.11,100.82,323.2,100.29z"/>
		<g>
			<path class="st18" d="M315.1,63.72c-0.21-0.12-0.4-0.15-0.55-0.09l-0.55,0.23l-2.99-1.73c-1.15-0.66-2.14-0.38-2.3,0.67
				l-0.27,1.72l1.57,0.91l0.24-1.52c0.05-0.35,0.38-0.44,0.77-0.22l3.31,1.91c0.21,0.12,0.4,0.15,0.55,0.09l0.55-0.23l2.46,1.42
				l0.55,0.87c0.15,0.23,0.34,0.42,0.55,0.54l3.31,1.91c0.38,0.22,0.72,0.7,0.77,1.11l0.24,1.8l1.57,0.91l-0.27-2.04
				c-0.16-1.24-1.15-2.67-2.3-3.33l-2.99-1.73l-0.55-0.87c-0.15-0.23-0.34-0.42-0.55-0.54L315.1,63.72z M307.35,65.44
				c-0.43-0.25-0.78-0.1-0.78,0.33v1.55c0,0.43,0.35,0.98,0.78,1.22l0.13,0.08l1.21,7.94c0.12,0.82,0.77,1.74,1.53,2.18l12.88,7.44
				c0.76,0.44,1.41,0.26,1.53-0.41l1.21-6.54l0.13,0.07c0.43,0.25,0.78,0.1,0.78-0.33v-1.55c0-0.43-0.35-0.98-0.78-1.22
				L307.35,65.44z M320.53,76.94c0.43,0.25,0.78,0.8,0.78,1.22v3.88c0,0.43-0.35,0.57-0.78,0.33c-0.43-0.25-0.78-0.8-0.78-1.22
				v-3.88C319.76,76.84,320.11,76.69,320.53,76.94L320.53,76.94z M316.65,74.7c0.43,0.25,0.78,0.8,0.78,1.22v3.88
				c0,0.43-0.35,0.57-0.78,0.33c-0.43-0.25-0.78-0.8-0.78-1.22v-3.88C315.88,74.6,316.23,74.45,316.65,74.7L316.65,74.7z
				 M312.78,72.46c0.43,0.25,0.78,0.8,0.78,1.22v3.88c0,0.43-0.35,0.57-0.78,0.33c-0.43-0.25-0.78-0.8-0.78-1.22v-3.88
				C312,72.36,312.35,72.21,312.78,72.46L312.78,72.46z"/>
		</g>
	</g>
	<path class="st19" d="M361.37,287.87l-49.43,28.54c-4.88,2.82-12.8,2.82-17.68,0L203.49,264c-4.88-2.82-4.88-7.39,0-10.21
		l49.43-28.54c4.88-2.82,12.8-2.82,17.68,0l90.77,52.41C366.25,280.48,366.25,285.05,361.37,287.87z"/>
	<g>
		<path class="st20" d="M376.07,315.1c-1.16-2.07-4.39-3.49-6.77-3.95c-3.1-0.61-6.21-0.06-8.44,1.22
			c-1.72,0.99-2.58,2.13-2.58,3.41c0,0.48,0,0.97,0,1.45c0,1.75,1.72,3.07,3.23,3.94c2.12,1.23,5.22,1.96,8.33,1.53
			c2.32-0.32,5.27-1.48,6.32-3.56c0.2-0.39,0.3-0.79,0.3-1.19c0-0.48,0-0.97,0-1.46C376.47,316.04,376.33,315.57,376.07,315.1z
			 M369.06,309.35l12.59,7.27l1.55-0.89v-1.46l-3.15-1.82l7.25,0.9l1.91-1.1v-1.46l-9.54-1.09c0.08-3.03,0.07-2.14,0.07-3.97
			l-2,1.16c0,1.83-0.01,0.89,0.03,4.25l-7.16-4.14l-1.54,0.89V309.35z M395.19,325.12c-9.1,6.01-23.12,7.03-33.81,4.21
			c-5.16-1.36-10.96-4.01-14.28-8.21c-3.65-4.62-3.41-9.7-0.02-13.97c8.34-10.55,32.42-13.1,46.76-4.87c0.01,0,0.01,0.01,0.02,0.01
			c2.2,1.26,4.25,2.83,5.83,4.82C404.78,313.55,402.18,320.51,395.19,325.12z"/>
		<g>
			<path class="st21" d="M338.09,312.42c1.58,2,3.64,3.57,5.84,4.83c9.85,5.66,24.51,6.29,35.41,2.48
				c4.19-1.46,8.59-3.86,11.35-7.34c1.61-2.03,2.62-4.33,2.63-6.97h0.01c0,2.51,0,5.02,0,7.53h0c0,6.1-5.46,10.61-11.02,13.15
				c-10.51,4.79-25.37,4.79-35.89-0.02c-5.55-2.55-10.97-7.05-10.97-13.13c0-2.5,0-4.99,0-7.49h0.01
				C335.44,308.06,336.52,310.43,338.09,312.42z"/>
			<polygon class="st22" points="380.19,302.1 380.19,303.55 378.28,304.65 378.28,303.2 			"/>
			<polygon class="st22" points="378.28,303.2 378.28,304.65 371.03,303.76 370.6,303.51 370.6,302.25 			"/>
			<polygon class="st22" points="374.18,305.57 374.18,307.03 372.63,307.92 372.63,306.46 			"/>
			<polygon class="st22" points="372.63,306.46 372.63,307.92 360.04,300.65 360.04,299.19 			"/>
			<path class="st23" d="M374.18,305.57l-1.55,0.89l-12.59-7.27l1.54-0.89l7.16,4.13c0.03,0.02,0.02,0.34-0.03-4.25l2-1.16
				l-0.1,3.97c0.77,0.07-2.69-0.31,9.58,1.1l-1.91,1.1l-7.68-0.95l-0.04,1.23C370.63,303.52,370.87,303.66,374.18,305.57z"/>
			<path class="st24" d="M367.05,306.4c-1.16-2.07-4.39-3.49-6.77-3.95c-3.1-0.61-6.21-0.06-8.44,1.22
				c-1.72,0.99-2.58,2.13-2.58,3.41c0,0.48,0,0.97,0,1.45c0,1.75,1.72,3.07,3.23,3.94c2.12,1.23,5.22,1.96,8.33,1.53
				c2.32-0.32,5.27-1.48,6.32-3.56c0.2-0.39,0.3-0.79,0.3-1.19c0-0.48,0-0.97,0-1.46C367.44,307.33,367.31,306.87,367.05,306.4z
				 M360.04,300.65l12.59,7.27l1.55-0.89v-1.46l-3.15-1.82l7.25,0.9l1.91-1.1v-1.46l-9.54-1.09c0.08-3.03,0.07-2.14,0.07-3.97
				l-2,1.16c0,1.83-0.01,0.89,0.03,4.25l-7.16-4.13l-1.54,0.89V300.65z M386.17,316.41c-9.1,6.01-23.12,7.03-33.81,4.21
				c-5.16-1.36-10.96-4.01-14.28-8.21c-3.65-4.62-3.41-9.7-0.02-13.97c8.34-10.55,32.42-13.1,46.76-4.87c0.01,0,0.01,0.01,0.02,0.01
				c2.2,1.26,4.25,2.83,5.83,4.82C395.75,304.84,393.16,311.8,386.17,316.41z"/>
			<path class="st23" d="M365.21,308.06c0.06-1.37-1.36-2.42-2.54-3.11c-3.41-1.97-7.06-1.8-9.38-0.47
				c-1.18,0.68-1.79,1.5-1.83,2.46c-0.05,1.28,1.67,2.44,2.78,3.08c3.19,1.84,6.85,1.7,9.19,0.35
				C364.34,309.86,365.16,309.11,365.21,308.06z M367.44,307.79c0,1.45-1.31,2.67-2.58,3.4c-3.63,2.09-8.81,1.87-12.37-0.19
				c-1.52-0.88-3.23-2.19-3.23-3.94c0-1.28,0.86-2.41,2.58-3.41c3.48-2.01,8.54-2.01,12.55,0.3
				C365.82,304.79,367.44,306.15,367.44,307.79z"/>
			<path class="st24" d="M362.67,306.41c1.31,0.75,2.11,1.52,2.41,2.3c-0.84,2.18-6.06,4.07-10.83,1.32
				c-1.43-0.83-2.31-1.61-2.63-2.36C352.48,305.42,357.64,303.5,362.67,306.41z"/>
			<path class="st22" d="M365.21,307.83c0.02,0.26-0.02,0.59-0.13,0.89c-0.3-0.78-1.1-1.55-2.41-2.3c-5.01-2.9-10.18-1-11.06,1.26
				c-0.11-0.24-0.16-0.48-0.15-0.72c0.04-0.96,0.65-1.78,1.83-2.46c2.32-1.34,5.97-1.5,9.38,0.47
				C364.29,305.89,365.14,306.85,365.21,307.83z"/>
			<path class="st22" d="M352.5,311.01c3.53,2.04,8.71,2.29,12.37,0.19c1.27-0.73,2.58-1.96,2.58-3.4c0,0.49,0,0.97,0,1.46
				c0,0.4-0.1,0.8-0.3,1.19c-1.05,2.07-3.99,3.23-6.32,3.56c-3.09,0.43-6.19-0.29-8.33-1.53c-1.51-0.87-3.23-2.19-3.23-3.94
				c0-0.48,0-0.97,0-1.45C349.27,308.82,350.98,310.14,352.5,311.01z"/>
		</g>
	</g>
	<g>
		<polygon class="st4" points="267.66,204.36 296.18,187.1 292.91,185.65 264.03,202.36 		"/>
		<polygon class="st4" points="251.68,194.55 280.19,177.29 276.92,175.84 248.05,192.55 		"/>
		<polygon class="st17" points="226.26,163.43 228.53,180.43 242.96,173.12 		"/>
		<path class="st17" d="M219.84,105.36v47.65c1.27,0.74,28.75,16.48,28.75,16.48l10.72-5.81l0.76-47.36V95.08v-6.72v-6.22
			L219.84,105.36z"/>
		<path class="st4" d="M217.97,40.72L217.97,40.72c4.26,3.1,8.05,8.83,9.42,14.51c1.83,7.48,3.66,14.96,5.48,22.44l4.54-2.62
			c-1.71-7-3.42-14.01-5.13-21.01c-1.62-6.67-6-13.49-11.34-17.37c0,0,0,0,0,0c-2.87-2.1-5.74-4.19-8.62-6.3c0,0,0,0-0.01,0
			c-7.53-5.59-20.22-6.59-28-2.01c0,0,0,0-0.01,0c-6.45,3.72-12.89,7.44-19.34,11.17c-6.44,3.72-12.89,7.44-19.33,11.16
			c0,0,0,0-0.01,0c-3.97,2.24-6.76,6.1-6.53,10.61c0.21,4.13,2.87,7.71,6.18,10.09c0,0,0.01,0.01,0.02,0.02h0
			c2.88,2.1,5.74,4.2,8.62,6.3c4.22,3.06,8.03,8.77,9.42,14.5v0c2.32,9.48,4.64,18.97,6.96,28.46c0-0.03,0.16-0.04,0.19-0.04
			c0.6-0.02,1.54,0.18,2.12,0.32c0.82,0.2,1.46,0.41,1.87,0.27c0.61-0.2,0.83-1.15,0.68-1.86c-0.12-0.49-0.24-0.98-0.36-1.47
			c-2.19-8.96-4.38-17.91-6.57-26.87c-1.62-6.69-6.02-13.51-11.34-17.38h0c-2.88-2.1-5.75-4.2-8.62-6.3l0,0
			c-2.49-1.79-4.66-4.64-4.03-7.61c0.44-2.03,2.11-3.66,3.91-4.68h0.01c6.45-3.72,12.9-7.45,19.34-11.17
			c6.45-3.72,12.9-7.44,19.34-11.17l0.01,0c5.89-3.47,16.38-2.83,22.5,1.72l0,0C212.22,36.52,215.1,38.63,217.97,40.72z"/>
		<path class="st4" d="M187.79,117.11c-1,0.58-2,1.15-3,1.73c0.58,4.98,1.16,9.95,1.74,14.93v0c1.14,0.66,2.28,1.32,3.43,1.98
			C189.23,129.54,188.51,123.32,187.79,117.11z"/>
		<path class="st4" d="M193.72,166.61c-1.17-0.68-2.35-1.35-3.53-2.03c0.67,2.92,2.29,5.75,4.29,7.76
			C194.23,170.43,193.98,168.52,193.72,166.61z"/>
		<path class="st4" d="M202.38,131.29c-3.36,1.94-6.71,3.88-10.07,5.82c1.94,1.12,3.88,2.24,5.82,3.36
			c1.42-0.82,2.84-1.64,4.26-2.46V131.29z"/>
		<path class="st4" d="M192.38,156.52c-0.52-3.94-1.05-7.88-1.58-11.83c-0.94,0.54-1.88,1.08-2.81,1.62
			c0.43,3.67,0.86,7.34,1.28,11.01c1.16,0.67,2.32,1.34,3.48,2.01C192.63,158.4,192.51,157.46,192.38,156.52z"/>
		<path class="st4" d="M198.94,181.73L198.94,181.73c0.08,0.6,0.29,1.3,0.73,1.72c0.65,0.62,1.65,0.46,2.48,0.12
			c4.45-2.51,3.26-1.83,5.5-3.12c-3.2-1.85-6.4-3.7-9.61-5.55C198.34,177.18,198.64,179.46,198.94,181.73z M223.66,186.04v0.44
			l2.68,1.54c0.15,1.17,0.31,2.33,0.46,3.5c-5.33-3.08-10.65-6.15-15.98-9.23c-1.2,0.69-2.41,1.39-3.61,2.09
			c-0.78,0.6-4.11,2.31-5.08,2.52c-0.2,0.05-0.39,0.08-0.58,0.1c-3.05,0.4-5.35-1.62-5.76-4.85v0c-0.43-3.27-0.87-6.53-1.31-9.8
			c-0.25-1.91-0.51-3.82-0.76-5.73c1.16,0.67,2.32,1.34,3.47,2v0c0.1,0.72,0.19,1.44,0.29,2.16c0.36,0.3,0.73,0.57,1.12,0.79h0
			c4.07,2.35,8.14,4.7,12.21,7.05c0.62-0.36,1.23-0.71,1.85-1.07c1.06,0.61,2.12,1.22,3.17,1.83c-0.62,0.35-1.23,0.71-1.85,1.07
			C217.21,182.32,220.44,184.18,223.66,186.04z"/>
		<path class="st4" d="M193.79,163.05c0.62,0.2,1.51-0.23,2.02-0.6c0.26-0.19,0.52-0.43,0.47-0.68c-0.02-0.14-0.04-0.28-0.06-0.43
			c-0.73-5.51-1.47-11.02-2.2-16.52c-1.16-0.67-2.31-1.34-3.47-2c0.08,0.63,0.17,1.25,0.25,1.88c0.52,3.94,1.05,7.88,1.58,11.83
			c0.12,0.94,0.25,1.88,0.37,2.82c0.13,0.95,0.25,1.89,0.38,2.84c0,0.02,0,0.04,0.01,0.05C193.2,162.6,193.42,162.93,193.79,163.05z
			"/>
		<path class="st15" d="M202.38,149.64v15.25c5.82,3.36,11.64,6.73,17.47,10.08v-15.25C214.02,156.36,208.2,153,202.38,149.64z"/>
		<path class="st15" d="M202.38,138.01v4.91c5.82,3.36,11.64,6.72,17.47,10.08v-47.65l-17.47-10.08v6.69v6.72v22.61V138.01z"/>
		<polygon class="st15" points="202.38,95.28 219.84,105.36 260.06,82.14 242.6,72.06 237.42,75.05 232.88,77.67 		"/>
		<polygon class="st15" points="204.38,95.28 242.6,73.21 258.06,82.14 219.84,104.21 		"/>
		<path class="st25" d="M207.66,263.87L207.66,263.87c1.28-0.73,2.55-1.47,3.83-2.2c0.59-0.34,1.06-0.86,1.4-1.46
			c0.97-1.68,0.88-4.07,0.45-5.97c-1.42-0.82-2.83-1.64-4.25-2.46l0.06,3.79v0C210.35,259.62,209.56,262.67,207.66,263.87z"/>
		<path class="st26" d="M194.94,250.64c0,4.5,3.03,9.97,6.92,12.5c2.32,1.51,4.37,1.63,5.8,0.73c1.91-1.21,2.69-4.25,1.49-8.29
			l0.05,3.13l-0.58,0.35l-13.18-7.61l-0.06-3.43C195.06,248.84,194.94,249.75,194.94,250.64z"/>
		<path class="st17" d="M209.98,247.56c0.52-0.57,1.38-1.21,2.15-1.17c0.22,0.01,0.45,0.07,0.64,0.18l0.01-0.02
			c-4.39-2.54-8.79-5.08-13.18-7.61c-0.42-0.24-0.95-0.17-1.44,0.02c-0.1,0.04-0.2,0.08-0.29,0.13c-1.28,0.66-2.6,2.69-2.57,4.44
			l0,0.31l0.07,4.19l0.06,3.43l13.18,7.61l-0.13-7.93C208.46,249.87,209.13,248.48,209.98,247.56z"/>
		<path class="st27" d="M212.13,246.38c-0.77-0.03-1.62,0.6-2.15,1.17c-0.85,0.92-1.52,2.32-1.5,3.58l0.13,7.93l0.58-0.35
			l-0.05-3.13v0l-0.06-3.79l-0.02-1.46c0.06-0.43,0.09-0.62,0.29-1.05c0.39-0.88,1.14-1.81,2.02-2.13c0.61-0.22,0.88-0.03,1.04,0.03
			c0,0,0,0,0.01,0c0.36,0.21,0.72,0.42,1.08,0.62c-0.05-0.35-0.15-0.72-0.39-0.99c-0.09-0.1-0.2-0.19-0.33-0.25
			C212.57,246.45,212.35,246.39,212.13,246.38z"/>
		<path class="st17" d="M219.84,159.73v15.25c1.27,0.73,2.54,1.47,3.82,2.2v-9.24c-0.29-2.17-0.58-4.34-0.87-6.51
			C221.81,160.86,220.83,160.29,219.84,159.73z"/>
		<path class="st17" d="M223.66,167.94v9.24c0.45,0.26,0.89,0.51,1.33,0.77h0C224.55,174.61,224.11,171.27,223.66,167.94z"/>
		<path class="st17" d="M246.24,218.6v3.52l13.18,7.61v-8.05c-1.23-0.76-1.96-2.2-1.95-4.08c0,0,0,0,0-0.01
			c0-1.35,0.01-2.7,0.01-4.05c-2.32-1.34-4.64-2.68-6.96-4.02c-0.42-0.24-0.96-0.17-1.44,0.02c-0.09,0.03-0.19,0.08-0.28,0.12
			c-1.27,0.65-2.58,2.66-2.58,4.39v0.36V218.6z"/>
		<path class="st4" d="M231.91,202.07c0.81,0.79,2.21,0.34,3.18-0.23l0,0c1.51-0.87,3.37-1.94,4.79-2.77
			c-3.2-1.85-6.41-3.7-9.61-5.55c0.31,2.27,0.61,4.55,0.91,6.82v0C231.26,200.95,231.47,201.64,231.91,202.07z M246.63,199.3
			c3.63,2.09,7.25,4.19,10.88,6.28h0c0,1.22-0.01,2.44-0.01,3.66c-4.81-2.78-9.62-5.56-14.44-8.34c-2.12,1.23-4.25,2.46-6.38,3.68
			c-4.19,2.45-8.1,0.54-8.65-3.83v0c-0.41-3.08-0.82-6.16-1.23-9.24c-0.15-1.17-0.31-2.33-0.46-3.5c-0.12-0.93-0.25-1.86-0.37-2.79
			c1.16,0.67,2.32,1.34,3.47,2c0.12,0.93,0.25,1.86,0.37,2.79l16.44,9.49L246.63,199.3z"/>
		<path class="st25" d="M262.33,232.31c0.55-0.32,1.01-0.8,1.35-1.35c1.05-1.72,0.94-4.25,0.47-6.21c-1.38-0.8-2.76-1.59-4.14-2.39
			v3.93c1.2,4.1,0.35,7.16-1.63,8.3l0,0C259.7,233.83,261.02,233.07,262.33,232.31L262.33,232.31z"/>
		<path class="st27" d="M260.01,221.98c-0.21-0.08-0.4-0.18-0.58-0.29v8.05l0.58-0.34v-3.1v-3.93V221.98z"/>
		<path class="st26" d="M260.01,229.39l-0.58,0.34l-13.18-7.61v-3.52c-0.33,0.84-0.46,1.78-0.46,2.69c0,4.49,3.02,9.96,6.9,12.5
			c2.26,1.48,4.27,1.64,5.7,0.81c1.98-1.14,2.82-4.2,1.63-8.3V229.39z"/>
		<path class="st17" d="M263.7,217.13c-1.01-0.58-2.03-1.17-3.04-1.75c0,0.74,0,1.48,0,2.23c0,0,0,0.01,0,0.01v0.01
			c0,0.02,0,0.05,0,0.08c0,0.2,0.02,0.44,0.08,0.67c0.46-0.55,1.14-1.15,1.84-1.32C262.95,216.94,263.37,216.94,263.7,217.13z"/>
		<path class="st4" d="M263.4,217.8c-0.26-0.17-0.59-0.2-0.93-0.11c-0.6,0.15-1.15,0.63-1.54,1.12c0.02,0.04,0.05,0.07,0.08,0.1
			c0.1,0.1,0.21,0.17,0.5,0.19c0.71,0.06,1.64-0.35,2.26-0.71h0c0.11-0.06,0.22-0.13,0.33-0.19
			C263.86,218.06,263.63,217.93,263.4,217.8L263.4,217.8z"/>
		<path class="st4" d="M263.38,282.83c-0.03-1.74,1.29-3.79,2.56-4.44c0.09-0.05,0.19-0.09,0.29-0.13v0l0,0
			c-17.58-10.15-35.17-20.3-52.75-30.45c-0.36-0.21-0.72-0.42-1.08-0.62c0,0,0,0-0.01,0c-0.16-0.06-0.43-0.25-1.04-0.03
			c-0.88,0.32-1.63,1.25-2.02,2.13c-0.19,0.44-0.22,0.63-0.29,1.05l0.02,1.46c1.42,0.82,2.83,1.64,4.25,2.46
			c16.68,9.63,33.37,19.26,50.05,28.9L263.38,282.83z"/>
		<path class="st4" d="M257.48,217.6C257.48,217.6,257.48,217.6,257.48,217.6c0-1.36,0.01-2.71,0.01-4.06c0-1.43,0-2.86,0.01-4.3
			c0-1.22,0.01-2.44,0.01-3.66c0-0.71,0-1.42,0-2.14c1.06,0.61,2.11,1.22,3.17,1.83c0,0.71,0,1.42,0,2.14
			c3.68,2.13,7.37,4.25,11.05,6.38c0.62-0.36,1.24-0.71,1.85-1.07c1.16,0.65,2.49,1.11,3.92,1.41c-0.87,0.5-1.73,1-2.6,1.5
			c4.73,2.73,9.47,5.46,14.19,8.19h0c0.97,0.57,2.37,1.01,3.18,0.23c0.43-0.42,0.65-1.11,0.73-1.71v0c0.25-1.86,0.5-3.71,0.75-5.57
			c0.34-2.51,0.67-5.02,1.01-7.53v0c1.16-0.67,2.32-1.34,3.48-2c-0.42,3.08-0.83,6.15-1.24,9.23c-0.28,2.1-0.57,4.2-0.85,6.3v0
			c-0.57,4.41-4.51,6.24-8.65,3.82c0,0,0,0,0,0c-5.26-3.03-10.51-6.07-15.78-9.11c-1.49,0.86-2.97,1.71-4.46,2.57
			c-0.64,0.37-1.28,0.74-1.91,1.11h0c-2.07,1.21-3.94,1.4-5.34,0.85c-0.21-0.08-0.4-0.18-0.58-0.29
			C258.2,220.93,257.46,219.48,257.48,217.6z M264.36,218.04c1.4-0.8,2.79-1.61,4.19-2.42c-2.63-1.52-5.25-3.03-7.88-4.55
			c0,1.43-0.01,2.86-0.01,4.3c0,0.74,0,1.48,0,2.23c0,0,0,0.01,0,0.01v0.01c0,0.02,0,0.05,0,0.08c0,0.2,0.02,0.44,0.08,0.67
			c0.04,0.17,0.1,0.32,0.19,0.45c0.02,0.04,0.05,0.07,0.08,0.1c0.1,0.1,0.21,0.17,0.5,0.19c0.71,0.06,1.64-0.35,2.26-0.71h0
			c0.11-0.06,0.22-0.13,0.33-0.19C264.18,218.14,264.27,218.1,264.36,218.04z"/>
		<path class="st27" d="M260.93,218.81c0.39-0.49,0.94-0.97,1.54-1.12c0.34-0.09,0.67-0.06,0.93,0.11v0c0.23,0.14,0.46,0.27,0.7,0.4
			c0.09-0.05,0.18-0.1,0.26-0.15c-0.1-0.36-0.33-0.72-0.65-0.91c-0.01,0-0.01-0.01-0.02-0.01c-0.33-0.18-0.75-0.18-1.12-0.09
			c-0.7,0.18-1.39,0.77-1.84,1.32C260.77,218.53,260.83,218.69,260.93,218.81z"/>
		<path class="st4" d="M266.04,98.53c-0.59,5.12-4.15,39.32-4.74,44.44l2.91,1.82c0.45-3.89,4.38-40.64,4.83-44.52
			C268.04,99.68,267.04,99.1,266.04,98.53z"/>
		<path class="st25" d="M275.94,303.43L275.94,303.43c1.32-0.75,2.63-1.51,3.94-2.27c1.62-0.93,2.16-2.92,2.16-4.78
			c0-1.45-0.32-2.95-0.8-4.33c-1.29-0.07-2.67-0.4-4.08-1.04h0l0.05,3.07c0.54,1.42,0.89,3.06,0.89,4.57
			C278.11,301.14,277.23,302.69,275.94,303.43z"/>
		<path class="st26" d="M263.48,288.58c-0.92,4.87,2.82,12.05,7.63,14.55c0.87,0.45,1.83,0.79,2.81,0.8
			c0.73,0.01,1.42-0.15,2.03-0.5c1.28-0.74,2.17-2.29,2.17-4.77c0-1.51-0.36-3.15-0.89-4.57l0.07,3.94l-0.59,0.35l-13.18-7.61
			L263.48,288.58z"/>
		<path class="st4" d="M277.16,291.01c1.41,0.64,2.79,0.97,4.08,1.04c5.12,0.27,8.99-3.69,8.94-10.06c0,0,0,0,0-0.01
			c0-0.12,0-0.25,0-0.37c0,0,0,0,0-0.01c0.03-6.3-3.68-13.56-8.47-17.77l0,0c-22.64-20.08-45.28-40.16-67.93-60.24
			c-4-3.52-6.59-9.34-6.57-13.54v0c0-1.89,0-3.79,0-5.68c-0.78,0.6-4.11,2.31-5.08,2.52c-0.2,0.05-0.39,0.08-0.58,0.1
			c0,1.02,0,2.03,0,3.05v0c-0.03,5.89,3.33,13.25,8.47,17.78v0c22.64,20.08,45.29,40.16,67.93,60.24c3.92,3.45,6.59,9.25,6.57,13.54
			v0c0,0.13,0,0.26,0,0.39V282c0.02,1.65-0.44,3.91-2.09,4.33c-0.34,0.08-0.71,0.09-1.08,0.05c-0.43-0.04-0.86-0.15-1.24-0.28
			l-0.01-0.01c-1.62,0.7-2.56,1.92-2.88,3.29c-0.06,0.23-0.08,0.47-0.08,0.71L277.16,291.01L277.16,291.01z"/>
		<path class="st27" d="M281.35,286.39c-0.12-0.22-0.29-0.4-0.5-0.53c-0.07-0.04-0.15-0.08-0.22-0.11
			c-0.41-0.14-0.88-0.04-1.29,0.14c-0.72,0.31-1.25,0.86-1.69,1.49c-0.64,0.91-1.11,1.98-1.09,3.06l0.14,7.93l0.59-0.35l-0.07-3.94
			l-0.05-3.07l-0.02-0.92c0-0.24,0.02-0.48,0.08-0.71c0.32-1.37,1.26-2.59,2.88-3.29l0.01,0.01
			C280.5,286.24,280.93,286.34,281.35,286.39z"/>
		<path class="st17" d="M280.63,285.75c0.08,0.03,0.15,0.06,0.22,0.11l0,0c-4.4-2.54-8.79-5.07-13.18-7.61
			c-0.42-0.24-0.95-0.17-1.44,0.02v0c-0.1,0.04-0.2,0.08-0.29,0.13c-1.27,0.66-2.59,2.7-2.56,4.44l0,0.31l0.09,5.43l0.04,2.19
			l13.18,7.61l-0.14-7.93c-0.02-1.08,0.45-2.15,1.09-3.06c0.45-0.63,0.97-1.18,1.69-1.49C279.75,285.71,280.22,285.61,280.63,285.75
			z"/>
		<path class="st4" d="M295.85,140.44c-0.14-0.18-0.2-0.42-0.18-0.63c0-0.01,0-0.02,0-0.03c0.06-0.49,0.11-0.98,0.17-1.48
			c-1.35-0.78-29.91-15.98-31.27-16.77v4.36L290,140.06c1.62-0.02,5.04,0.73,6.63,0.95l0.03-0.2
			C296.33,140.79,296.03,140.68,295.85,140.44z"/>
		<path class="st4" d="M296.63,141.01c2.5,0.33,4.92,0.94,7.11,1.86c-1.63-0.95-3.28-1.89-4.91-2.84c0,0.04-0.01,0.07-0.01,0.11h0
			c0,0.05-0.03,0.09-0.1,0.14c-0.09,0.06-0.23,0.13-0.33,0.17c-0.47,0.2-1.16,0.4-1.72,0.37L296.63,141.01z"/>
		<path class="st4" d="M298.84,140.03c0.82-7.05,1.63-14.11,2.44-21.16c-1-0.58-2-1.15-3-1.73c-0.82,7.05-1.63,14.11-2.44,21.16
			c-0.06,0.49-0.11,0.98-0.17,1.48c0,0.01,0,0.02,0,0.03c-0.02,0.22,0.04,0.45,0.18,0.63c0.18,0.24,0.48,0.35,0.82,0.37
			c0.57,0.04,1.25-0.17,1.72-0.37c0.1-0.04,0.24-0.11,0.33-0.17c0.07-0.05,0.1-0.09,0.1-0.14h0
			C298.83,140.1,298.83,140.07,298.84,140.03z"/>
		<path class="st4" d="M311.95,190.56c0,0.68,0,1.35,0,2.02c0.94-0.54,1.89-1.09,2.83-1.63c0.1-0.73,0.2-1.46,0.3-2.19
			C314.04,189.36,313,189.96,311.95,190.56z"/>
		<path class="st4" d="M314.32,253.36c0-1.74,1.31-3.74,2.58-4.39c0.09-0.05,0.18-0.09,0.28-0.12l0-0.01
			c-16.64-9.6-33.27-19.21-49.9-28.81c-0.64,0.37-1.28,0.74-1.91,1.11h0c-2.07,1.21-3.94,1.4-5.34,0.85v0.38
			c1.38,0.8,2.76,1.59,4.14,2.39c16.73,9.66,33.45,19.32,50.18,28.97V253.36z"/>
		<path class="st4" d="M322.48,179.72c-0.47,1.93-1.86,4.45-3.85,6.46c-0.12,0.92-0.25,1.85-0.37,2.77c1.44-0.83,2.88-1.67,4.33-2.5
			v0c1.3-1.73,2.47-3.89,2.98-5.96v0c1.07-4.27,2.14-8.54,3.2-12.81c-1.28,0.73-2.55,1.47-3.82,2.2
			C324.12,173.16,323.3,176.44,322.48,179.72z"/>
		<path class="st25" d="M330.72,271.8c1.6-0.91,2.17-2.89,2.17-4.78c0-1.06-0.17-2.15-0.45-3.2c-0.11-0.4-0.23-0.8-0.37-1.19
			c-1.26-0.08-2.6-0.42-3.97-1.04v3.22c0.52,1.42,0.86,3,0.86,4.49c0,2.48-0.89,4.04-2.17,4.77l0,0.01
			C328.1,273.32,329.41,272.57,330.72,271.8L330.72,271.8z"/>
		<path class="st26" d="M314.32,259.2c-0.94,4.91,2.85,12.13,7.68,14.6c0.87,0.45,1.82,0.77,2.8,0.77c0.71,0,1.39-0.16,1.98-0.5
			c1.28-0.74,2.17-2.29,2.17-4.77c0-1.49-0.34-3.07-0.86-4.49v3.89l-0.59,0.34l-13.18-7.61V259.2z"/>
		<path class="st4" d="M297.81,210.9c8.83,7.83,22.25,19.93,31.09,27.76c3.92,3.45,6.59,9.25,6.57,13.54v0c0,0.13,0,0.26,0,0.38
			v0.01c0.02,1.67-0.45,3.91-2.09,4.33c-0.34,0.08-0.71,0.09-1.08,0.05c-0.44-0.05-0.88-0.16-1.27-0.29l0,0.01
			c-1.02,0.45-1.8,1.1-2.32,1.96c-0.35,0.57-0.62,1.31-0.62,1.99v0.96c1.37,0.62,2.71,0.96,3.97,1.04c0.14,0.01,0.26,0.02,0.4,0.02
			c4.98,0.12,8.71-3.8,8.67-10.07c0,0,0,0,0-0.01c0-0.12,0-0.25,0-0.37v0c0.03-6.39-3.77-13.63-8.47-17.77l0,0
			c-6.83-6.06-13.66-12.11-20.5-18.17c-1.56,0.68-3.55,0.52-5.59-0.67c-0.01,0-0.01,0-0.02-0.01c0,0,0,0,0,0
			c-0.71-0.41-6.21-8.81-6.91-9.22l-1.38,0.87C297.59,207.52,298.49,210.65,297.81,210.9z"/>
		<path class="st4" d="M329.42,159.35c0.48-0.07,1.01-0.23,1.3-0.37c0.09-0.05,0.24-0.12,0.26-0.22l0,0
			c0.01-0.05,0.02-0.09,0.03-0.14c1.64-6.58,3.29-13.15,4.93-19.73c-0.95-0.55-1.91-1.1-2.86-1.65c-1.64,6.57-3.28,13.15-4.93,19.73
			c-0.1,0.42-0.21,0.83-0.31,1.24h0c-0.15,0.43,0.06,0.99,0.72,1.14C328.85,159.4,329.15,159.39,329.42,159.35z"/>
		<path class="st4" d="M330.72,158.97c-0.29,0.14-0.83,0.31-1.3,0.37c-0.27,0.04-0.57,0.06-0.85,0c-0.66-0.14-0.86-0.71-0.72-1.14h0
			c0.1-0.42,0.21-0.83,0.31-1.24c-6.64-3.83-13.28-7.66-19.92-11.5c2.5,2.01-41.41-25.3-41.49-22.84c0,0.65-0.73,3.71-0.73,4.36
			c4.72,2.72,55.35,32.78,60.07,35.5c1.94-1.12,3.88-2.24,5.82-3.36c-0.3-0.17-0.59-0.34-0.89-0.51c-0.01,0.05-0.02,0.09-0.03,0.14
			l0,0C330.96,158.85,330.81,158.93,330.72,158.97z"/>
		<path class="st27" d="M330.3,256.47c-0.71,0.31-1.24,0.85-1.69,1.48c-0.64,0.89-1.11,1.95-1.11,3.02v8.06l0.59-0.34v-3.89v-3.22
			v-0.96c0-0.68,0.27-1.42,0.62-1.99c0.52-0.86,1.29-1.51,2.32-1.96l0-0.01c0.39,0.14,0.83,0.25,1.27,0.29
			c-0.11-0.21-0.29-0.4-0.49-0.52c-0.07-0.05-0.14-0.08-0.22-0.11C331.17,256.2,330.71,256.3,330.3,256.47z"/>
		<path class="st17" d="M331.8,256.44c-4.4-2.54-8.79-5.07-13.18-7.61c-0.42-0.24-0.96-0.17-1.44,0.02
			c-0.09,0.03-0.19,0.08-0.28,0.12c-1.27,0.65-2.58,2.66-2.58,4.39v0.36v5.48v2.23l13.18,7.61v-8.06c0-1.07,0.47-2.13,1.11-3.02
			c0.45-0.63,0.97-1.17,1.69-1.48c0.41-0.18,0.87-0.28,1.28-0.13C331.65,256.37,331.73,256.41,331.8,256.44L331.8,256.44z"/>
		<path class="st4" d="M331.91,165.85c1.15,0.66,2.3,1.33,3.45,1.99c0.19-1.44,0.39-2.88,0.58-4.32
			C334.6,164.3,333.26,165.07,331.91,165.85z"/>
		<path class="st27" d="M332.06,262.64c0.14,0.39,0.26,0.79,0.37,1.19h0l0.02-1.18C332.33,262.65,332.2,262.64,332.06,262.64z"/>
		<path class="st4" d="M334.36,181.28c0.71,0.45,1.72,0.81,2.23,0.15c0.11-0.13,0.18-0.3,0.21-0.48c0.01-0.04,0.02-0.08,0.02-0.13
			c0.12-0.94,0.25-1.87,0.38-2.81c0.38-2.82,0.76-5.63,1.14-8.45c0.28-2.08,0.56-4.16,0.84-6.23c0.08-0.6,0.17-1.2,0.25-1.81
			c-1.16,0.67-2.32,1.34-3.48,2.01c-0.19,1.44-0.39,2.88-0.58,4.32c-0.55,4.06-1.09,8.12-1.64,12.17c-0.02,0.16-0.04,0.33-0.06,0.49
			h0c0,0.15,0.11,0.3,0.28,0.45C334.07,181.07,334.22,181.19,334.36,181.28z"/>
		<g>
			<g>
				<path class="st28" d="M283.96,111.51c-2.53,1.46-5.05,2.92-7.58,4.37c0-1.82-0.01-3.64-0.01-5.48
					C278.9,110.77,281.44,111.14,283.96,111.51z"/>
				<path class="st29" d="M276.25,121.87c0.2-0.14,0.41-0.26,0.65-0.28c0.14-0.07,0.6,0.01,0.87,0.29c0.34,0.38,0.34,1.07,0.24,1.53
					C277.46,122.71,276.65,122.07,276.25,121.87z"/>
				<path class="st30" d="M274.47,106.02c1.08,2.49,1.66,3.84,1.9,4.38c0,1.83,0.01,3.66,0.01,5.48c-0.8,0.47-1.6,0.93-2.4,1.39
					C274.32,109.49,274.36,108.83,274.47,106.02z"/>
				<path class="st29" d="M275.99,125.75c-0.37,0.06-0.75-0.12-0.95-0.52c0.15-0.04,0.31-0.08,0.43-0.15
					C275.71,125.31,275.81,125.47,275.99,125.75z"/>
				<path class="st29" d="M275.04,125.23c-0.07-0.13-0.15-0.4-0.15-0.68c0.14,0.11,0.44,0.33,0.59,0.53
					C275.35,125.15,275.19,125.19,275.04,125.23z"/>
				<path class="st31" d="M274.76,122.5c1.02-1.87,3.22-2.9,3.98-0.93c0.28,0.75,0.06,1.8-0.22,2.55l-0.01,0.01
					c-0.15-0.26-0.32-0.49-0.51-0.73c0.2-0.88-0.04-1.8-0.95-1.85c-0.05,0-0.11,0-0.15,0.02c-0.24,0.02-0.45,0.14-0.65,0.28
					c-0.26,0.16-0.68,0.57-0.99,1.15c-0.31,0.58-0.38,1.03-0.38,1.54c0.05,0.93,0.6,1.27,1.1,1.19c0.1,0.21,0.14,0.19,0.43,0.85
					C274.35,127.54,273.3,125.22,274.76,122.5z"/>
				<path class="st28" d="M274.47,106.02c-0.11,2.82-0.15,3.52-0.48,11.25c-10.27,5.92-20.55,11.85-30.82,17.78
					c-0.53-1.22-1.79-4.14-1.89-4.38c-2.54-0.36-5.07-0.73-7.59-1.09C247.27,121.73,260.87,113.88,274.47,106.02z"/>
				<path class="st32" d="M274.09,125.01c0.02,0.68,0.23,1.37,0.85,1.66c-0.34-0.16-0.67-0.34-1.01-0.51
					c-0.14-0.07-0.26-0.18-0.38-0.31c-0.87-1.06-0.43-2.76,0.32-4.01c0.38-0.65,0.83-1.21,1.53-1.56c0.51-0.26,1.13-0.39,1.61-0.14
					c0.31,0.14,0.59,0.31,0.89,0.46c-0.74-0.3-2.18,0.16-3.14,1.9C274.35,123.27,274.05,124.14,274.09,125.01z"/>
				<path class="st29" d="M257.07,132.91c0.31-0.04,0.63,0.06,0.85,0.27c0.34,0.36,0.35,1.02,0.25,1.52
					c-0.2-0.24-0.41-0.46-0.63-0.67c-0.51-0.45-0.22-0.12-0.35-0.8C257.15,133.12,257.12,133,257.07,132.91z"/>
				<path class="st29" d="M257.4,134.03c-0.26-0.21-0.71-0.69-1-0.85c0.19-0.14,0.44-0.27,0.67-0.27
					C257.19,133.14,257.41,133.77,257.4,134.03z"/>
				<path class="st33" d="M256.4,133.18c0.88,0.51,1.59,1.24,2.2,2.06c0.04,0.05,0.06,0.09,0.09,0.14c0,0,0.01,0,0,0.01
					c2.52,3.4,3.75,10.84,6.56,12.55c0.68,0.42,1.28,0.4,2.03,0.28c0.83-0.18,1.39-0.49,2.03-0.81c0-0.01,0.01-0.01,0.01-0.01
					c0.11-0.04,1.19-0.72,1.69-1.15c6.96-5.48,8.08-18.46,3.87-21.7c-0.04-0.93,0.48-1.96,1.2-2.56c0.2-0.15,0.13-0.13,0.25-0.07
					c5.95,3.6,5.57,19.01-3.08,26.39c-2.27,1.93-5.59,3.67-8.43,2.73c-5.65-1.77-6.08-12.44-9.79-15.18
					C255.04,134.8,255.65,133.68,256.4,133.18z"/>
				<path class="st29" d="M256.2,137.06c-0.34,0.05-0.78-0.1-1.02-0.52c0.18-0.03,0.26-0.05,0.47-0.16
					C255.68,136.41,256.2,137.01,256.2,137.06z"/>
				<path class="st29" d="M255.65,136.37c-0.22,0.13-0.32,0.14-0.47,0.16c-0.11-0.2-0.14-0.45-0.14-0.68
					C255.37,136.09,255.5,136.23,255.65,136.37z"/>
				<path class="st28" d="M286.57,111.09c-27.23,15.71-34.65,20.01-44.13,25.48l2.63,55.8l44.13-25.47L286.57,111.09z
					 M275.48,146.01c-1.47,1.81-2.74,2.81-4.5,3.91c-0.12,0-1.74,1.12-3.74,1.34c-6.81,0.74-7.93-9.1-10.53-13.42
					c-0.43,0.24-1.02,0.38-1.47,0.2c-0.06-0.02-0.12-0.05-0.16-0.08l-0.01,0.01c-0.12-0.06-0.48-0.26-0.98-0.51
					c-0.59-0.31-0.87-0.87-0.85-1.69c0.06-1.67,0.74-3.01,2.06-4.02c0.58-0.45,1.21-0.63,1.87-0.31c0.34,0.18,0.67,0.34,1.01,0.52
					l-0.01,0.04c1.06,0.39,1,2.23,0.53,3.37c0,0,0.01,0,0,0.01c1.89,2.55,3.05,7.39,4.82,10.57c1.1,1.86,2.25,2.81,4.29,2.13
					c1.71-0.49,4.48-2.38,6.38-5.38c3.44-5.36,3.89-12.49,2.25-16.1c-1.06,0.48-1.37,0.11-2.5-0.43c-0.14-0.07-0.26-0.18-0.38-0.31
					c-0.87-1.06-0.43-2.76,0.32-4.01c0.38-0.65,0.83-1.21,1.53-1.56c0.51-0.26,1.13-0.39,1.61-0.14c0.31,0.14,0.59,0.31,0.89,0.46
					c0.39,0.16,0.68,0.55,0.85,0.98c0.28,0.75,0.06,1.8-0.22,2.55l-0.01,0.01c0.05,0.05,0.07,0.11,0.11,0.15
					C281.82,129.55,280.46,140.03,275.48,146.01z"/>
				<path class="st31" d="M257.03,131.91c0.57-0.13,1.14,0.02,1.46,0.29c0.74,0.67,0.61,2.2,0.2,3.17
					c-0.09-0.12-0.05-0.12-0.53-0.68c0.1-0.5,0.08-1.17-0.25-1.52c-0.21-0.21-0.54-0.31-0.85-0.27c-0.33,0-0.64,0.23-0.88,0.43
					c-1.12,1-1.34,2.57-1.01,3.2c0.23,0.41,0.68,0.57,1.02,0.52c0.11,0.15,0.22,0.28,0.51,0.79c-1.69,0.92-2.94-0.48-2.39-2.48
					C254.79,133.37,256.13,132.12,257.03,131.91z"/>
				<path class="st32" d="M255.76,132.71c-0.76,0.76-1.2,1.62-1.45,2.66c-0.11,0.49-0.15,1.01-0.01,1.5
					c0.12,0.45,0.39,0.87,0.76,1.09l-0.01,0.01c-0.12-0.06-0.5-0.27-0.98-0.51c-0.59-0.31-0.87-0.87-0.85-1.69
					c0.06-1.67,0.74-3.01,2.06-4.02c0.58-0.45,1.21-0.63,1.87-0.31c0.34,0.18,0.67,0.34,1.01,0.52l-0.01,0.04
					c-0.34-0.15-0.76-0.18-1.13-0.09C256.53,132.02,256.12,132.34,255.76,132.71z"/>
				<polygon class="st30" points="242.45,136.57 245.08,192.37 240.17,185.6 240.17,131.31 				"/>
				<path class="st34" d="M240.17,131.31l-9.1-1.32l44.13-25.47l2.27,5.25l9.11,1.32c-27.23,15.71-34.65,20.01-44.13,25.48
					L240.17,131.31z M233.68,129.58c2.53,0.36,5.05,0.73,7.59,1.09c0.11,0.25,1.36,3.16,1.89,4.38c7.18-4.15,36.3-20.95,40.8-23.54
					c-2.53-0.38-5.07-0.74-7.59-1.1c-0.24-0.53-0.6-1.37-1.9-4.38C260.87,113.88,247.27,121.73,233.68,129.58z"/>
				<polygon class="st28" points="240.17,131.31 240.17,185.6 228.43,182.77 231.07,129.99 				"/>
			</g>
			<path class="st35" d="M304.49,158.18c-7.74-0.9-15.82-2.17-15.82-2.17l-2.1-44.92c0,0-20.27,11.78-27.68,15.93
				c-3.06,1.71-5.98,3.7-9.36,4.89c0.26-0.64,3.14-2.34,3.14-2.34l21.31-12.3l2.4-1.39c0,0-1.76-9.43-1.92-9.86l-40.79,23.56
				c0.39-0.09,7.26,1.52,9.49,5.48c1.79,3.19,1.35,10.17,0.7,22.28c-0.08,1.54-1.48,2.68-3.01,2.44c-2.43-0.39-2.31,1.58-2.31,1.58
				l1.62,0.49l4.48,19.73l0.43,10.81c0,0,21.48,3.84,28.24,3.56c4.38-0.18,8.41-1.35,12.06-3.81c1.87-1.27,3.35-2.82,3.41-5.26
				c2.11-1.22,4.15-2.45,6.21-3.62c4.91-2.8,9.47-6.31,15.25-7.3c0.39-0.06,0.74-0.26,1.11-0.4c1.06-0.39,1.87-0.92,2.27-2.14
				c0.08-0.25,0.24-1.72,0.38-3.64C314.44,163.97,310.25,158.85,304.49,158.18z M257.92,192.79c1.74-0.71,7.67-1.14,11.76-0.71
				C265.93,193.55,262.14,194.51,257.92,192.79z M278.24,138.11c-0.1-0.51-0.27-1.05-0.29-1.56c-0.08-3.67-0.34-7.3-1.43-10.84
				c-0.34-1.11-0.26-2.11,0.84-2.85c1.17,1.26,1.95,2.89,1.95,2.89C279.98,130.04,279.98,133.9,278.24,138.11z"/>
			<g>
				<path class="st36" d="M247.85,132.06L247.85,132.06c-1.05,0.6-0.99,0.57-1,0.57C247.17,131.69,247.55,131.12,247.85,132.06z"/>
				<path class="st37" d="M246.03,162.03c-0.03,0.1-0.04,0.16-0.1,0.24c-0.12,0.14-0.3,0.19-0.45,0.17
					c-7.27-1.13-6.84-1.05-6.92-1.08c-0.11-0.04-0.18-0.13-0.22-0.22c-0.31-1.26-0.67-5.82-0.76-7.13
					c-0.41-6.14-0.37-12.58,0.68-18.67c0.2-1.14,0.67-3.64,1.21-4.7c0.2-0.38,0.46-0.7,0.88-0.63c7.46,1.15,6.95,1.02,7.2,1.24
					c0.21,0.2,0.3,0.51,0.37,0.78l-0.07,0.04c-0.4-1.28-0.93,0.22-1.28,1.52c-0.52,1.99-0.93,4.74-1.15,6.81
					C244.35,150.72,245.94,162.32,246.03,162.03z"/>
			</g>
		</g>
		<g>
			<g>
				<g>
					<polygon class="st12" points="312.72,140.67 312.72,148.73 308.54,144.69 					"/>
					<path class="st38" d="M310.68,141.34c-0.27,0.26-3.22,3.09-3.49,3.35c0,1.12,0.01,2.24,0.01,3.36c-14.36,0-28.71,0-43.07,0
						c0.01-1.12,0.01-2.24,0.01-3.36c-1.16-1.12-2.32-2.24-3.49-3.35C277.33,141.34,294,141.34,310.68,141.34z"/>
					<path class="st12" d="M310.68,148.06c-1.16,0-2.31,0-3.48,0c0-1.12-0.01-2.24-0.01-3.36
						C308.35,145.81,309.51,146.94,310.68,148.06z"/>
					<path class="st39" d="M300.07,155.46c0-0.32,0.02-0.45,0.02-0.67c0-1.21,0.06-1.33-0.08-1.63c-0.08-0.17-0.18-0.31-0.33-0.42
						C301.01,153.37,301.04,154.74,300.07,155.46z"/>
					<path class="st40" d="M295.87,154.17c0.02-1.46,1.88-3,3.96-2.29c1.23,0.41,1.87,1.32,1.9,2.31c0,1.08-0.87,1.94-1.71,2.26
						c0-0.04,0.05-0.67,0.05-1c0.23-0.17,0.44-0.41,0.56-0.68c0.62-1.44-1.23-2.71-2.68-2.06h-0.01c-1.27,0.63-1.43,1.94-0.48,2.68
						c0,0.1-0.02,0.68-0.05,1C296.5,155.98,295.87,155.15,295.87,154.17z"/>
					<path class="st41" d="M297.51,151.97c-0.89,0.41-1.63,1.28-1.64,2.2c0-0.2,0-0.42,0-0.62c0-0.49,0.22-1.25,0.97-1.86
						c1.06-0.83,2.83-0.87,3.94,0.02c0.55,0.45,0.95,1.14,0.95,1.82c0,0.22,0,0.44,0,0.65C301.68,152.2,299.22,151.18,297.51,151.97
						z"/>
					<path class="st38" d="M258.61,148.73c0,40.03,0,26.94,0,48.94h54.11c0-14.27,0-26.9,0-48.94
						C297.06,148.73,287.26,148.73,258.61,148.73z M301.73,154.19c0,1.08-0.87,1.94-1.71,2.26c-0.28,5.07-1.73,10.72-5.64,13.9
						c-3.01,2.41-6.91,3.02-10.68,2.29c-7.48-1.59-10.02-8.63-10.48-16.33c-0.83-0.33-1.69-1.18-1.69-2.25c0-0.21,0-0.43,0-0.65
						c0-0.68,0.41-1.39,0.96-1.83c1.04-0.85,2.87-0.87,3.95,0c0.55,0.45,0.95,1.15,0.95,1.83v0.65c0,0.98-0.68,1.83-1.56,2.2
						c0,0.65,0.2,2.93,0.67,4.95c0.85,3.72,2.83,7.37,6.47,8.53c2.29,0.83,5.72,0.82,8.25-0.44c3.66-1.83,5.22-6.02,5.88-10.07
						c0.01-0.1,0.31-2.09,0.31-2.85c-0.88-0.4-1.54-1.23-1.54-2.19c0-0.28,0-0.38,0-0.65c0-0.49,0.22-1.25,0.97-1.85
						c1.06-0.82,2.83-0.87,3.94,0.02c0.55,0.45,0.95,1.14,0.95,1.82C301.73,153.76,301.73,153.98,301.73,154.19z"/>
					<path class="st39" d="M275.76,153.45c0-0.36-0.19-0.67-0.45-0.87c0.55,0.22,1.1,0.86,1.1,1.49c0,0.39-0.19,0.88-0.62,1.21
						C275.78,155.15,275.76,153.59,275.76,153.45z"/>
					<path class="st42" d="M297.49,154.71c0-0.03,0-0.05,0-0.08c0,0.04,0,0.09-0.01,0.13C297.48,155.24,297.47,154.83,297.49,154.71
						z M273.17,154.65c0-1.23-0.06-1.32,0.08-1.62c0.07-0.16,0.17-0.3,0.3-0.41c0.5-0.25,1.17-0.31,1.76-0.04
						c0.28,0.21,0.45,0.52,0.45,0.89c0,2.69,0.14,5.15,0.74,7.76c1.18,5.19,4.11,8.86,9.39,9.08c5.46,0.32,9.82-2.53,11.21-11.06
						c0.02-0.12,0.26-1.7,0.31-2.83c0-0.09,0.05-0.7,0.05-1.02c-0.41-0.32-0.61-0.77-0.61-1.21c0.02-1.02,1.34-2.01,2.68-1.51
						c0.05,0.02,0.1,0.04,0.15,0.06c0.14,0.11,0.24,0.24,0.33,0.42c0.14,0.31,0.08,0.43,0.08,1.63c0,2.6-0.5,6.42-1.41,8.96
						c-1.73,5.19-5.29,8.67-10.78,9.13C277.38,173.73,273.17,165.06,273.17,154.65z"/>
					<path class="st39" d="M273.54,152.62c-0.26,0.24-0.39,0.55-0.39,0.8c0,0.6,0,1.33,0.03,1.9h-0.01
						C272.23,154.61,272.25,153.25,273.54,152.62z"/>
					<path class="st40" d="M271.53,154.07c0.03-1.14,0.84-1.98,1.92-2.33c2.16-0.66,3.94,0.91,3.94,2.33c0,0.97-0.68,1.83-1.56,2.2
						c-0.01-0.21-0.02-0.45-0.03-0.66c0-0.48-0.1-0.19,0.24-0.57c0.24-0.27,0.37-0.67,0.37-0.97c0-0.63-0.55-1.27-1.1-1.49
						c-1.44-0.66-3.29,0.63-2.68,2.05c0.11,0.28,0.32,0.51,0.55,0.68h0.01c0,0.75,0.03,0.9,0.03,1.01
						C272.38,155.99,271.53,155.14,271.53,154.07z"/>
					<path class="st41" d="M271.53,153.42c0-0.68,0.41-1.39,0.96-1.83c0.55-0.45,1.26-0.64,1.98-0.64c1.82,0,2.93,1.28,2.93,2.48
						v0.65c0-0.91-0.73-1.8-1.61-2.21c-1.75-0.83-4.2,0.23-4.25,2.21C271.53,153.86,271.53,153.64,271.53,153.42z"/>
					<path class="st12" d="M264.14,144.69c0,1.12,0,2.24-0.01,3.36c-1.16,0-2.31,0-3.48,0C264.43,144.4,263.69,145.14,264.14,144.69
						z"/>
					<polygon class="st12" points="262.79,144.69 258.61,148.73 258.61,140.67 					"/>
					<path class="st43" d="M260.65,148.06c25.91,0,35.22,0,50.03,0c-1.16-1.12-2.32-2.24-3.49-3.36c0.26-0.26,3.22-3.1,3.49-3.35
						c-16.68,0-33.35,0-50.03,0c1.16,1.11,2.32,2.23,3.49,3.35C263.66,145.17,264.5,144.33,260.65,148.06z M258.61,148.73l4.18-4.04
						l-4.18-4.03h54.11l-4.19,4.03l4.19,4.04C293.37,148.73,278.28,148.73,258.61,148.73z"/>
				</g>
				<g>
					<path class="st44" d="M258.62,176.51c0.01-0.34,0.01-4.95,0.01-10.27v11.56C258.62,177.36,258.6,176.94,258.62,176.51z"/>
				</g>
			</g>
		</g>
		<path class="st1" d="M333.95,193.46c0.67-1.8,1.4-3.65,1.87-5.69c-3.48-0.2,3.35,0.2,0,0c-2.36-0.14-4.85,0.14-6.65-2
			c-0.24-0.29-0.75-0.41-1.17-0.5c-1.51-0.34-3-0.81-4.54-0.92c-2.75-0.2-5.53-0.14-8.3-0.22c-0.66-0.01-2.54-0.36-2.54-0.36
			s0.29-31.08,0.11-35.04c-0.41,0-54.11,0-54.11,0s0.02,27.43,0.01,27.78c-0.01,0.43,0,0.85,0.01,1.29c0.01,1.16,0.08,2.32,0,3.52
			v8.4c0.03,0.87,0.01,1.73,0,2.6v2.75c0.01,1.06,0.07,2.11,0.21,3.19c1.13,0.04,2.15,0.1,3.17,0.1
			c12.89,0.01,25.78-0.03,38.67,0.01c8.37,0.03,16.74-0.01,25.09-0.85c0.36-0.04,0.75,0.1,1.36,0.2c-1.68,1.05-3.14,1.44-5.55,1.48
			c-12.27,0.22-13.47,0.13-14.78,0.29c-0.25,0.03-0.46,0.35-0.75,0.59c0.88,0.77,1.76,0.52,2.58,0.52
			c3.72,0.03,7.43,0.03,11.16,0.01c1.47-0.01,2.95-0.01,4.4-0.2c2.14-0.28,4.39-0.52,5.97-2.17c0.7-0.74,1.37-0.89,2.25-0.94
			c11.92-0.56-3.88,0.53,0,0C331,195.9,335.04,194.56,333.95,193.46z M271.72,152.93c1.91-2.31,3.24-2.38,5.39-0.24
			C275.13,151.73,273.59,151.74,271.72,152.93z M300.1,155.71c-0.75,2.92-1.42,5.87-2.33,8.73c-0.8,2.49-2.12,4.72-4.33,6.27
			c-1.96,1.37-4.09,2.12-6.73,1.91c0.13-1.87,0.11-1.94,1.66-2.12c3.41-0.41,5.78-2.25,7.14-5.28c0.82-1.86,1.34-3.9,1.8-5.9
			c0.32-1.41,0.32-2.91,0.48-4.36c0.03-0.25-0.01-0.61,0.14-0.74c0.35-0.32,0.81-0.74,1.2-0.71c0.36,0.03,0.81,0.53,0.99,0.92
			C300.26,154.79,300.19,155.3,300.1,155.71z M297.09,152.19c1.38-1.31,2.36-1.33,3.97,0H297.09z M320.14,186.81
			c-2.25,0-4.62,0.34-7.22-0.89c4.75-0.87,11.19-0.41,14.19,1.01C324.6,187.71,322.37,186.81,320.14,186.81z"/>
		<path class="st4" d="M226.03,181.66c0.62,0.2,1.51-0.23,2.02-0.6c0.19-0.14,0.48-0.38,0.48-0.62c0,0,0,0,0-0.01
			c-0.02-0.16-0.05-0.32-0.06-0.48c-0.73-5.51-1.46-11.02-2.2-16.52c-1.16-0.67-2.31-1.34-3.47-2c0.29,2.17,0.58,4.34,0.87,6.51
			c0.45,3.34,0.89,6.67,1.34,10.01c0.12,0.95,0.25,1.91,0.38,2.86c0,0,0,0.01,0,0.02C225.43,181.2,225.65,181.54,226.03,181.66z"/>
		<path class="st4" d="M260.69,199.03c0-0.15,0-0.31,0-0.46c0.01-2.46,0.01-4.93,0.02-7.4c0-2.61,0.01-5.22,0.02-7.83
			c-1.06-0.61-2.12-1.22-3.17-1.83c-0.01,3.83-0.02,7.67-0.03,11.5c0,1.24,0,2.49-0.01,3.73c0,0.84,0,1.68-0.01,2.52h0
			c0,0.17,0.03,0.34,0.11,0.48c0.28,0.58,0.92,0.62,1.54,0.44C259.68,200.03,260.69,199.51,260.69,199.03L260.69,199.03z"/>
		<path class="st4" d="M333.09,137.24c0.95,0.55,1.91,1.1,2.86,1.65c4.51,2.6,9.02,5.21,13.54,7.82l0,0c0.35,0.2,0.74,0.48,0.99,0.8
			c0.19,0.25,0.17,0.32,0.17,0.33c0,0.01,0,0.02-0.01,0.05c-0.06,0.2-0.31,0.46-0.47,0.6c-0.17,0.15-0.42,0.33-0.69,0.49l0,0
			c-5.86,3.38-11.71,6.76-17.57,10.14c-1.94,1.12-3.88,2.24-5.82,3.36c-4.71,2.72-9.43,5.45-14.14,8.17
			c-8.63,4.98-17.25,9.96-25.88,14.95l-0.01,0c-2.5,1.47-7.19,1.51-9.76,0l-0.01,0c-1.29-0.75-2.59-1.49-3.89-2.25
			c-8.72-5.03-17.44-10.07-26.16-15.1c-7.53-4.34-15.06-8.69-22.59-13.04c-1.27-0.74-2.54-1.47-3.82-2.2
			c-5.82-3.36-11.65-6.72-17.47-10.08c-1.42-0.82-2.84-1.64-4.26-2.46c-1.94-1.12-3.88-2.24-5.82-3.36h0
			c-0.78-0.45-1.56-0.91-2.34-1.35c-1.14-0.66-2.29-1.32-3.43-1.98v0c-3.94-2.28-7.88-4.55-11.83-6.83l-0.01,0
			c-0.35-0.2-0.74-0.48-0.99-0.8c-0.19-0.25-0.17-0.32-0.17-0.33c0-0.01,0-0.02,0.01-0.05c0.06-0.2,0.31-0.46,0.46-0.6
			c0.17-0.15,0.42-0.33,0.69-0.49l0.01,0c3.36-1.94,6.73-3.88,10.09-5.82c1-0.58,2-1.15,3-1.73c4.86-2.81,9.73-5.62,14.59-8.42
			v-6.72c-9.19,5.31-18.39,10.61-27.58,15.92c0.12,0.49,0.24,0.98,0.36,1.47c0.15,0.71-0.07,1.66-0.68,1.86
			c-0.41,0.14-1.05-0.08-1.87-0.27c-0.58-0.14-1.52-0.33-2.12-0.32c-0.03,0-0.2,0.01-0.19,0.04c-1.55,1.31-2.59,3.1-2.59,5.13
			c0,2.65,1.75,4.86,4.08,6.18c0,0,0,0,0,0c4.89,2.83,9.79,5.65,14.69,8.48c1.35,0.78,2.71,1.57,4.07,2.35
			c1.16,0.67,2.31,1.34,3.47,2c2.79,1.61,5.57,3.22,8.35,4.82c5.82,3.36,11.64,6.72,17.47,10.08c0.98,0.57,1.97,1.14,2.95,1.7
			c1.16,0.67,2.31,1.34,3.47,2c6.66,3.85,13.32,7.69,19.98,11.54c3.77,2.18,7.54,4.36,11.31,6.53c1.06,0.61,2.12,1.22,3.17,1.83
			c2.26,1.3,4.51,2.61,6.77,3.91c1.63,0.94,3.27,1.89,4.9,2.83c0.32,0.19,0.65,0.37,0.97,0.56c0,0,0,0,0.01,0
			c4.35,2.56,11.3,2.52,15.59,0c0,0,0,0,0.01,0c3-1.73,5.99-3.46,8.99-5.19c1.16-0.67,2.31-1.34,3.47-2c3.5-2.02,7-4.05,10.51-6.06
			v0c1.68-0.97,3.37-1.94,5.05-2.91v0c1.16-0.67,2.32-1.34,3.48-2c1.49-0.86,2.97-1.72,4.46-2.58c1.27-0.74,2.55-1.47,3.82-2.2v0
			c1.05-0.6,2.1-1.21,3.15-1.82c1.34-0.77,2.69-1.55,4.03-2.32c1.16-0.67,2.32-1.34,3.48-2.01c4.32-2.49,8.65-4.99,12.97-7.49
			c0,0,0,0,0.01,0c2.3-1.31,4.08-3.51,4.08-6.18c0-2.65-1.75-4.86-4.08-6.18c0,0,0,0-0.01,0c-30.77-17.77-61.55-35.54-92.32-53.3
			v6.72c1.99,1.15,3.99,2.3,5.98,3.45c1,0.58,2,1.15,3,1.73c9.75,5.63,19.49,11.25,29.24,16.88c1,0.57,2,1.15,3,1.73
			C311.88,124.99,322.48,131.11,333.09,137.24z"/>
		<path class="st4" d="M336.59,181.42c-0.51,0.66-1.51,0.3-2.23-0.15c-0.14-0.09-0.3-0.2-0.43-0.32c-0.16-0.15-0.28-0.3-0.28-0.45h0
			c0.02-0.16,0.05-0.33,0.06-0.49c-3.71,2.15-7.43,4.29-11.14,6.43v0c-1.45,0.83-2.89,1.66-4.33,2.5c-0.13,0.96-0.26,1.93-0.39,2.89
			c-0.03,0.19-0.1,0.37-0.22,0.52c-0.51,0.66-1.51,0.29-2.23-0.15c-0.15-0.09-0.3-0.2-0.43-0.32c-0.16-0.15-0.28-0.3-0.28-0.45h0
			c0.02-0.16,0.05-0.32,0.06-0.49c-0.94,0.54-1.89,1.09-2.83,1.63c-4.24,2.45-8.48,4.9-12.73,7.35c-0.12,0.93-0.25,1.87-0.38,2.8
			c0,0,0,0,0,0c0,0.05-0.01,0.09-0.02,0.13c-0.03,0.18-0.11,0.34-0.21,0.48c-0.51,0.66-1.52,0.3-2.23-0.15
			c-0.25-0.16-0.71-0.49-0.71-0.78c0-0.01,0-0.03,0-0.04c0.02-0.15,0.04-0.29,0.06-0.44c-3.24,1.87-6.47,3.74-9.71,5.61l-0.01,0
			c-2.49,1.46-7.18,1.52-9.76,0l-0.01,0c-1.29-0.74-2.57-1.48-3.86-2.23c-3.9-2.25-7.81-4.51-11.71-6.76c0,0.15,0,0.31,0,0.46v0
			c0,0.48-1.02,1-1.53,1.15c-0.62,0.18-1.25,0.14-1.54-0.44c-0.07-0.14-0.11-0.31-0.11-0.48h0c0-0.84,0-1.68,0.01-2.52
			c-1.08-0.62-2.15-1.24-3.23-1.86c-2.68-1.55-5.37-3.1-8.05-4.65c-5.93-3.42-11.85-6.85-17.78-10.27c0.02,0.16,0.04,0.32,0.06,0.48
			c0,0,0,0,0,0.01c-0.01,0.24-0.29,0.48-0.48,0.62c-0.51,0.38-1.4,0.81-2.02,0.6c-0.38-0.12-0.6-0.46-0.65-0.83c0,0,0-0.01,0-0.02
			c-0.13-0.95-0.26-1.91-0.38-2.86h0c-0.45-0.26-0.89-0.51-1.33-0.77c-1.27-0.73-2.54-1.47-3.82-2.2
			c-5.82-3.36-11.64-6.72-17.47-10.08c-2.05-1.18-4.1-2.37-6.15-3.55h0c0.02,0.14,0.04,0.28,0.06,0.43
			c0.05,0.25-0.21,0.48-0.47,0.68c-0.51,0.38-1.4,0.81-2.02,0.6c-0.37-0.12-0.6-0.45-0.65-0.82c0-0.02,0-0.03-0.01-0.05
			c-0.12-0.95-0.25-1.89-0.38-2.84c-1.16-0.67-2.32-1.34-3.48-2.01c-2.73-1.58-5.46-3.16-8.2-4.73l-0.01,0
			c-0.35-0.2-0.74-0.48-0.99-0.8c-0.19-0.25-0.17-0.32-0.17-0.33c0-0.01,0-0.02,0.01-0.05c0.06-0.2,0.31-0.46,0.47-0.6
			c0.17-0.15,0.42-0.33,0.69-0.49l0.01,0c2.31-1.33,4.61-2.66,6.92-4c0.94-0.54,1.88-1.08,2.81-1.62c-0.08-0.63-0.17-1.25-0.25-1.88
			c-1.35-0.78-2.71-1.57-4.07-2.35c-2.77,1.6-5.55,3.2-8.32,4.8c-2.29,1.3-4.08,3.51-4.08,6.18c0,2.65,1.75,4.85,4.07,6.18
			c0,0,0,0,0.01,0c0,0,0,0,0.01,0c4.01,2.31,8.02,4.63,12.02,6.94c1.18,0.68,2.36,1.35,3.53,2.03c1.16,0.67,2.32,1.34,3.47,2v0
			c5.16,2.98,10.32,5.96,15.48,8.93c1.06,0.61,2.12,1.22,3.17,1.83c2.6,1.5,5.21,3.01,7.81,4.51c0.77,0.44,1.54,0.89,2.3,1.33
			c1.16,0.67,2.32,1.34,3.47,2c5.6,3.24,11.21,6.47,16.81,9.71c0.74,0.43,1.49,0.86,2.23,1.29c3.01,1.74,6.02,3.48,9.03,5.21
			c1.06,0.61,2.11,1.22,3.17,1.83c4.22,2.44,8.44,4.88,12.67,7.31c0,0,0,0,0.01,0c0.08,0.05,0.15,0.09,0.23,0.13
			c1.16,0.65,2.49,1.11,3.92,1.41c0.89,0.18,1.8,0.3,2.73,0.34c3.11,0.15,6.32-0.46,8.72-1.88c0,0,0,0,0.01,0
			c1.94-1.12,3.88-2.24,5.81-3.36v0c1.16-0.67,2.32-1.34,3.48-2c4.57-2.64,9.14-5.28,13.71-7.91c0.62-0.36,1.23-0.71,1.85-1.07
			c1.16-0.67,2.31-1.34,3.47-2v0c5.16-2.98,10.31-5.95,15.47-8.93c1.16-0.67,2.31-1.34,3.47-2c3.26-1.89,6.53-3.77,9.8-5.66
			c0,0,0,0,0.01,0c2.3-1.31,4.08-3.51,4.08-6.18c0-2.65-1.75-4.86-4.08-6.18c0,0,0,0-0.01,0c-2.28-1.32-4.56-2.63-6.84-3.95
			c-0.28,2.08-0.56,4.16-0.84,6.23c1.59,0.92,3.18,1.84,4.77,2.76l0.01,0c0.35,0.2,0.74,0.48,0.99,0.8
			c0.19,0.25,0.17,0.32,0.18,0.33c0,0.01,0,0.02-0.01,0.05c-0.06,0.2-0.31,0.46-0.46,0.6c-0.17,0.15-0.42,0.33-0.69,0.49l-0.01,0
			c-1.97,1.14-3.94,2.28-5.91,3.42c-0.12,0.94-0.25,1.87-0.38,2.81c0,0.05-0.01,0.09-0.02,0.13
			C336.77,181.13,336.7,181.29,336.59,181.42z"/>
		<path class="st4" d="M296.39,203.2c0.7,0.45,1.72,0.8,2.23,0.15c0.11-0.14,0.18-0.31,0.21-0.48c0.01-0.04,0.01-0.09,0.02-0.13
			c0,0,0,0,0,0c0.12-0.93,0.25-1.87,0.38-2.8c0.74-5.5,1.48-11,2.22-16.49c-1.16,0.67-2.31,1.34-3.47,2c-0.74,5.5-1.48,11-2.22,16.5
			c-0.02,0.15-0.04,0.29-0.06,0.44c0,0.01,0,0.03,0,0.04C295.68,202.72,296.14,203.04,296.39,203.2z"/>
		<path class="st4" d="M314.72,191.44c0,0.15,0.11,0.3,0.28,0.45c0.13,0.12,0.28,0.23,0.43,0.32c0.71,0.44,1.72,0.81,2.23,0.15
			c0.12-0.15,0.19-0.33,0.22-0.52c0.13-0.96,0.26-1.93,0.39-2.89c0.12-0.92,0.25-1.85,0.37-2.77c0.62-4.58,1.23-9.15,1.85-13.73
			c-1.16,0.67-2.32,1.34-3.48,2v0c-0.64,4.77-1.28,9.54-1.92,14.3c-0.1,0.73-0.2,1.46-0.3,2.19
			C314.76,191.11,314.74,191.28,314.72,191.44L314.72,191.44z"/>
		<path class="st4" d="M306.56,215.59c2.04,1.19,4.03,1.34,5.59,0.67c1.6-0.7,2.74-2.26,3.03-4.49c0,0,0,0,0-0.01
			c0.55-4.04,1.09-8.08,1.63-12.12c0.15-1.13,0.31-2.27,0.46-3.4c-1.16,0.66-2.31,1.33-3.47,2c-0.59,4.36-1.18,8.73-1.77,13.1v0.01
			c-0.08,0.6-0.29,1.29-0.72,1.71c-0.81,0.79-2.21,0.34-3.18-0.22l0,0c-0.17-0.1-8.33-6.37-8.5-6.47c-0.98,0.71,5.92,7.48,4.79,7.99
			c0.71,0.41,1.42,0.82,2.12,1.23c0,0,0,0,0,0C306.55,215.58,306.55,215.59,306.56,215.59z"/>
		<path class="st4" d="M317.27,196.24c-0.15,1.13-0.31,2.27-0.46,3.4c2.89,1.67,5.77,3.34,8.66,5h0c4.14,2.42,8.08,0.59,8.64-3.82v0
			c0.7-5.17,1.4-10.35,2.09-15.52c-1.16,0.67-2.31,1.34-3.47,2c-0.59,4.37-1.18,8.73-1.77,13.1v0c-0.08,0.6-0.29,1.29-0.72,1.71
			c-0.81,0.79-2.21,0.35-3.18-0.22v0C323.8,200.01,320.54,198.12,317.27,196.24z"/>
	</g>
	<g>
		<path class="st17" d="M202.62,380.69c0-0.53,0-1.05,0-1.58c32.4-18.7,30.73-17.64,31.13-18.17c0.21-0.28,0.34-0.6,0.36-0.95
			c0,0.53,0,1.07,0,1.6c0,0.48-0.33,0.98-0.71,1.31C233.17,363.07,235.75,361.57,202.62,380.69z"/>
		<polygon class="st45" points="221.9,359.18 217.77,361.57 205.34,354.4 209.49,352.01 		"/>
		<polygon class="st45" points="205.7,349.82 201.57,352.21 189.15,345.04 193.28,342.66 		"/>
		<path class="st15" d="M203.86,369.63c-0.91,0.05-1.67-0.1-2.27-0.46c-0.6-0.34-0.86-0.77-0.77-1.33c0.07-0.55,0.64-1.14,1.67-1.74
			c1.07-0.62,2.06-0.95,2.98-1c0.91-0.05,1.67,0.1,2.27,0.45c0.64,0.36,0.89,0.83,0.81,1.36c-0.1,0.55-0.69,1.15-1.81,1.79
			C205.72,369.28,204.77,369.59,203.86,369.63z"/>
		<path class="st46" d="M202.62,379.11c0,0.53,0,1.07,0,1.6l-11.05,6.37c0-0.53,0-1.07,0-1.58L202.62,379.11z"/>
		<path class="st47" d="M126.72,335.3c25.29,14.61,50.61,29.2,75.9,43.81l-11.05,6.38c-25.29-14.61-50.57-29.22-75.87-43.83
			L126.72,335.3z"/>
		<path class="st17" d="M201.59,369.16c0.6,0.36,1.36,0.52,2.27,0.46c0.91-0.03,1.86-0.34,2.87-0.93c1.12-0.64,1.7-1.24,1.81-1.79
			c0.09-0.53-0.17-1-0.81-1.36c-0.6-0.34-1.36-0.5-2.27-0.45c-0.91,0.05-1.91,0.38-2.98,1c-1.03,0.6-1.6,1.19-1.67,1.74
			C200.73,368.39,200.99,368.82,201.59,369.16z M199.32,366.82c0.79-1.27,2.88-2.21,4.35-2.56c2.05-0.49,3.9-0.13,5.08,0.57
			c0.76,0.43,1.34,1.08,1.12,1.93l4.01-2.32l1.38,0.79l-11.2,6.47l-1.27-0.74c2.45-1.39,0.1,0.29-2.44-1.2
			C199.15,369.06,198.57,367.99,199.32,366.82z"/>
		<path class="st17" d="M192.3,364.9l8.1-4.68l1.24,0.72l-1.22,0.71c0.88-0.15,1.55-0.21,2.01-0.15c0.95,0.11,1.74,0.54,2.12,1.43
			l-1.76,0.46c-0.39-1-1.91-1.29-3.05-0.93c-1.35,0.4-1.55,0.64-6.07,3.23L192.3,364.9z"/>
		<polygon class="st45" points="189.51,340.48 185.37,342.87 172.96,335.7 177.09,333.3 		"/>
		<path class="st15" d="M188.91,361.51c-0.79-0.13-2.53-0.74-2.62-1.53c-0.07-0.58,0.69-0.96,1.34-1.03
			c1.57-0.17,2.74,0.97,5.23,1.58C191.45,361.38,190.53,361.77,188.91,361.51z"/>
		<path class="st17" d="M188.62,358.99c-1.71-0.36-3.38,0.79-1.48,1.89c1.1,0.64,2.5,0.83,3.63,0.6c0.69-0.16,1.46-0.58,2.1-0.96
			C191.12,360.1,189.52,359.17,188.62,358.99z M184.33,359.77c-0.07-1.05,1.25-1.68,2.31-1.86c2.81-0.47,4.57,1.26,7.3,2
			c0.42-0.23,1.2-0.62,1.17-1.12c-0.12-0.88-1.98-1.72-2.87-1.81c-0.53-0.03-1.17,0.07-1.89,0.31l-1.15-0.88
			c1.37-0.55,2.64-0.6,4.03-0.24c1.1,0.31,2.97,1.22,3.56,2.01c0.48,0.6,0.51,1.08-0.15,1.7c-0.69,0.57-4.2,2.4-5.37,3.29
			c-0.29,0.22-0.5,0.48-0.64,0.76l-1.43-0.83c0.14-0.26,0.38-0.5,0.72-0.74c-1.5-0.08-2.85-0.29-4.16-1.05
			C184.85,360.8,184.38,360.28,184.33,359.77z"/>
		<path class="st17" d="M177.74,349.94c2.44-1.4,5.14-1.83,7.61-1.43c3.61,0.63,7.11,2.98,4.54,5.61l-1.79-0.64
			c1-1.12,0.96-2.14-0.65-3.08c-1.69-0.98-3.79-1.16-5.66-0.64c-1.6,0.47-3.64,1.48-4.58,2.72c-0.9,1.22-0.19,2.34,1.07,3.08
			c1.52,0.87,3.71,1.16,6.13,0.24l1.12,1.07c-2.82,0.98-5.81,0.95-8.38-0.52c-1.2-0.69-1.94-1.39-2.2-2.12
			C174.28,352.51,176.14,350.87,177.74,349.94z"/>
		<polygon class="st45" points="173.32,331.12 169.17,333.51 156.75,326.35 160.9,323.96 		"/>
		<path class="st15" d="M232.98,358.39c0.54,0.32,1.23,1.01,1.14,1.6c-0.03,0.54-0.33,1.13-1.14,1.6l-30.35,17.52
			c-25.29-14.61-50.61-29.2-75.9-43.81c33.07-19.1,30.61-17.8,31.7-18.03c1.36-0.3,2.91-0.19,4.18,0.5L232.98,358.39z M205.34,354.4
			l12.42,7.18l4.13-2.39l-12.41-7.18L205.34,354.4z M201.08,365.29c-2.75,1.6-2.56,3.4-0.74,4.46c2.53,1.48,4.88-0.17,2.44,1.2
			l1.27,0.74l11.2-6.47l-1.38-0.79l-4.01,2.32C210.41,364.7,205.66,362.66,201.08,365.29z M200.4,360.22l-8.1,4.68l1.38,0.79
			c4.58-2.63,4.75-2.84,6.07-3.23c1.16-0.37,2.66-0.05,3.05,0.93l1.76-0.46c-0.37-0.88-1.16-1.32-2.12-1.43
			c-0.46-0.05-1.14,0-2.01,0.15l1.22-0.71L200.4,360.22z M189.15,345.04l12.42,7.18l4.13-2.39l-12.42-7.16L189.15,345.04z
			 M185.28,358.37c-1.3,0.77-1.39,1.87,0.46,2.94c1.31,0.76,2.67,0.97,4.16,1.05c-0.34,0.24-0.59,0.48-0.72,0.74l1.43,0.83
			c0.34-0.68,0.92-1.02,2.96-2.22c0.55-0.31,2.55-1.42,3.05-1.82c0.67-0.63,0.64-1.1,0.15-1.7c-0.6-0.81-2.48-1.7-3.56-2.01
			c-1.38-0.36-2.65-0.31-4.03,0.24l1.15,0.88c0.72-0.24,1.36-0.34,1.89-0.31c0.89,0.09,2.75,0.93,2.87,1.81
			c0.03,0.5-0.76,0.9-1.17,1.12c-1.53-0.41-3.18-1.33-4.35-1.74C187.7,357.61,186.26,357.82,185.28,358.37z M185.52,356.88
			l-1.12-1.07c-2.41,0.91-4.6,0.63-6.13-0.24c-1.25-0.74-1.97-1.85-1.07-3.08c0.93-1.23,2.96-2.24,4.58-2.72
			c1.87-0.52,3.97-0.34,5.66,0.64c1.61,0.93,1.66,1.95,0.65,3.08l1.79,0.64c2.57-2.63-0.94-4.98-4.54-5.61
			c-2.47-0.4-5.17,0.03-7.61,1.43c-1.6,0.93-3.46,2.57-2.8,4.3c0.26,0.72,1,1.43,2.2,2.12C179.71,357.83,182.7,357.86,185.52,356.88
			z M164.18,335.59c-0.24-0.81-1.03-1.2-1.74-1.6c-1.45-0.81-1.99-1.19-4.18-2.41c-0.77-0.43-1.55-0.86-2.32-1.32
			c-0.62-0.38-1.22-0.77-1.89-1.02c-0.9-0.34-2.25-0.41-3.18-0.22c-1.46,0.32-2.88,1.24-4.3,2.13c-1.85,1.16-1.85,1.07-2.8,1.62
			c-1.41,0.87-1.43,1.97-0.5,2.84c0.42,0.36,6.45,3.73,7.64,4.46c1.35,0.79,1.88,1.2,3.48,1.31c3.02,0.19,4.69-1.68,7.98-3.44
			c0.65-0.32,1.52-0.75,1.79-1.55C164.24,336.14,164.25,335.85,164.18,335.59z M169.17,333.51l4.15-2.39l-12.42-7.16l-4.15,2.39
			L169.17,333.51z M189.51,340.48l-12.42-7.18l-4.13,2.39l12.41,7.18L189.51,340.48z"/>
		<path class="st48" d="M148.58,338.74c-4-2.31-3.5-2.06-4.18-2.43c-0.71-0.37-1.52-0.8-1.72-1.6c-0.15-0.55,0.04-1.05,0.45-1.46
			c0.41-0.41,0.9-0.62,1.36-0.88c3.23-1.69,4.95-3.64,7.98-3.44c1.53,0.1,2.2,0.55,3.48,1.33c0.79,0.47,7.11,4.01,7.64,4.46
			c0.51,0.45,0.8,1.03,0.57,1.67c-0.26,0.78-1.12,1.21-1.79,1.55c-3.28,1.76-4.96,3.63-7.98,3.44
			C152.48,341.25,152.39,340.86,148.58,338.74z"/>
		<path class="st15" d="M114.32,345.66c-1.61-0.95-1.45-2.41,0-3.18l1.38-0.81c0.17,0-0.81-0.47,75.88,43.83l-1.38,0.79
			c-0.93,0.54-2.51,0.86-4.2,0.5C184.87,386.53,189.62,389.14,114.32,345.66z"/>
		<path class="st17" d="M113.16,345.66c0-0.53,0-1.07,0-1.6c0.02,0.33,0.14,0.67,0.36,0.95c0.38,0.51-4.21-2.24,71.15,41.28
			c0.93,0.54,2.51,0.86,4.2,0.5c0.98-0.22,1.35-0.51,2.7-1.29c0,0.52,0,1.05,0,1.58l-1.38,0.79c-1.23,0.72-2.84,0.81-4.2,0.52
			c-1.07-0.24,3.52,2.28-71.68-41.14C113.48,346.78,113.16,346.15,113.16,345.66z"/>
	</g>
</g>
<polygon class="st17" points="242.6,73.21 242.6,90.84 219.84,104.21 204.38,95.28 "/>
<path class="st12" d="M260.65,141.34c0,0,33.77,0,50.03,0c-0.38,0.6-3.49,3.35-3.49,3.35l3.49,3.36h-50.03l3.29-3.32L260.65,141.34z
	"/>
<path class="st12" d="M312.72,148.73l-4.19-4.04c1.2-1.06,3.07-3.04,4.19-4.03V148.73z"/>
<g>
	<path class="st49" d="M457.12,232.52c3.77,5.08,2.8,10.86-2.57,13.97c-5.38,3.12-14.15,2.67-20.65-1.81
		c-3.44-2.37-5.28-5.27-5.91-7.78c-0.64-2.56-0.14-4.97,1.2-6.91c1.48-2.14,4.3-4.09,8.48-4.77
		C445,224.03,453.19,227.23,457.12,232.52z M451.07,238.02c0.78-0.64,1.14-1.37,1.05-2.22c-0.06-0.66-0.46-1.37-1.19-2.13
		c0.23-0.13,0.46-0.27,0.69-0.4c-0.27-0.24-0.55-0.48-0.82-0.73c-0.23,0.13-0.46,0.26-0.69,0.4c-1.02-0.76-1.98-1.23-2.87-1.4
		c-1.34-0.26-2.51-0.09-3.54,0.5c-1.06,0.61-1.63,1.57-1.23,2.73c0.25,0.73,0.61,1.38,1.07,1.95c-1.53,0.88-3.06,1.77-4.58,2.65
		c-0.49-0.52-0.68-1.1-0.55-1.74c0.09-0.45,0.47-0.95,1.13-1.49c-0.56-0.36-1.12-0.72-1.67-1.08c-0.7,0.48-1.14,1.01-1.34,1.58
		c-0.2,0.58-0.2,1.13,0,1.65c0.2,0.52,0.61,1.11,1.21,1.78c-0.48,0.28-0.96,0.56-1.44,0.83c0.27,0.24,0.55,0.48,0.82,0.73
		c0.49-0.28,0.97-0.56,1.46-0.84c1.02,0.84,2.17,1.33,3.45,1.49c1.28,0.16,2.42-0.05,3.42-0.63c0.79-0.46,1.4-1.16,1.42-2.07
		c0.01-0.41-0.1-0.86-0.34-1.35c-0.12-0.26-0.45-0.75-0.97-1.48c1.38-0.8,2.77-1.6,4.15-2.4c0.76,0.97,0.6,1.74-0.31,2.5
		C449.97,237.26,450.52,237.64,451.07,238.02z"/>
	<path class="st50" d="M452.13,235.8c0.08,0.84-0.27,1.58-1.05,2.22c-0.55-0.38-1.11-0.76-1.66-1.14c0.91-0.76,1.07-1.53,0.31-2.5
		c-1.38,0.8-2.77,1.6-4.15,2.4c0.52,0.73,0.84,1.22,0.97,1.48c0.24,0.5,0.35,0.95,0.34,1.35c-0.03,0.91-0.63,1.61-1.42,2.07
		c-1,0.58-2.14,0.79-3.42,0.63c-1.28-0.16-2.43-0.66-3.45-1.49c-0.49,0.28-0.97,0.56-1.46,0.84c-0.27-0.24-0.55-0.48-0.82-0.73
		c0.48-0.28,0.96-0.56,1.44-0.83c-0.61-0.67-1.01-1.26-1.21-1.78c-0.2-0.52-0.21-1.07,0-1.65c0.2-0.58,0.65-1.11,1.34-1.58
		c0.56,0.36,1.12,0.72,1.67,1.08c-0.67,0.54-1.04,1.04-1.13,1.49c-0.13,0.64,0.06,1.22,0.55,1.74c1.53-0.88,3.06-1.77,4.58-2.65
		c-0.46-0.57-0.81-1.22-1.07-1.95c-0.4-1.17,0.16-2.12,1.23-2.73c1.02-0.59,2.2-0.76,3.54-0.5c0.9,0.17,1.85,0.64,2.87,1.4
		c0.23-0.13,0.46-0.27,0.69-0.4c0.27,0.24,0.55,0.49,0.82,0.73c-0.23,0.13-0.46,0.27-0.69,0.4
		C451.67,234.44,452.07,235.15,452.13,235.8z M444.94,235.94c1.33-0.77,2.66-1.54,3.98-2.3c-2.16-1.49-4.36-0.56-4.54,0.65
		C444.31,234.71,444.5,235.26,444.94,235.94z M444.81,239.4c0.07-0.4-0.15-1.01-0.64-1.82c-1.46,0.84-2.92,1.69-4.39,2.53
		c0.61,0.44,1.3,0.7,2.07,0.77c0.77,0.07,1.46-0.07,2.07-0.42C444.45,240.16,444.75,239.8,444.81,239.4z"/>
	<path class="st49" d="M448.92,233.64c-1.33,0.77-2.66,1.53-3.98,2.3c-0.44-0.68-0.62-1.23-0.56-1.65
		C444.56,233.08,446.76,232.15,448.92,233.64z"/>
	<path class="st49" d="M444.17,237.58c0.5,0.81,0.71,1.41,0.64,1.82c-0.07,0.4-0.36,0.76-0.89,1.06c-0.61,0.35-1.3,0.49-2.07,0.42
		c-0.77-0.07-1.46-0.33-2.07-0.77C441.25,239.27,442.71,238.43,444.17,237.58z"/>
	<path class="st50" d="M409.11,232.87c-0.2-5.26,6.03-9.98,15.02-11.22c4.41-0.61,9.19-0.33,13.48,0.94c0,0.04-2.16,0.14-4.75,1.07
		c-3.19-0.5-6.65-0.43-9.92,0.29c-2.88,0.63-6.01,1.89-8.13,3.96c-3.23,3.16-2.93,7.09,0.66,10.06c2.3,1.9,5.43,3.01,8.34,3.54
		c0.13,0.43,0.39,1.09,0.46,1.24c0.17,0.4,0.38,0.81,0.46,0.96c-4.01-0.48-8.36-1.76-11.6-4.21c-1.21-0.91-2.29-2-3.04-3.32
		C409.47,235.07,409.15,233.96,409.11,232.87z"/>
	<path class="st50" d="M426.11,228.54c1.82-2.63,5.27-4.98,10.3-5.79c8.77-1.44,18.8,2.35,23.63,8.86
		c4.59,6.19,3.37,13.21-3.12,16.98c-6.5,3.78-17.17,3.26-25.08-2.2c-4.18-2.88-6.42-6.4-7.18-9.45
		C423.88,233.85,424.46,230.92,426.11,228.54z M454.55,246.49c5.36-3.12,6.33-8.89,2.57-13.97c-3.93-5.29-12.12-8.49-19.45-7.3
		c-4.18,0.68-7,2.63-8.48,4.77c-1.34,1.94-1.84,4.34-1.2,6.91c0.63,2.51,2.47,5.41,5.91,7.78
		C440.4,249.16,449.17,249.61,454.55,246.49z"/>
	<path class="st49" d="M424.34,232.83c-0.19,0.72-0.39,1.44-0.58,2.16c-0.27-0.3-0.36-0.65-0.27-1.05
		C423.56,233.63,423.84,233.26,424.34,232.83z"/>
	<path class="st49" d="M423.81,241.5c-2.91-0.53-6.04-1.64-8.34-3.54c-3.6-2.97-3.89-6.9-0.66-10.06c2.12-2.07,5.25-3.33,8.13-3.96
		c3.27-0.72,6.73-0.79,9.92-0.29c-3.87,1.39-7.21,4.13-8.23,8.12c-0.07,0.26-0.14,0.51-0.21,0.77c-0.51-0.2-1.02-0.4-1.54-0.61
		c-0.69,0.46-1.14,0.94-1.32,1.43c-0.19,0.49-0.17,0.93,0.04,1.32c0.22,0.39,0.64,0.83,1.27,1.29c-0.48,0.28-0.96,0.55-1.44,0.83
		c0.28,0.16,0.57,0.33,0.85,0.49c0.37-0.21,0.73-0.42,1.1-0.63c0,0.02-0.03,0.2-0.03,0.25c-0.14,1.25-0.08,2.51,0.25,3.83
		C423.67,241.05,423.78,241.41,423.81,241.5z"/>
	<path class="st50" d="M424.42,232.55c-0.02,0.09-0.05,0.19-0.08,0.28c-0.5,0.42-0.78,0.79-0.85,1.12c-0.09,0.4,0,0.74,0.27,1.05
		c-0.24,0.9-0.25,0.89-0.38,1.68c-0.37,0.21-0.73,0.42-1.1,0.63c-0.28-0.16-0.57-0.33-0.85-0.49c0.48-0.28,0.96-0.55,1.44-0.83
		c-0.63-0.47-1.05-0.9-1.27-1.29c-0.22-0.4-0.23-0.84-0.04-1.32c0.19-0.49,0.63-0.96,1.32-1.43
		C423.39,232.15,423.9,232.35,424.42,232.55z"/>
	<path class="st49" d="M424.42,232.55c0.01,0,0.03,0.01,0.04,0.02c-0.23,1.38-0.18,2.85,0.2,4.37c0.77,3.05,3,6.57,7.18,9.45
		c7.91,5.46,18.58,5.98,25.08,2.2c2.91-1.69,4.76-4.03,5.5-6.65c-0.33,1.23-0.66,2.47-0.99,3.7c-0.02,0.06-0.36,1.51-1.27,2.88
		c-0.19,0.32-0.65,0.91-0.7,0.96c-1.97,2.43-4.94,3.98-7.97,4.76c-8.31,2.13-18.38-0.91-23.91-6.69c-1.16-1.16-2.34-2.81-2.94-4.05
		c-0.69-1.33-1.21-2.99-1.33-4.57c-0.06-0.75-0.03-1.35,0.04-2.01C423.47,235.88,423.64,235.5,424.42,232.55z"/>
	<path class="st49" d="M379.39,210.53c-0.01,0.1-0.01,0.2-0.01,0.3c0-1.52,0-3.05,0-4.58c0,0.02,0.01,0.49,0.06,0.78
		c0.2,1.47,0.84,2.76,1.78,3.93c0.22,0.29,0.72,0.81,0.87,0.95c1.45,1.45,3.87,3,6.96,4.02c0.11,0.04,0.51,0.17,0.64,0.21
		c6.92,2.15,16.01,1.78,22.36-1.55c3.35-1.74,6.47-4.65,6.47-8.39c0,2.12,0,2.57,0,4.64c0,3.07-2.12,5.59-4.65,7.31
		c-2.71,1.87-7.02,3.5-12.41,3.89c0,0,0,0,0,0c-4.08,0.3-8.1-0.17-11.44-1.16c-2.84-0.83-5.9-2.29-7.98-4.37
		C380.39,214.86,379.29,212.83,379.39,210.53z"/>
	<path class="st50" d="M416.01,216.36c-0.85,2.54-3.05,4.51-5.38,5.86c-8.42,4.86-22.42,4.29-29.54-1.25
		c3.51,1.51,7.65,2.22,11.48,2.23c5.07,0.79,11.03,0.19,15.65-2.42c2.33-0.72,4.33-1.73,5.64-2.64
		C414.74,217.55,415.53,216.87,416.01,216.36L416.01,216.36z"/>
	<path class="st49" d="M409.12,237.64c-0.01-0.22-0.01,0.08-0.01-4.77c0.04,1.09,0.36,2.2,0.99,3.31c0.74,1.32,1.83,2.41,3.04,3.32
		c3.24,2.44,7.59,3.73,11.6,4.21c0.76,1.44,1.87,2.89,2.84,3.85c0.37,0.39,0.72,0.72,1.07,1.02c-5.69,0-12.69-1.56-16.76-5.5
		C410.37,241.64,409.22,239.73,409.12,237.64z"/>
	<path class="st49" d="M392.57,223.2c3.2,0.02,6.25-0.42,8.87-1.17c2.33-0.17,4.63-0.58,6.78-1.25
		C403.63,223.38,397.67,224,392.57,223.2z"/>
	<path class="st49" d="M373.21,211.63c0,0.09-0.01,0.18-0.01,0.27c0-1.55,0-3.1,0-4.65c0,1.49,0.51,2.97,1.51,4.35
		c1.77,2.46,4.77,4.17,7.66,5.22c0,0,0,0,0,0c2.08,1.93,4.92,3.25,7.63,4.04c3.31,0.98,7.25,1.46,11.43,1.16
		c-7.8,2.24-16.92,1.12-22.46-2.11c-2.21-1.24-4.43-3.2-5.32-5.59C373.32,213.47,373.17,212.48,373.21,211.63z"/>
	<g>
		<path class="st49" d="M379.38,206.18c0-1.36,0-2.73,0-4.09c0.01-0.01,0.01-0.01,0.02-0.02c0.12,1.44,0.71,2.86,1.76,4.17
			c5.68,7.16,21.97,8.83,31.62,3.28c1.49-0.85,2.87-1.91,3.94-3.26c1.21-1.53,1.79-3.14,1.79-4.73c0,1.44,0,3,0,4.65
			c0,3.75-3.14,6.67-6.47,8.4c-3.73,1.94-7.95,2.74-12.11,2.88c-4.11,0.11-8.07-0.55-10.89-1.54c-3-0.98-6.44-2.89-8.22-5.48
			C379.94,209.19,379.38,207.76,379.38,206.18z"/>
		<path class="st50" d="M416.74,196.83c2.31,2.92,2.44,6.34-0.01,9.44c-1.07,1.35-2.45,2.4-3.94,3.26
			c-9.65,5.55-25.95,3.88-31.62-3.28c-1.78-2.24-2.34-4.89-1.15-7.55c1.01-2.24,2.97-3.92,5.11-5.15
			c6.57-3.77,16.46-4.28,23.94-1.67C411.91,192.86,414.87,194.48,416.74,196.83z M413.58,205.43c2-2.54,1.93-5.35,0.01-7.77
			c-4.66-5.87-18.06-7.28-26.02-2.71c-1.23,0.7-2.37,1.58-3.25,2.69c-2,2.54-1.92,5.35-0.01,7.77c4.66,5.88,18.06,7.28,26.02,2.71
			C411.56,207.42,412.7,206.55,413.58,205.43z"/>
		<path class="st49" d="M413.59,197.66c1.92,2.42,2,5.23-0.01,7.77c-0.88,1.12-2.03,1.98-3.25,2.69
			c-7.96,4.57-21.36,3.17-26.02-2.71c-1.91-2.42-2-5.23,0.01-7.77c0.88-1.11,2.03-1.98,3.25-2.69
			C395.54,190.39,408.93,191.79,413.59,197.66z M402.71,199.09c0.71-0.03,1.42-0.06,2.12-0.08c-0.08-0.75-0.53-1.36-1.35-1.83
			c-0.64-0.37-1.55-0.61-2.72-0.73c0.03-0.19,0.05-0.37,0.08-0.56c-0.4-0.02-0.8-0.04-1.19-0.06c-0.03,0.19-0.05,0.37-0.08,0.56
			c-1.36,0.01-2.4,0.18-3.14,0.49c-1.1,0.47-1.7,1.12-1.82,1.95c-0.16,1.08,0.69,1.82,1.71,2.22c0.83,0.33,1.66,0.55,2.48,0.68
			c-0.18,1.24-0.36,2.49-0.54,3.73c-0.79-0.08-1.45-0.35-1.95-0.79c-0.36-0.31-0.57-0.79-0.63-1.43c-0.69,0.04-1.38,0.08-2.07,0.12
			c-0.01,0.61,0.18,1.14,0.58,1.58c0.4,0.44,0.91,0.77,1.52,0.99c0.61,0.22,1.41,0.39,2.42,0.51c-0.06,0.39-0.11,0.78-0.17,1.17
			c0.4,0.02,0.8,0.04,1.19,0.06c0.06-0.4,0.11-0.79,0.17-1.18c1.43,0.03,2.63-0.21,3.6-0.71c0.97-0.5,1.52-1.16,1.63-1.97
			c0.11-0.8-0.3-1.45-0.97-1.91c-0.36-0.25-0.85-0.47-1.46-0.66c-0.32-0.1-0.98-0.25-1.98-0.44c0.16-1.13,0.32-2.25,0.49-3.38
			c0.65,0.11,1.15,0.3,1.49,0.56C402.46,198.26,402.66,198.63,402.71,199.09z"/>
		<path class="st50" d="M404.84,199.01c-0.71,0.03-1.42,0.05-2.12,0.08c-0.05-0.47-0.25-0.83-0.6-1.09
			c-0.35-0.26-0.84-0.45-1.49-0.56c-0.16,1.13-0.32,2.25-0.49,3.38c1,0.2,1.66,0.34,1.98,0.44c0.61,0.19,1.1,0.41,1.46,0.66
			c0.67,0.46,1.09,1.11,0.97,1.91c-0.12,0.81-0.66,1.47-1.63,1.97c-0.97,0.5-2.17,0.74-3.6,0.71c-0.06,0.4-0.11,0.79-0.17,1.18
			c-0.4-0.02-0.8-0.04-1.19-0.06c0.06-0.39,0.11-0.78,0.17-1.17c-1-0.12-1.81-0.29-2.42-0.51c-0.61-0.22-1.11-0.55-1.52-0.99
			c-0.4-0.44-0.6-0.97-0.58-1.58c0.69-0.04,1.38-0.08,2.07-0.12c0.07,0.64,0.28,1.11,0.63,1.43c0.51,0.45,1.16,0.71,1.95,0.79
			c0.18-1.24,0.36-2.49,0.54-3.73c-0.82-0.13-1.65-0.36-2.48-0.68c-1.03-0.4-1.87-1.14-1.71-2.22c0.12-0.83,0.73-1.48,1.82-1.95
			c0.74-0.31,1.78-0.48,3.14-0.49c0.03-0.19,0.05-0.37,0.08-0.56c0.4,0.02,0.8,0.04,1.19,0.06c-0.03,0.19-0.05,0.37-0.08,0.56
			c1.17,0.12,2.08,0.37,2.72,0.73C404.31,197.65,404.76,198.26,404.84,199.01z M402.46,203.81c0.06-0.42-0.07-0.78-0.4-1.05
			c-0.33-0.28-1.02-0.54-2.08-0.8c-0.17,1.19-0.34,2.38-0.51,3.57c0.8-0.02,1.48-0.19,2.04-0.5
			C402.07,204.71,402.38,204.31,402.46,203.81z M398.96,200.61c0.16-1.08,0.31-2.16,0.47-3.24c-0.8,0.03-1.45,0.18-1.95,0.46
			c-0.5,0.27-0.77,0.61-0.83,1.02C396.49,199.94,397.88,200.36,398.96,200.61z"/>
		<path class="st49" d="M402.06,202.76c0.33,0.28,0.46,0.63,0.4,1.05c-0.07,0.5-0.39,0.91-0.95,1.22c-0.56,0.31-1.24,0.48-2.04,0.5
			c0.17-1.19,0.34-2.38,0.51-3.57C401.03,202.21,401.73,202.48,402.06,202.76z"/>
		<path class="st49" d="M399.43,197.37c-0.16,1.08-0.31,2.16-0.47,3.24c-1.08-0.25-2.47-0.67-2.31-1.77
			c0.06-0.4,0.33-0.74,0.83-1.02C397.98,197.55,398.63,197.4,399.43,197.37z"/>
	</g>
	<path class="st50" d="M382.37,216.83c-2.88-1.05-5.89-2.76-7.66-5.22c-2.23-3.1-2.03-6.7,0.93-9.8c1.25-1.31,2.78-2.31,4.37-3.11
		c-0.42,0.94-0.63,1.89-0.63,2.84c0,0.25,0,0.3,0,0.55c-3.73,3.22-3.6,7.42,0.26,10.56c0.37,1.3,1.14,2.55,2.06,3.51
		C381.94,216.42,382.35,216.81,382.37,216.83z"/>
	<path class="st49" d="M379.42,211.52c0.05,0.5,0.15,0.88,0.22,1.13c-3.85-3.13-3.98-7.34-0.26-10.56
		C379.38,211.34,379.37,211.15,379.42,211.52z"/>
	<path class="st49" d="M377.32,218.83c0.79,0.6,1.94,1.3,3.36,1.95c0.4,0.19,0.4,0.17,0.42,0.18c7.12,5.54,21.12,6.11,29.54,1.25
		c2.33-1.35,4.53-3.31,5.38-5.86l0,0c0.09-0.09,0.29-0.31,0.35-0.38c0,0.96,0,1.92,0,2.88c0-0.08,0-0.15,0-0.23
		c0.05,1.14-0.22,2.3-0.72,3.29c-0.3,0.63-0.77,1.35-1.32,1.97c-0.25,0.29-0.68,0.74-0.9,0.93c-8.15,7.62-27.38,6.85-34.11-0.88
		c-1.27-1.46-2.1-3.21-2.08-5.14c0-0.01,0-0.02,0-0.04C377.26,218.79,377.29,218.81,377.32,218.83z"/>
</g>
<g>
	<path class="st49" d="M85.06,309.8c0-1.36,0-2.73,0-4.09c0.01-0.01,0.01-0.01,0.02-0.02c0.12,1.44,0.71,2.86,1.76,4.17
		c5.68,7.16,21.97,8.83,31.62,3.28c1.49-0.85,2.87-1.91,3.94-3.26c1.21-1.53,1.79-3.14,1.79-4.73c0,1.44,0,3,0,4.65
		c0,3.75-3.14,6.67-6.47,8.4c-3.73,1.94-7.94,2.74-12.11,2.88c-4.11,0.11-8.07-0.55-10.89-1.54c-3-0.98-6.44-2.89-8.22-5.48
		C85.62,312.8,85.06,311.37,85.06,309.8z"/>
	<path class="st50" d="M122.42,300.44c2.31,2.92,2.44,6.34-0.01,9.44c-1.07,1.35-2.45,2.4-3.94,3.26
		c-9.65,5.55-25.95,3.88-31.62-3.28c-1.78-2.24-2.34-4.89-1.15-7.55c1.01-2.24,2.97-3.92,5.11-5.15c6.57-3.77,16.46-4.28,23.94-1.67
		C117.59,296.47,120.55,298.09,122.42,300.44z M119.26,309.05c2-2.54,1.93-5.35,0.01-7.77c-4.66-5.87-18.06-7.28-26.02-2.71
		c-1.23,0.7-2.37,1.58-3.25,2.69c-2,2.54-1.92,5.35-0.01,7.77c4.66,5.88,18.06,7.28,26.02,2.71
		C117.23,311.03,118.38,310.16,119.26,309.05z"/>
	<path class="st49" d="M119.27,301.28c1.92,2.42,2,5.23-0.01,7.77c-0.88,1.12-2.03,1.98-3.25,2.69c-7.96,4.57-21.36,3.17-26.02-2.71
		c-1.91-2.42-2-5.23,0.01-7.77c0.88-1.11,2.03-1.98,3.25-2.69C101.21,294,114.61,295.4,119.27,301.28z M108.39,302.71
		c0.71-0.03,1.42-0.06,2.12-0.08c-0.08-0.75-0.53-1.36-1.35-1.83c-0.64-0.37-1.55-0.61-2.72-0.73c0.03-0.19,0.05-0.37,0.08-0.56
		c-0.4-0.02-0.8-0.04-1.19-0.06c-0.03,0.19-0.05,0.37-0.08,0.56c-1.36,0.01-2.4,0.18-3.14,0.49c-1.1,0.47-1.7,1.12-1.82,1.95
		c-0.16,1.08,0.69,1.82,1.71,2.22c0.83,0.32,1.66,0.55,2.48,0.68c-0.18,1.24-0.36,2.49-0.54,3.73c-0.79-0.08-1.45-0.35-1.95-0.79
		c-0.36-0.31-0.57-0.79-0.63-1.43c-0.69,0.04-1.38,0.08-2.07,0.12c-0.01,0.61,0.18,1.14,0.58,1.58c0.4,0.44,0.91,0.77,1.52,0.99
		c0.61,0.22,1.41,0.39,2.42,0.51c-0.06,0.39-0.11,0.78-0.17,1.17c0.4,0.02,0.8,0.04,1.19,0.06c0.06-0.39,0.11-0.79,0.17-1.19
		c1.43,0.03,2.63-0.21,3.6-0.71s1.52-1.16,1.63-1.97c0.11-0.8-0.3-1.45-0.97-1.91c-0.36-0.25-0.85-0.47-1.46-0.66
		c-0.32-0.1-0.98-0.25-1.98-0.44c0.16-1.13,0.32-2.25,0.49-3.38c0.65,0.11,1.15,0.3,1.49,0.56
		C108.14,301.88,108.33,302.24,108.39,302.71z"/>
	<path class="st50" d="M110.51,302.62c-0.71,0.03-1.42,0.05-2.12,0.08c-0.05-0.47-0.25-0.83-0.6-1.09
		c-0.35-0.26-0.84-0.45-1.49-0.56c-0.16,1.13-0.32,2.25-0.49,3.38c1,0.2,1.66,0.34,1.98,0.44c0.61,0.19,1.1,0.41,1.46,0.66
		c0.67,0.46,1.09,1.11,0.97,1.91c-0.12,0.81-0.66,1.47-1.63,1.97s-2.17,0.74-3.6,0.71c-0.06,0.4-0.11,0.79-0.17,1.19
		c-0.4-0.02-0.8-0.04-1.19-0.06c0.06-0.39,0.11-0.78,0.17-1.17c-1-0.12-1.81-0.29-2.42-0.51c-0.61-0.22-1.11-0.55-1.52-0.99
		c-0.4-0.44-0.6-0.97-0.58-1.58c0.69-0.04,1.38-0.08,2.07-0.12c0.07,0.64,0.28,1.11,0.63,1.43c0.51,0.45,1.16,0.71,1.95,0.79
		c0.18-1.24,0.36-2.49,0.54-3.73c-0.82-0.13-1.65-0.36-2.48-0.68c-1.03-0.4-1.87-1.14-1.71-2.22c0.12-0.83,0.73-1.48,1.82-1.95
		c0.74-0.31,1.78-0.48,3.14-0.49c0.03-0.19,0.05-0.37,0.08-0.56c0.4,0.02,0.8,0.04,1.19,0.06c-0.03,0.19-0.05,0.37-0.08,0.56
		c1.17,0.12,2.08,0.37,2.72,0.73C109.99,301.26,110.44,301.87,110.51,302.62z M108.13,307.42c0.06-0.42-0.07-0.78-0.4-1.05
		c-0.33-0.28-1.02-0.54-2.08-0.8c-0.17,1.19-0.34,2.38-0.51,3.57c0.8-0.02,1.48-0.19,2.04-0.5
		C107.74,308.33,108.06,307.92,108.13,307.42z M104.64,304.22c0.16-1.08,0.31-2.16,0.47-3.24c-0.8,0.03-1.45,0.18-1.95,0.46
		c-0.5,0.27-0.77,0.61-0.83,1.02C102.17,303.55,103.56,303.98,104.64,304.22z"/>
	<path class="st49" d="M107.73,306.37c0.33,0.28,0.46,0.63,0.4,1.05c-0.07,0.5-0.39,0.91-0.95,1.22c-0.56,0.31-1.24,0.48-2.04,0.5
		c0.17-1.19,0.34-2.38,0.51-3.57C106.71,305.83,107.4,306.09,107.73,306.37z"/>
	<path class="st49" d="M105.11,300.98c-0.16,1.08-0.31,2.16-0.47,3.24c-1.08-0.25-2.47-0.67-2.31-1.77c0.06-0.4,0.33-0.74,0.83-1.02
		C103.66,301.17,104.31,301.01,105.11,300.98z"/>
</g>
<g>
	<path class="st49" d="M281.33,392.6c3.77,5.08,2.8,10.86-2.57,13.97c-5.38,3.12-14.15,2.67-20.65-1.81
		c-3.44-2.37-5.28-5.27-5.91-7.78c-0.64-2.56-0.14-4.97,1.2-6.91c1.48-2.14,4.3-4.09,8.48-4.77
		C269.22,384.11,277.4,387.31,281.33,392.6z M275.28,398.1c0.78-0.64,1.14-1.37,1.05-2.22c-0.06-0.66-0.46-1.37-1.19-2.13
		c0.23-0.13,0.46-0.27,0.69-0.4c-0.27-0.24-0.55-0.48-0.82-0.73c-0.23,0.13-0.46,0.26-0.69,0.4c-1.02-0.76-1.98-1.23-2.87-1.4
		c-1.34-0.26-2.51-0.09-3.54,0.5c-1.06,0.61-1.63,1.57-1.23,2.73c0.25,0.73,0.61,1.38,1.07,1.95c-1.53,0.88-3.06,1.77-4.58,2.65
		c-0.49-0.52-0.68-1.1-0.55-1.74c0.09-0.45,0.47-0.95,1.13-1.49c-0.56-0.36-1.11-0.72-1.67-1.08c-0.7,0.48-1.14,1.01-1.34,1.58
		c-0.2,0.58-0.2,1.13,0,1.65c0.2,0.52,0.61,1.12,1.21,1.78c-0.48,0.28-0.96,0.56-1.44,0.83c0.27,0.24,0.55,0.48,0.82,0.73
		c0.49-0.28,0.97-0.56,1.46-0.84c1.02,0.84,2.17,1.33,3.45,1.49c1.28,0.16,2.42-0.05,3.42-0.63c0.79-0.46,1.4-1.16,1.42-2.07
		c0.01-0.41-0.1-0.86-0.34-1.35c-0.12-0.26-0.45-0.75-0.97-1.48c1.38-0.8,2.77-1.6,4.15-2.4c0.76,0.97,0.6,1.75-0.31,2.5
		C274.18,397.34,274.73,397.72,275.28,398.1z"/>
	<path class="st50" d="M276.34,395.88c0.08,0.84-0.27,1.58-1.05,2.22c-0.55-0.38-1.11-0.76-1.66-1.14c0.91-0.76,1.07-1.53,0.31-2.5
		c-1.38,0.8-2.77,1.6-4.15,2.4c0.52,0.73,0.84,1.22,0.97,1.48c0.24,0.5,0.35,0.95,0.34,1.35c-0.03,0.91-0.63,1.61-1.42,2.07
		c-1,0.58-2.14,0.79-3.42,0.63c-1.28-0.16-2.43-0.66-3.45-1.49c-0.49,0.28-0.97,0.56-1.46,0.84c-0.27-0.24-0.55-0.48-0.82-0.73
		c0.48-0.28,0.96-0.56,1.44-0.83c-0.6-0.67-1.01-1.26-1.21-1.78c-0.2-0.52-0.21-1.07,0-1.65c0.2-0.58,0.65-1.11,1.34-1.58
		c0.56,0.36,1.12,0.72,1.67,1.08c-0.67,0.54-1.04,1.04-1.13,1.49c-0.13,0.64,0.06,1.22,0.55,1.74c1.53-0.88,3.06-1.77,4.58-2.65
		c-0.46-0.57-0.81-1.22-1.07-1.95c-0.4-1.17,0.16-2.12,1.23-2.73c1.02-0.59,2.2-0.76,3.54-0.5c0.9,0.17,1.85,0.64,2.87,1.4
		c0.23-0.13,0.46-0.27,0.69-0.4c0.27,0.24,0.55,0.49,0.82,0.73c-0.23,0.13-0.46,0.27-0.69,0.4
		C275.88,394.52,276.28,395.23,276.34,395.88z M269.15,396.02c1.33-0.77,2.66-1.54,3.98-2.3c-2.16-1.49-4.36-0.56-4.54,0.65
		C268.52,394.79,268.71,395.35,269.15,396.02z M269.03,399.48c0.07-0.4-0.15-1.01-0.64-1.82c-1.46,0.84-2.92,1.69-4.39,2.53
		c0.61,0.44,1.3,0.7,2.07,0.77c0.77,0.07,1.46-0.07,2.07-0.42C268.66,400.24,268.96,399.88,269.03,399.48z"/>
	<path class="st49" d="M273.13,393.72c-1.33,0.77-2.66,1.53-3.98,2.3c-0.44-0.68-0.62-1.23-0.56-1.65
		C268.77,393.16,270.97,392.23,273.13,393.72z"/>
	<path class="st49" d="M268.38,397.66c0.5,0.81,0.71,1.41,0.64,1.82c-0.07,0.4-0.36,0.76-0.89,1.06c-0.61,0.35-1.3,0.49-2.07,0.42
		c-0.77-0.07-1.46-0.33-2.07-0.77C265.46,399.35,266.92,398.51,268.38,397.66z"/>
	<path class="st50" d="M233.32,392.95c-0.2-5.26,6.03-9.98,15.02-11.22c4.41-0.61,9.19-0.33,13.48,0.94c0,0.04-2.16,0.14-4.75,1.07
		c-3.19-0.5-6.65-0.43-9.92,0.29c-2.88,0.63-6.01,1.89-8.13,3.96c-3.23,3.16-2.93,7.09,0.66,10.06c2.3,1.9,5.43,3.01,8.34,3.54
		c0.13,0.43,0.39,1.09,0.46,1.24c0.17,0.4,0.38,0.81,0.46,0.96c-4.01-0.48-8.36-1.76-11.6-4.21c-1.21-0.91-2.29-2-3.04-3.32
		C233.68,395.15,233.36,394.04,233.32,392.95z"/>
	<path class="st50" d="M250.32,388.63c1.82-2.63,5.27-4.98,10.3-5.79c8.77-1.44,18.8,2.35,23.63,8.86
		c4.59,6.19,3.37,13.21-3.12,16.98c-6.5,3.78-17.17,3.25-25.08-2.2c-4.18-2.88-6.42-6.4-7.18-9.45
		C248.09,393.93,248.67,391,250.32,388.63z M278.76,406.58c5.36-3.12,6.33-8.89,2.57-13.97c-3.93-5.29-12.12-8.49-19.45-7.3
		c-4.18,0.68-7,2.63-8.48,4.77c-1.34,1.94-1.84,4.34-1.2,6.91c0.63,2.51,2.47,5.41,5.91,7.78
		C264.61,409.24,273.38,409.69,278.76,406.58z"/>
	<path class="st49" d="M248.55,392.91c-0.19,0.72-0.39,1.44-0.58,2.16c-0.27-0.3-0.36-0.65-0.27-1.05
		C247.77,393.71,248.05,393.34,248.55,392.91z"/>
	<path class="st49" d="M248.02,401.58c-2.91-0.53-6.04-1.64-8.34-3.54c-3.6-2.97-3.89-6.9-0.66-10.06c2.12-2.07,5.25-3.33,8.13-3.96
		c3.27-0.72,6.73-0.79,9.92-0.29c-3.87,1.39-7.21,4.13-8.23,8.12c-0.07,0.26-0.14,0.51-0.21,0.77c-0.51-0.2-1.02-0.4-1.53-0.61
		c-0.69,0.46-1.14,0.94-1.33,1.43c-0.19,0.49-0.17,0.93,0.04,1.32c0.22,0.39,0.64,0.83,1.27,1.29c-0.48,0.28-0.96,0.55-1.44,0.83
		c0.28,0.16,0.57,0.33,0.85,0.49c0.37-0.21,0.73-0.42,1.1-0.63c0,0.02-0.03,0.2-0.03,0.25c-0.14,1.25-0.08,2.51,0.25,3.83
		C247.88,401.13,247.99,401.49,248.02,401.58z"/>
	<path class="st50" d="M248.63,392.63c-0.02,0.09-0.05,0.19-0.08,0.28c-0.5,0.42-0.78,0.79-0.85,1.12c-0.09,0.4,0,0.74,0.27,1.05
		c-0.24,0.9-0.25,0.89-0.38,1.68c-0.37,0.21-0.73,0.42-1.1,0.63c-0.28-0.16-0.57-0.33-0.85-0.49c0.48-0.28,0.96-0.55,1.44-0.83
		c-0.63-0.47-1.05-0.9-1.27-1.29c-0.22-0.4-0.23-0.84-0.04-1.32c0.19-0.49,0.63-0.96,1.33-1.43
		C247.6,392.23,248.12,392.43,248.63,392.63z"/>
	<path class="st49" d="M248.63,392.63c0.01,0,0.03,0.01,0.04,0.02c-0.23,1.38-0.18,2.85,0.2,4.37c0.77,3.05,3,6.57,7.18,9.45
		c7.91,5.46,18.58,5.98,25.08,2.2c2.91-1.69,4.76-4.03,5.5-6.65c-0.33,1.23-0.66,2.46-0.99,3.7c-0.02,0.06-0.36,1.51-1.27,2.88
		c-0.19,0.32-0.65,0.91-0.7,0.96c-1.97,2.43-4.94,3.98-7.97,4.76c-8.31,2.13-18.38-0.91-23.91-6.69c-1.16-1.16-2.34-2.81-2.94-4.05
		c-0.69-1.34-1.21-2.99-1.32-4.57c-0.06-0.75-0.03-1.35,0.04-2.01C247.69,395.96,247.85,395.58,248.63,392.63z"/>
	<path class="st49" d="M233.33,397.72c-0.01-0.22-0.01,0.08-0.01-4.77c0.04,1.09,0.36,2.2,0.99,3.31c0.75,1.32,1.83,2.41,3.04,3.32
		c3.24,2.44,7.59,3.73,11.6,4.21c0.75,1.44,1.87,2.89,2.84,3.85c0.37,0.39,0.72,0.72,1.07,1.02c-5.69,0-12.69-1.56-16.76-5.5
		C234.58,401.72,233.43,399.81,233.33,397.72z"/>
</g>
</svg>
